<svg width="414" height="896" viewBox="0 0 414 896" fill="none" xmlns="http://www.w3.org/2000/svg" xmlns:xlink="http://www.w3.org/1999/xlink">
<g opacity="0.8" clip-path="url(#clip0_10982_1502)">
<g opacity="0.4">
<g filter="url(#filter0_f_10982_1502)">
<path d="M656.585 580.277C677.055 697.067 402.287 900.588 239.082 929.192C75.8771 957.797 86.037 800.652 65.5678 683.862C45.0986 567.073 160.809 449.208 324.014 420.604C487.219 392 636.116 463.488 656.585 580.277Z" fill="#069E08"/>
</g>
<g filter="url(#filter1_f_10982_1502)">
<path d="M-122.385 354.162C63.9758 384.482 141.538 522.404 193 650.384C244.462 778.364 137.733 787.96 63.9758 817.618C-9.78167 847.277 -213.684 644.191 -265.146 516.211C-316.608 388.231 -196.142 383.82 -122.385 354.162Z" fill="#3858E9"/>
</g>
</g>
<g style="mix-blend-mode:multiply" opacity="0.1">
<rect x="-1126" y="-20" width="2281" height="945" fill="url(#pattern0_10982_1502)"/>
</g>
</g>
<defs>
<filter id="filter0_f_10982_1502" x="-176.587" y="174.495" width="1074.06" height="997.92" filterUnits="userSpaceOnUse" color-interpolation-filters="sRGB">
<feFlood flood-opacity="0" result="BackgroundImageFix"/>
<feBlend mode="normal" in="SourceGraphic" in2="BackgroundImageFix" result="shape"/>
<feGaussianBlur stdDeviation="119.904" result="effect1_foregroundBlur_10982_1502"/>
</filter>
<filter id="filter1_f_10982_1502" x="-397.467" y="234.258" width="723.902" height="706.185" filterUnits="userSpaceOnUse" color-interpolation-filters="sRGB">
<feFlood flood-opacity="0" result="BackgroundImageFix"/>
<feBlend mode="normal" in="SourceGraphic" in2="BackgroundImageFix" result="shape"/>
<feGaussianBlur stdDeviation="59.952" result="effect1_foregroundBlur_10982_1502"/>
</filter>
<pattern id="pattern0_10982_1502" patternContentUnits="objectBoundingBox" width="0.213943" height="1.11727">
<use xlink:href="#image0_10982_1502" transform="scale(0.000499867 0.00120656)"/>
</pattern>
<clipPath id="clip0_10982_1502">
<rect width="414" height="896" fill="white"/>
</clipPath>
</defs>
</svg>
