<?xml version="1.0" encoding="UTF-8"?>
<svg width="1200px" height="2268px" viewBox="0 0 1200 2268" version="1.1" xmlns="http://www.w3.org/2000/svg" xmlns:xlink="http://www.w3.org/1999/xlink">
    <!-- Generator: Sketch 53 (72520) - https://sketchapp.com -->
    <title>Devices/iPhone X</title>
    <desc>Created with Sketch.</desc>
    <g id="Devices/iPhone-X" stroke="none" stroke-width="1" fill="none" fill-rule="evenodd">
        <g id="iOS/Devices/iPhone-X" transform="translate(69.000000, 90.000000)">
            <path d="M1041,1909.95919 C1041,1944.88551 1038.77244,1982.38714 1022.91023,2012.9722 C1008.29523,2041.70679 983.557707,2063.98467 953.488589,2075.49128 C922.841237,2087.6321 886.270035,2088 863.382435,2088 L199.617565,2088 C176.729965,2088 140.158763,2087.6321 109.511411,2075.49128 C79.4422932,2063.98467 54.7047744,2041.70679 40.0897713,2012.9722 C24.2030845,1982.46073 22,1944.95909 22,1909.95919 L22,177.967227 C22,143.040913 24.2275632,105.539275 40.0897713,74.9542235 C54.7191154,46.247351 79.4548356,23.997308 109.511411,12.5087219 C140.158763,0.367903584 176.729965,0 199.617565,0 L863.382435,0 C886.270035,0 922.841237,0.367903584 953.488589,12.5087219 C983.557707,24.0153274 1008.29523,46.2932078 1022.91023,75.0278042 C1038.79692,105.539275 1041,143.040913 1041,178.040808 L1041,1909.95919 Z" id="Shadow1" fill="#204A69" fill-rule="nonzero"></path>
            <rect id="iOS/Devices/iPhone-X/Home-Indicator-Black" fill="#000000" x="367" y="2009" width="331" height="12" rx="6"></rect>
            <rect id="Speaker" fill="#23354B" x="444" y="54" width="128" height="18" rx="9"></rect>
            <circle id="Camera" fill="#23354B" cx="615" cy="64" r="16"></circle>
        </g>
    </g>
</svg>