<svg fill="none" height="32" viewBox="0 0 32 32" width="32" xmlns="http://www.w3.org/2000/svg" xmlns:xlink="http://www.w3.org/1999/xlink"><clipPath id="a"><path d="m8 8h16v16h-16z"/></clipPath><rect fill="#1877f2" height="32" rx="16" width="32"/><g clip-path="url(#a)"><path d="m24 16c0-4.4183-3.5817-8-8-8s-8 3.5817-8 8c0 3.993 2.9255 7.3027 6.75 7.9028v-5.5903h-2.0312v-2.3125h2.0312v-1.7625c0-2.005 1.1944-3.1125 3.0217-3.1125.875 0 1.7908.1562 1.7908.1562v1.9688h-1.0087c-.9938 0-1.3038.6167-1.3038 1.25v1.5h2.2188l-.3547 2.3125h-1.8641v5.5903c3.8245-.6001 6.75-3.9098 6.75-7.9028z" fill="#fff"/><path d="m19.1141 18.3125.3547-2.3125h-2.2188v-1.5c0-.6327.31-1.25 1.3038-1.25h1.0087v-1.9688s-.9155-.1562-1.7908-.1562c-1.8273 0-3.0217 1.1075-3.0217 3.1125v1.7625h-2.0312v2.3125h2.0312v5.5903c.8283.1296 1.6717.1296 2.5 0v-5.5903z" fill="#1877f2"/></g></svg>