<svg width="32" height="32" viewBox="0 0 32 32" fill="none" xmlns="http://www.w3.org/2000/svg">
<circle cx="16" cy="16" r="16" fill="#74D40C"/>
<path fill-rule="evenodd" clip-rule="evenodd" d="M15.5498 9.40606C14.6514 9.5365 13.5666 9.97404 12.8751 10.485C12.3609 10.865 11.6906 11.6281 11.4241 12.1373L11.1771 12.6089L10.9001 12.4069C10.2407 11.9262 9.76394 11.0147 9.6365 9.99105L9.59307 9.64247L7.80952 9.62385L6.02597 9.60524V10.0899C6.02597 12.4265 7.88536 14.9876 10.2634 15.9267L10.7359 16.1133L10.7446 18.9607C10.7494 20.5267 10.7611 21.8394 10.7706 21.8778C10.78 21.9161 10.7918 22.0965 10.7965 22.2786L10.8051 22.6098L12.606 22.5901L14.4069 22.5704V18.7826C14.4069 16.654 14.4361 14.8402 14.4734 14.6419C14.5756 14.0997 14.8153 13.6516 15.2144 13.2565C15.6861 12.7897 16.1849 12.5924 16.9004 12.5896C17.8959 12.5858 18.6951 13.0863 19.1334 13.9881L19.3593 14.4529L19.3793 18.5139L19.3992 22.5749H21.2355H23.0718L23.0487 18.2699C23.0262 14.0806 23.0214 13.9499 22.8725 13.4072C22.599 12.4107 22.2205 11.7414 21.548 11.0655C20.6431 10.1559 19.6958 9.66994 18.355 9.42753C17.7817 9.32386 16.1993 9.3118 15.5498 9.40606Z" fill="#FBFBFB"/>
</svg>
