<svg width="32" height="32" viewBox="0 0 32 32" fill="none" xmlns="http://www.w3.org/2000/svg">
<path d="M24.2242 0H7.77578C3.49149 0 0 3.60752 0 8.03419V23.1428C0 27.5777 3.49149 31.177 7.77578 31.177H24.2242C28.5165 31.177 32 27.5694 32 23.1428V8.03419C32 3.59925 28.5085 0 24.2242 0ZM16 14.9348C15.2793 14.9348 14.6947 14.3308 14.6947 13.5861C14.6947 12.8415 15.2793 12.2375 16 12.2375C16.7207 12.2375 17.3053 12.8415 17.3053 13.5861C17.3053 14.3308 16.7207 14.9348 16 14.9348ZM16.8008 16.4573C18.01 16.0932 18.9069 14.9514 18.9069 13.5861C18.9069 11.9313 17.6016 10.5826 16 10.5826C14.3984 10.5826 13.0931 11.9313 13.0931 13.5861C13.0931 14.9514 13.99 16.0932 15.1992 16.4573V22.6132C13.7818 19.8828 11.8759 17.9383 9.48148 16.8213V9.00226C9.48148 8.53064 9.84985 8.15003 10.3063 8.15003H21.6857C22.1421 8.15003 22.5105 8.53064 22.5105 9.00226V16.8792C20.044 18.3272 18.1381 20.2799 16.8008 22.7042V16.4573ZM30.3984 23.1428C30.3984 26.6593 27.6276 29.5221 24.2242 29.5221H16.8008V26.9737C17.8819 23.0021 20.1962 20.0151 23.6877 18.0955L24.1121 17.8639V9.00226C24.1121 7.62048 23.023 6.4952 21.6857 6.4952H10.3143C8.97698 6.4952 7.88789 7.62048 7.88789 9.00226V17.9301L8.39239 18.1369C11.5876 19.436 13.8779 22.4146 15.1992 26.982V29.5221H7.77578C4.37237 29.5221 1.6016 26.6593 1.6016 23.1428V8.03419C1.6016 4.51768 4.37237 1.65483 7.77578 1.65483H24.2242C27.6276 1.65483 30.3984 4.51768 30.3984 8.03419V23.1428Z" fill="black"/>
</svg>
