<svg width="24" height="24" viewBox="0 0 24 24" fill="none" xmlns="http://www.w3.org/2000/svg">
<g id="star-outline">
<path id="Star 2" d="M11.5347 15.3973L11.8672 16.0299L11.5347 15.3973L8.29382 17.1011L8.91276 13.4924C8.9684 13.168 8.86085 12.837 8.62517 12.6073L6.00327 10.0515L9.62664 9.52504C9.95235 9.47771 10.2339 9.27314 10.3796 8.97799L12 5.69466L13.6204 8.978C13.7661 9.27314 14.0476 9.47771 14.3734 9.52504L17.9967 10.0515L15.3748 12.6073L15.8983 13.1443L15.3748 12.6073C15.1392 12.837 15.0316 13.168 15.0872 13.4924L15.7062 17.1011L12.4653 15.3973C12.174 15.2442 11.826 15.2442 11.5347 15.3973Z" stroke="#1E1E1E" stroke-width="1.5"/>
</g>
</svg>
