<svg fill="none" height="32" viewBox="0 0 32 32" width="32" xmlns="http://www.w3.org/2000/svg" xmlns:xlink="http://www.w3.org/1999/xlink"><clipPath id="a"><path d="m8 8h16v16h-16z"/></clipPath><rect fill="#ff0076" height="32" rx="16" width="32"/><g clip-path="url(#a)"><path d="m12.6867 8.05595c-.8512.04016-1.4324.176-1.9406.37568-.5259.20496-.97169.48-1.41521.92512s-.71664.89125-.92016 1.41795c-.19696.5093-.3304 1.091-.368 1.9427s-.04592 1.1254-.04176 3.2979.01376 2.4448.05504 3.2982c.04064.8511.176 1.4322.37568 1.9405.20528.526.48.9716.92528 1.4152.44528.4437.89103.7162 1.41903.92.5088.1967 1.0907.3308 1.9423.368.8515.0373 1.1256.046 3.2974.0418s2.4453-.0138 3.2986-.0542c.8532-.0405 1.4313-.1768 1.9398-.3756.5259-.2057.9718-.48 1.4152-.9254s.7163-.8918.9197-1.4189c.1971-.5088.331-1.0907.368-1.9416.0373-.8539.0461-1.1265.0419-3.2987s-.0139-2.4445-.0544-3.2976-.176-1.4325-.3755-1.9411c-.2056-.5259-.48-.97123-.9251-1.41523-.4452-.444-.8919-.7168-1.4188-.91968-.5091-.19696-1.0907-.3312-1.9422-.368s-1.1256-.04624-3.2982-.04208c-2.1727.00416-2.4447.01344-3.298.05504zm.0935 14.46205c-.78-.0339-1.2035-.1635-1.4858-.272-.3737-.144-.64-.318-.9213-.5966-.2812-.2786-.45405-.5458-.59997-.9187-.1096-.2823-.2416-.7053-.27808-1.4853-.03968-.843-.048-1.0962-.05264-3.232s.00352-2.3886.04048-3.232c.03328-.7794.16368-1.2034.272-1.4854.144-.3743.31741-.64.59661-.9212.2792-.2811.5456-.45421.9189-.60013.2819-.11008.705-.24096 1.4847-.27808.8436-.04 1.0964-.048 3.232-.05264 2.1355-.00464 2.3889.00336 3.2329.04048.7794.03392 1.2035.16304 1.4853.272.3739.144.64.31697.9211.59667s.4544.5451.6003.9192c.1103.2811.2412.704.278 1.4841.0401.8437.0492 1.0967.0531 3.232.0038 2.1354-.0037 2.389-.0407 3.232-.034.78-.1633 1.2037-.272 1.4863-.144.3736-.3176.64-.5969.9209-.2794.281-.5455.4541-.9189.6-.2816.11-.7051.2412-1.4842.2783-.8436.0397-1.0964.048-3.2328.0526-2.1363.0047-2.3883-.004-3.232-.0405m6.5216-10.7937c.0003.1899.057.3754.1627.5331.1058.1577.256.2805.4315.3528.1756.0724.3686.0911.5548.0537s.3571-.1291.4911-.2637c.134-.1345.2251-.3057.2618-.492s.0174-.3793-.0556-.5546c-.0731-.1753-.1964-.325-.3545-.4302s-.3438-.1611-.5337-.1607c-.2545.0005-.4985.1021-.6781.2824-.1797.1803-.2804.4246-.28.6792zm-7.4096 4.2837c.0045 2.2688 1.8471 4.1038 4.1154 4.0995s4.1046-1.8467 4.1003-4.1155-1.8473-4.1044-4.116-4.0999c-2.2686.0045-4.104 1.8474-4.0997 4.1159zm1.441-.0029c-.001-.5275.1543-1.0433.4465-1.4825.2921-.4391.7079-.7817 1.1948-.9845s1.023-.2567 1.5405-.1548.9931.3549 1.3668.7271.6286.8469.7326 1.364c.1039.5171.0521 1.0533-.1487 1.541-.2009.4877-.5419.9049-.9799 1.1988-.4379.2938-.9532.4513-1.4806.4523-.3502.0007-.6971-.0675-1.021-.2009-.3238-.1333-.6182-.3292-.8663-.5763-.2481-.2472-.4451-.5408-.5798-.8641-.1346-.3233-.2043-.6699-.2049-1.0201z" fill="#fff"/></g></svg>