<svg width="126" height="71" viewBox="0 0 126 71" fill="none" xmlns="http://www.w3.org/2000/svg">
<rect y="3" width="64" height="64" rx="32" fill="#069E08"/>
<path fill-rule="evenodd" clip-rule="evenodd" d="M19.5 35C19.5 28.0963 25.0963 22.5 32 22.5C38.9037 22.5 44.5 28.0963 44.5 35C44.5 41.9037 38.9037 47.5 32 47.5C25.0963 47.5 19.5 41.9037 19.5 35ZM36.6287 30H40.6475C39.5675 28.1413 37.9137 26.6562 35.9225 25.8038C36.1037 26.6863 36.3937 28.22 36.6287 30ZM33.2675 25.09C33.3525 25.53 33.7512 27.6375 34.0737 30H29.9262C30.2487 27.6375 30.6475 25.53 30.7325 25.09C31.1487 25.0362 31.57 25 32 25C32.43 25 32.8512 25.0362 33.2675 25.09ZM34.3638 37.5C34.4462 36.6075 34.5 35.7475 34.5 35C34.5 34.2525 34.4462 33.3925 34.3638 32.5H29.6362C29.5538 33.3925 29.5 34.2525 29.5 35C29.5 35.7475 29.5538 36.6075 29.6362 37.5H34.3638ZM28.0775 25.8038C27.8963 26.6863 27.6062 28.22 27.3713 30H23.3525C24.4325 28.1413 26.0863 26.6562 28.0775 25.8038ZM27.105 32.5H22.3288C22.1225 33.3012 22 34.135 22 35C22 35.865 22.1212 36.6988 22.3288 37.5H27.1062C27.0413 36.665 27 35.82 27 35C27 34.18 27.0413 33.335 27.105 32.5ZM23.3525 40H27.3713C27.6062 41.78 27.8963 43.3125 28.0775 44.1963C26.0863 43.3438 24.4325 41.8587 23.3525 40ZM29.9262 40C30.2475 42.3625 30.6475 44.4688 30.7325 44.91C31.1487 44.9638 31.57 45 32 45C32.43 45 32.8512 44.9638 33.2675 44.91C33.3525 44.47 33.7512 42.3625 34.0737 40H29.9262ZM35.9225 44.1963C36.1037 43.3125 36.3937 41.78 36.6287 40H40.6475C39.5675 41.8587 37.9137 43.3438 35.9225 44.1963ZM36.895 37.5H41.6712C41.8787 36.6988 42 35.865 42 35C42 34.135 41.8775 33.3012 41.67 32.5H36.8937C36.9587 33.335 37 34.18 37 35C37 35.82 36.9587 36.665 36.895 37.5Z" fill="white"/>
<rect x="56.5" y="1.5" width="68" height="68" rx="34" fill="white"/>
<path d="M90.5 3C72.5951 3 58 17.5552 58 35.5C58 53.4448 72.5552 68 90.5 68C108.445 68 123 53.4448 123 35.5C123 17.5552 108.445 3 90.5 3ZM88.8252 40.8834H72.635L88.8252 9.38037V40.8834ZM92.135 61.5399V30.0368H108.285L92.135 61.5399Z" fill="#069E08"/>
<rect x="56.5" y="1.5" width="68" height="68" rx="34" stroke="white" stroke-width="3"/>
</svg>
