<?xml version="1.0" encoding="UTF-8"?>
<!--Generator: Apple Native CoreSVG 149-->
<!DOCTYPE svg
PUBLIC "-//W3C//DTD SVG 1.1//EN"
       "http://www.w3.org/Graphics/SVG/1.1/DTD/svg11.dtd">
<svg version="1.1" xmlns="http://www.w3.org/2000/svg" xmlns:xlink="http://www.w3.org/1999/xlink" width="3300" height="2200">
 <!--glyph: "uni100E29.medium", point size: 100.0, font version: "17.0d8e1", template writer version: "58"-->
 <g id="Notes">
  <rect height="2200" id="artboard" style="fill:white;opacity:1" width="3300" x="0" y="0"/>
  <line style="fill:none;stroke:black;opacity:1;stroke-width:0.5;" x1="263" x2="3036" y1="292" y2="292"/>
  <text style="stroke:none;fill:black;font-family:SF Pro,SF Pro Display,SF Pro Text,sans-serif;font-size:13;font-weight:bold;" transform="matrix(1 0 0 1 263 322)">Weight/Scale Variations</text>
  <text style="stroke:none;fill:black;font-family:SF Pro,SF Pro Display,SF Pro Text,sans-serif;font-size:13;text-anchor:middle;" transform="matrix(1 0 0 1 559.711 322)">Ultralight</text>
  <text style="stroke:none;fill:black;font-family:SF Pro,SF Pro Display,SF Pro Text,sans-serif;font-size:13;text-anchor:middle;" transform="matrix(1 0 0 1 856.422 322)">Thin</text>
  <text style="stroke:none;fill:black;font-family:SF Pro,SF Pro Display,SF Pro Text,sans-serif;font-size:13;text-anchor:middle;" transform="matrix(1 0 0 1 1153.13 322)">Light</text>
  <text style="stroke:none;fill:black;font-family:SF Pro,SF Pro Display,SF Pro Text,sans-serif;font-size:13;text-anchor:middle;" transform="matrix(1 0 0 1 1449.84 322)">Regular</text>
  <text style="stroke:none;fill:black;font-family:SF Pro,SF Pro Display,SF Pro Text,sans-serif;font-size:13;text-anchor:middle;" transform="matrix(1 0 0 1 1746.56 322)">Medium</text>
  <text style="stroke:none;fill:black;font-family:SF Pro,SF Pro Display,SF Pro Text,sans-serif;font-size:13;text-anchor:middle;" transform="matrix(1 0 0 1 2043.27 322)">Semibold</text>
  <text style="stroke:none;fill:black;font-family:SF Pro,SF Pro Display,SF Pro Text,sans-serif;font-size:13;text-anchor:middle;" transform="matrix(1 0 0 1 2339.98 322)">Bold</text>
  <text style="stroke:none;fill:black;font-family:SF Pro,SF Pro Display,SF Pro Text,sans-serif;font-size:13;text-anchor:middle;" transform="matrix(1 0 0 1 2636.69 322)">Heavy</text>
  <text style="stroke:none;fill:black;font-family:SF Pro,SF Pro Display,SF Pro Text,sans-serif;font-size:13;text-anchor:middle;" transform="matrix(1 0 0 1 2933.4 322)">Black</text>
  <line style="fill:none;stroke:black;opacity:1;stroke-width:0.5;" x1="263" x2="3036" y1="1903" y2="1903"/>
  <g transform="matrix(1 0 0 1 263 1933)">
   <path d="M9.24805 0.830078Q10.8691 0.830078 12.2949 0.214844Q13.7207-0.400391 14.8096-1.49414Q15.8984-2.58789 16.5186-4.01367Q17.1387-5.43945 17.1387-7.05078Q17.1387-8.66211 16.5186-10.0879Q15.8984-11.5137 14.8047-12.6074Q13.7109-13.7012 12.2852-14.3164Q10.8594-14.9316 9.23828-14.9316Q7.62695-14.9316 6.20117-14.3164Q4.77539-13.7012 3.69141-12.6074Q2.60742-11.5137 1.9873-10.0879Q1.36719-8.66211 1.36719-7.05078Q1.36719-5.43945 1.9873-4.01367Q2.60742-2.58789 3.69629-1.49414Q4.78516-0.400391 6.21094 0.214844Q7.63672 0.830078 9.24805 0.830078ZM9.24805-0.654297Q7.91992-0.654297 6.7627-1.14746Q5.60547-1.64062 4.73145-2.51953Q3.85742-3.39844 3.36426-4.56055Q2.87109-5.72266 2.87109-7.05078Q2.87109-8.37891 3.35938-9.54102Q3.84766-10.7031 4.72168-11.582Q5.5957-12.4609 6.75293-12.9541Q7.91016-13.4473 9.23828-13.4473Q10.5762-13.4473 11.7334-12.9541Q12.8906-12.4609 13.7695-11.582Q14.6484-10.7031 15.1465-9.54102Q15.6445-8.37891 15.6445-7.05078Q15.6445-5.72266 15.1514-4.56055Q14.6582-3.39844 13.7842-2.51953Q12.9102-1.64062 11.748-1.14746Q10.5859-0.654297 9.24805-0.654297ZM5.83984-7.04102Q5.83984-6.71875 6.04492-6.51855Q6.25-6.31836 6.5918-6.31836L8.50586-6.31836L8.50586-4.39453Q8.50586-4.0625 8.70605-3.85742Q8.90625-3.65234 9.22852-3.65234Q9.56055-3.65234 9.76562-3.85742Q9.9707-4.0625 9.9707-4.39453L9.9707-6.31836L11.8945-6.31836Q12.2266-6.31836 12.4316-6.51855Q12.6367-6.71875 12.6367-7.04102Q12.6367-7.37305 12.4316-7.57812Q12.2266-7.7832 11.8945-7.7832L9.9707-7.7832L9.9707-9.69727Q9.9707-10.0391 9.76562-10.2441Q9.56055-10.4492 9.22852-10.4492Q8.90625-10.4492 8.70605-10.2441Q8.50586-10.0391 8.50586-9.69727L8.50586-7.7832L6.5918-7.7832Q6.25-7.7832 6.04492-7.57812Q5.83984-7.37305 5.83984-7.04102Z"/>
  </g>
  <g transform="matrix(1 0 0 1 281.867 1933)">
   <path d="M11.709 2.91016Q13.75 2.91016 15.5518 2.12891Q17.3535 1.34766 18.7305-0.0292969Q20.1074-1.40625 20.8887-3.20801Q21.6699-5.00977 21.6699-7.05078Q21.6699-9.0918 20.8887-10.8936Q20.1074-12.6953 18.7305-14.0723Q17.3535-15.4492 15.5469-16.2305Q13.7402-17.0117 11.6992-17.0117Q9.6582-17.0117 7.85645-16.2305Q6.05469-15.4492 4.68262-14.0723Q3.31055-12.6953 2.5293-10.8936Q1.74805-9.0918 1.74805-7.05078Q1.74805-5.00977 2.5293-3.20801Q3.31055-1.40625 4.6875-0.0292969Q6.06445 1.34766 7.86621 2.12891Q9.66797 2.91016 11.709 2.91016ZM11.709 1.25Q9.98047 1.25 8.47656 0.605469Q6.97266-0.0390625 5.83496-1.17676Q4.69727-2.31445 4.05762-3.81836Q3.41797-5.32227 3.41797-7.05078Q3.41797-8.7793 4.05762-10.2832Q4.69727-11.7871 5.83008-12.9297Q6.96289-14.0723 8.4668-14.7119Q9.9707-15.3516 11.6992-15.3516Q13.4277-15.3516 14.9316-14.7119Q16.4355-14.0723 17.5781-12.9297Q18.7207-11.7871 19.3652-10.2832Q20.0098-8.7793 20.0098-7.05078Q20.0098-5.32227 19.3701-3.81836Q18.7305-2.31445 17.5928-1.17676Q16.4551-0.0390625 14.9463 0.605469Q13.4375 1.25 11.709 1.25ZM7.39258-7.04102Q7.39258-6.68945 7.62695-6.46484Q7.86133-6.24023 8.23242-6.24023L10.8789-6.24023L10.8789-3.57422Q10.8789-3.21289 11.1035-2.9834Q11.3281-2.75391 11.6797-2.75391Q12.0508-2.75391 12.2852-2.9834Q12.5195-3.21289 12.5195-3.57422L12.5195-6.24023L15.1758-6.24023Q15.5371-6.24023 15.7715-6.46484Q16.0059-6.68945 16.0059-7.04102Q16.0059-7.41211 15.7715-7.6416Q15.5371-7.87109 15.1758-7.87109L12.5195-7.87109L12.5195-10.5176Q12.5195-10.8984 12.2852-11.1279Q12.0508-11.3574 11.6797-11.3574Q11.3281-11.3574 11.1035-11.1279Q10.8789-10.8984 10.8789-10.5176L10.8789-7.87109L8.23242-7.87109Q7.85156-7.87109 7.62207-7.6416Q7.39258-7.41211 7.39258-7.04102Z"/>
  </g>
  <g transform="matrix(1 0 0 1 305.646 1933)">
   <path d="M14.9707 5.66406Q17.0605 5.66406 18.96 5.01465Q20.8594 4.36523 22.4512 3.19336Q24.043 2.02148 25.2197 0.429688Q26.3965-1.16211 27.0459-3.06641Q27.6953-4.9707 27.6953-7.05078Q27.6953-9.14062 27.0459-11.04Q26.3965-12.9395 25.2197-14.5312Q24.043-16.123 22.4512-17.2998Q20.8594-18.4766 18.9551-19.126Q17.0508-19.7754 14.9609-19.7754Q12.8711-19.7754 10.9717-19.126Q9.07227-18.4766 7.48535-17.2998Q5.89844-16.123 4.72168-14.5312Q3.54492-12.9395 2.90039-11.04Q2.25586-9.14062 2.25586-7.05078Q2.25586-4.9707 2.90527-3.06641Q3.55469-1.16211 4.72656 0.429688Q5.89844 2.02148 7.49023 3.19336Q9.08203 4.36523 10.9814 5.01465Q12.8809 5.66406 14.9707 5.66406ZM14.9707 3.84766Q13.1641 3.84766 11.5283 3.2959Q9.89258 2.74414 8.53516 1.74805Q7.17773 0.751953 6.17676-0.610352Q5.17578-1.97266 4.62891-3.6084Q4.08203-5.24414 4.08203-7.05078Q4.08203-8.86719 4.62891-10.5029Q5.17578-12.1387 6.17188-13.501Q7.16797-14.8633 8.52539-15.8594Q9.88281-16.8555 11.5186-17.4023Q13.1543-17.9492 14.9609-17.9492Q16.7773-17.9492 18.4131-17.4023Q20.0488-16.8555 21.4111-15.8594Q22.7734-14.8633 23.7695-13.501Q24.7656-12.1387 25.3174-10.5029Q25.8691-8.86719 25.8691-7.05078Q25.8789-5.24414 25.332-3.6084Q24.7852-1.97266 23.7842-0.610352Q22.7832 0.751953 21.4209 1.74805Q20.0586 2.74414 18.4229 3.2959Q16.7871 3.84766 14.9707 3.84766ZM9.45312-7.04102Q9.45312-6.66016 9.71191-6.41113Q9.9707-6.16211 10.3711-6.16211L14.0625-6.16211L14.0625-2.46094Q14.0625-2.06055 14.3115-1.80664Q14.5605-1.55273 14.9414-1.55273Q15.3516-1.55273 15.6055-1.80664Q15.8594-2.06055 15.8594-2.46094L15.8594-6.16211L19.5605-6.16211Q19.9609-6.16211 20.2148-6.41113Q20.4688-6.66016 20.4688-7.04102Q20.4688-7.45117 20.2148-7.70508Q19.9609-7.95898 19.5605-7.95898L15.8594-7.95898L15.8594-11.6504Q15.8594-12.0605 15.6055-12.3145Q15.3516-12.5684 14.9414-12.5684Q14.5605-12.5684 14.3115-12.3096Q14.0625-12.0508 14.0625-11.6504L14.0625-7.95898L10.3711-7.95898Q9.96094-7.95898 9.70703-7.70508Q9.45312-7.45117 9.45312-7.04102Z"/>
  </g>
  <text style="stroke:none;fill:black;font-family:SF Pro,SF Pro Display,SF Pro Text,sans-serif;font-size:13;font-weight:bold;" transform="matrix(1 0 0 1 263 1953)">Design Variations</text>
  <text style="stroke:none;fill:black;font-family:SF Pro,SF Pro Display,SF Pro Text,sans-serif;font-size:13;" transform="matrix(1 0 0 1 263 1971)">Symbols are supported in up to nine weights and three scales.</text>
  <text style="stroke:none;fill:black;font-family:SF Pro,SF Pro Display,SF Pro Text,sans-serif;font-size:13;" transform="matrix(1 0 0 1 263 1989)">For optimal layout with text and other symbols, vertically align</text>
  <text style="stroke:none;fill:black;font-family:SF Pro,SF Pro Display,SF Pro Text,sans-serif;font-size:13;" transform="matrix(1 0 0 1 263 2007)">symbols with the adjacent text.</text>
  <line style="fill:none;stroke:#00AEEF;stroke-width:0.5;opacity:1.0;" x1="776" x2="776" y1="1919" y2="1933"/>
  <g transform="matrix(1 0 0 1 776 1933)">
   <path d="M3.31055 0.15625Q3.70117 0.15625 3.91602-0.00976562Q4.13086-0.175781 4.26758-0.585938L5.52734-4.0332L11.2891-4.0332L12.5488-0.585938Q12.6855-0.175781 12.9004-0.00976562Q13.1152 0.15625 13.4961 0.15625Q13.8867 0.15625 14.1162-0.0585938Q14.3457-0.273438 14.3457-0.644531Q14.3457-0.869141 14.2383-1.17188L9.6582-13.3691Q9.48242-13.8184 9.17969-14.043Q8.87695-14.2676 8.4082-14.2676Q7.5-14.2676 7.17773-13.3789L2.59766-1.16211Q2.49023-0.859375 2.49023-0.634766Q2.49023-0.263672 2.70996-0.0537109Q2.92969 0.15625 3.31055 0.15625ZM6.00586-5.51758L8.37891-12.0898L8.42773-12.0898L10.8008-5.51758Z"/>
  </g>
  <line style="fill:none;stroke:#00AEEF;stroke-width:0.5;opacity:1.0;" x1="793.197" x2="793.197" y1="1919" y2="1933"/>
  <text style="stroke:none;fill:black;font-family:SF Pro,SF Pro Display,SF Pro Text,sans-serif;font-size:13;font-weight:bold;" transform="matrix(1 0 0 1 776 1953)">Margins</text>
  <text style="stroke:none;fill:black;font-family:SF Pro,SF Pro Display,SF Pro Text,sans-serif;font-size:13;" transform="matrix(1 0 0 1 776 1971)">Leading and trailing margins on the left and right side of each symbol</text>
  <text style="stroke:none;fill:black;font-family:SF Pro,SF Pro Display,SF Pro Text,sans-serif;font-size:13;" transform="matrix(1 0 0 1 776 1989)">can be adjusted by modifying the x-location of the margin guidelines.</text>
  <text style="stroke:none;fill:black;font-family:SF Pro,SF Pro Display,SF Pro Text,sans-serif;font-size:13;" transform="matrix(1 0 0 1 776 2007)">Modifications are automatically applied proportionally to all</text>
  <text style="stroke:none;fill:black;font-family:SF Pro,SF Pro Display,SF Pro Text,sans-serif;font-size:13;" transform="matrix(1 0 0 1 776 2025)">scales and weights.</text>
  <g transform="matrix(1 0 0 1 1289 1933)">
   <path d="M2.8418 1.86523L4.54102 3.57422Q5.18555 4.22852 5.90332 4.17969Q6.62109 4.13086 7.31445 3.35938L18.0078-8.42773L17.041-9.4043L6.42578 2.27539Q6.16211 2.57812 5.89355 2.61719Q5.625 2.65625 5.27344 2.30469L4.10156 1.14258Q3.75 0.791016 3.79395 0.522461Q3.83789 0.253906 4.14062-0.0195312L15.6152-10.8203L14.6387-11.7871L3.04688-0.898438Q2.30469-0.214844 2.25098 0.498047Q2.19727 1.21094 2.8418 1.86523ZM9.25781-16.3281Q8.94531-16.0254 8.90625-15.6348Q8.86719-15.2441 9.04297-14.9512Q9.21875-14.6777 9.55566-14.541Q9.89258-14.4043 10.3809-14.5215Q11.4746-14.7754 12.5977-14.7314Q13.7207-14.6875 14.7949-13.9844L14.209-12.5293Q13.9551-11.9043 14.0674-11.4404Q14.1797-10.9766 14.5801-10.5664L16.875-8.25195Q17.2363-7.88086 17.5781-7.82227Q17.9199-7.76367 18.3398-7.8418L19.4043-8.03711L20.0684-7.36328L20.0293-6.80664Q20-6.43555 20.1221-6.12305Q20.2441-5.81055 20.6055-5.44922L21.3672-4.70703Q21.7285-4.3457 22.1533-4.33105Q22.5781-4.31641 22.9297-4.66797L25.8398-7.58789Q26.1914-7.93945 26.1816-8.35449Q26.1719-8.76953 25.8105-9.13086L25.0391-9.89258Q24.6875-10.2539 24.3799-10.3857Q24.0723-10.5176 23.7109-10.4883L23.1348-10.4395L22.4902-11.0742L22.7344-12.1973Q22.832-12.6172 22.6953-12.9834Q22.5586-13.3496 22.1191-13.7891L19.9219-15.9766Q18.6719-17.2168 17.2607-17.8369Q15.8496-18.457 14.4189-18.4814Q12.9883-18.5059 11.665-17.959Q10.3418-17.4121 9.25781-16.3281ZM10.752-15.957Q11.6602-16.6211 12.7002-16.9043Q13.7402-17.1875 14.8047-17.085Q15.8691-16.9824 16.8701-16.5137Q17.8711-16.0449 18.7012-15.2051L21.1328-12.793Q21.3086-12.6172 21.3525-12.4512Q21.3965-12.2852 21.3379-12.0312L21.0156-10.5469L22.5195-9.0625L23.5059-9.12109Q23.6914-9.13086 23.7891-9.09668Q23.8867-9.0625 24.0332-8.91602L24.6094-8.33984L22.168-5.89844L21.5918-6.47461Q21.4453-6.62109 21.4062-6.71875Q21.3672-6.81641 21.377-7.01172L21.4453-7.98828L19.9512-9.47266L18.4277-9.21875Q18.1836-9.16992 18.042-9.2041Q17.9004-9.23828 17.7148-9.41406L15.7129-11.416Q15.5176-11.5918 15.4932-11.7529Q15.4688-11.9141 15.5859-12.1875L16.4648-14.2773Q15.293-15.3711 13.8281-15.791Q12.3633-16.2109 10.8398-15.7617Q10.7227-15.7324 10.6885-15.8057Q10.6543-15.8789 10.752-15.957Z"/>
  </g>
  <text style="stroke:none;fill:black;font-family:SF Pro,SF Pro Display,SF Pro Text,sans-serif;font-size:13;font-weight:bold;" transform="matrix(1 0 0 1 1289 1953)">Exporting</text>
  <text style="stroke:none;fill:black;font-family:SF Pro,SF Pro Display,SF Pro Text,sans-serif;font-size:13;" transform="matrix(1 0 0 1 1289 1971)">Symbols should be outlined when exporting to ensure the</text>
  <text style="stroke:none;fill:black;font-family:SF Pro,SF Pro Display,SF Pro Text,sans-serif;font-size:13;" transform="matrix(1 0 0 1 1289 1989)">design is preserved when submitting to Xcode.</text>
  <text id="template-version" style="stroke:none;fill:black;font-family:SF Pro,SF Pro Display,SF Pro Text,sans-serif;font-size:13;text-anchor:end;" transform="matrix(1 0 0 1 3036 1933)">Template v.2.0</text>
  <text style="stroke:none;fill:black;font-family:SF Pro,SF Pro Display,SF Pro Text,sans-serif;font-size:13;text-anchor:end;" transform="matrix(1 0 0 1 3036 1951)">Requires Xcode 13 or greater</text>
  <text id="descriptive-name" style="stroke:none;fill:black;font-family:SF Pro,SF Pro Display,SF Pro Text,sans-serif;font-size:13;text-anchor:end;" transform="matrix(1 0 0 1 3036 1969)">Generated from fork.knife</text>
  <text style="stroke:none;fill:black;font-family:SF Pro,SF Pro Display,SF Pro Text,sans-serif;font-size:13;text-anchor:end;" transform="matrix(1 0 0 1 3036 1987)">Typeset at 100 points</text>
  <text style="stroke:none;fill:black;font-family:SF Pro,SF Pro Display,SF Pro Text,sans-serif;font-size:13;" transform="matrix(1 0 0 1 263 726)">Small</text>
  <text style="stroke:none;fill:black;font-family:SF Pro,SF Pro Display,SF Pro Text,sans-serif;font-size:13;" transform="matrix(1 0 0 1 263 1156)">Medium</text>
  <text style="stroke:none;fill:black;font-family:SF Pro,SF Pro Display,SF Pro Text,sans-serif;font-size:13;" transform="matrix(1 0 0 1 263 1586)">Large</text>
 </g>
 <g id="Guides">
  <g id="H-reference" style="fill:#27AAE1;stroke:none;" transform="matrix(1 0 0 1 339 696)">
   <path d="M0.976562 0L3.66211 0L29.3457-67.1387L30.0293-67.1387L30.0293-70.459L28.125-70.459ZM11.6699-24.4629L46.9727-24.4629L46.2402-26.709L12.4512-26.709ZM55.127 0L57.7637 0L30.6152-70.459L29.4434-70.459L29.4434-67.1387Z"/>
  </g>
  <line id="Baseline-S" style="fill:none;stroke:#27AAE1;opacity:1;stroke-width:0.5;" x1="263" x2="3036" y1="696" y2="696"/>
  <line id="Capline-S" style="fill:none;stroke:#27AAE1;opacity:1;stroke-width:0.5;" x1="263" x2="3036" y1="625.541" y2="625.541"/>
  <g id="H-reference" style="fill:#27AAE1;stroke:none;" transform="matrix(1 0 0 1 339 1126)">
   <path d="M0.976562 0L3.66211 0L29.3457-67.1387L30.0293-67.1387L30.0293-70.459L28.125-70.459ZM11.6699-24.4629L46.9727-24.4629L46.2402-26.709L12.4512-26.709ZM55.127 0L57.7637 0L30.6152-70.459L29.4434-70.459L29.4434-67.1387Z"/>
  </g>
  <line id="Baseline-M" style="fill:none;stroke:#27AAE1;opacity:1;stroke-width:0.5;" x1="263" x2="3036" y1="1126" y2="1126"/>
  <line id="Capline-M" style="fill:none;stroke:#27AAE1;opacity:1;stroke-width:0.5;" x1="263" x2="3036" y1="1055.54" y2="1055.54"/>
  <g id="H-reference" style="fill:#27AAE1;stroke:none;" transform="matrix(1 0 0 1 339 1556)">
   <path d="M0.976562 0L3.66211 0L29.3457-67.1387L30.0293-67.1387L30.0293-70.459L28.125-70.459ZM11.6699-24.4629L46.9727-24.4629L46.2402-26.709L12.4512-26.709ZM55.127 0L57.7637 0L30.6152-70.459L29.4434-70.459L29.4434-67.1387Z"/>
  </g>
  <line id="Baseline-L" style="fill:none;stroke:#27AAE1;opacity:1;stroke-width:0.5;" x1="263" x2="3036" y1="1556" y2="1556"/>
  <line id="Capline-L" style="fill:none;stroke:#27AAE1;opacity:1;stroke-width:0.5;" x1="263" x2="3036" y1="1485.54" y2="1485.54"/>
  <line id="left-margin" style="fill:none;stroke:#00AEEF;stroke-width:0.5;opacity:1.0;" x1="1403.85" x2="1403.85" y1="1030.79" y2="1150.12"/>
  <line id="right-margin" style="fill:none;stroke:#00AEEF;stroke-width:0.5;opacity:1.0;" x1="1495.84" x2="1495.84" y1="1030.79" y2="1150.12"/>
 </g>
 <g id="Symbols">
  <g id="Black-L" transform="matrix(1 0 0 1 2868.12 1556)">
   <path d="M41.6992 38.8672Q46.5332 38.8672 49.292 36.2549Q52.0508 33.6426 52.002 29.1504L50.6836-44.4824Q50.6348-47.2656 51.2695-48.4375Q51.9043-49.6094 53.8086-50.4883Q58.5938-52.7344 61.6943-55.4443Q64.7949-58.1543 66.1621-62.4023Q67.5293-66.6504 67.1875-73.5352L65.2344-111.914Q65.0879-114.697 63.5986-116.26Q62.1094-117.822 59.6191-117.822Q57.1289-117.822 55.7373-116.187Q54.3457-114.551 54.3945-111.768L54.9316-74.7559Q54.9805-72.8027 54.0283-71.7285Q53.0762-70.6543 51.5137-70.6543Q49.7559-70.6543 48.8281-71.6797Q47.9004-72.7051 47.8516-74.6094L47.1191-113.135Q47.0703-115.771 45.6055-117.358Q44.1406-118.945 41.6992-118.945Q39.209-118.945 37.7441-117.358Q36.2793-115.771 36.2305-113.135L35.5469-74.6094Q35.498-72.7539 34.5215-71.7041Q33.5449-70.6543 31.8848-70.6543Q30.2246-70.6543 29.2725-71.7285Q28.3203-72.8027 28.3691-74.7559L28.9551-111.768Q29.0039-114.551 27.6367-116.187Q26.2695-117.822 23.7305-117.822Q21.2402-117.822 19.751-116.235Q18.2617-114.648 18.0664-111.914L16.1133-73.5352Q15.7715-66.6504 17.1631-62.4023Q18.5547-58.1543 21.6797-55.4443Q24.8047-52.7344 29.541-50.4883Q31.4453-49.6094 32.1045-48.4375Q32.7637-47.2656 32.7148-44.4824L31.3477 29.1504Q31.2012 33.6914 34.0332 36.2793Q36.8652 38.8672 41.6992 38.8672ZM94.7754-19.9707L93.8477 29.1504Q93.75 33.6914 96.5576 36.2793Q99.3652 38.8672 104.15 38.8672Q109.082 38.8672 111.792 36.3037Q114.502 33.7402 114.502 29.2969L114.502-113.379Q114.502-115.918 113.013-117.432Q111.523-118.945 109.18-118.945Q107.178-118.945 105.64-117.847Q104.102-116.748 102.344-114.307Q98.3398-108.74 94.873-100.439Q91.4062-92.1387 88.7939-82.3242Q86.1816-72.5098 84.7168-62.3535Q83.252-52.1973 83.252-42.8711L83.252-38.6719Q83.252-34.8633 84.5703-32.3486Q85.8887-29.834 89.3555-27.4414L91.5527-26.0254Q93.4082-24.7559 94.1162-23.4619Q94.8242-22.168 94.7754-19.9707Z"/>
  </g>
  <g id="Heavy-L" transform="matrix(1 0 0 1 2573.02 1556)">
   <path d="M40.625 37.4512Q45.2148 37.4512 47.876 34.9609Q50.5371 32.4707 50.4883 28.125L49.1699-44.7266Q49.1211-47.2656 49.7803-48.4375Q50.4395-49.6094 52.1973-50.4395Q56.8359-52.5879 59.8145-55.1758Q62.793-57.7637 64.0869-61.792Q65.3809-65.8203 65.0879-72.4121L63.1836-110.742Q63.0371-113.379 61.6455-114.819Q60.2539-116.26 57.9102-116.26Q55.5664-116.26 54.248-114.746Q52.9297-113.232 52.9785-110.645L53.4668-73.5352Q53.5156-71.6309 52.5635-70.6055Q51.6113-69.5801 50.0488-69.5801Q48.3398-69.5801 47.4121-70.5811Q46.4844-71.582 46.4355-73.3887L45.7031-111.914Q45.6543-114.404 44.2871-115.869Q42.9199-117.334 40.625-117.334Q38.2812-117.334 36.9141-115.869Q35.5469-114.404 35.498-111.914L34.8145-73.3887Q34.7656-71.582 33.7891-70.5811Q32.8125-69.5801 31.2012-69.5801Q29.541-69.5801 28.5889-70.6055Q27.6367-71.6309 27.6855-73.5352L28.2227-110.645Q28.2715-113.232 26.9775-114.746Q25.6836-116.26 23.3398-116.26Q20.9961-116.26 19.5801-114.795Q18.1641-113.33 18.0176-110.742L16.1133-72.4121Q15.7715-65.8203 17.0898-61.792Q18.4082-57.7637 21.4111-55.1758Q24.4141-52.5879 29.0039-50.4395Q30.8105-49.6094 31.4697-48.4375Q32.1289-47.2656 32.0801-44.7266L30.7617 28.125Q30.6152 32.5195 33.3252 34.9854Q36.0352 37.4512 40.625 37.4512ZM92.627-20.166L91.5527 28.0273Q91.4551 32.4707 94.1406 34.9609Q96.8262 37.4512 101.416 37.4512Q106.104 37.4512 108.716 35.0098Q111.328 32.5684 111.328 28.3203L111.328-112.012Q111.328-114.502 109.863-115.918Q108.398-117.334 106.25-117.334Q104.297-117.334 102.832-116.26Q101.367-115.186 99.6582-112.842Q95.7031-107.324 92.334-99.2676Q88.9648-91.2109 86.4502-81.665Q83.9355-72.1191 82.5439-62.1338Q81.1523-52.1484 81.1523-42.7246L81.1523-38.7207Q81.1523-35.0098 82.4463-32.5195Q83.7402-30.0293 86.9141-27.832L89.4043-26.2207Q91.2109-24.9512 91.9434-23.6328Q92.6758-22.3145 92.627-20.166Z"/>
  </g>
  <g id="Bold-L" transform="matrix(1 0 0 1 2278.09 1556)">
   <path d="M39.4531 35.8887Q43.75 35.8887 46.2891 33.5205Q48.8281 31.1523 48.7793 27.0508L47.5098-45.0195Q47.4609-47.2656 48.1201-48.4375Q48.7793-49.6094 50.4395-50.3906Q54.9316-52.4414 57.7393-54.8828Q60.5469-57.3242 61.7676-61.1328Q62.9883-64.9414 62.6953-71.1426L60.8887-109.473Q60.7422-111.865 59.4482-113.208Q58.1543-114.551 55.957-114.551Q53.8086-114.551 52.5879-113.159Q51.3672-111.768 51.416-109.375L51.9043-72.2168Q51.9043-70.3613 50.9521-69.3604Q50-68.3594 48.4375-68.3594Q46.8262-68.3594 45.8496-69.3359Q44.873-70.3125 44.873-72.0703L44.1895-110.596Q44.1406-112.891 42.8711-114.233Q41.6016-115.576 39.4531-115.576Q37.2559-115.576 35.9863-114.233Q34.7168-112.891 34.668-110.596L33.9844-72.0703Q33.9844-70.3125 33.0078-69.3359Q32.0312-68.3594 30.4199-68.3594Q28.8086-68.3594 27.8564-69.3604Q26.9043-70.3613 26.9531-72.2168L27.4414-109.375Q27.4414-111.768 26.2451-113.159Q25.0488-114.551 22.9004-114.551Q20.7031-114.551 19.4092-113.208Q18.1152-111.865 17.9688-109.473L16.1133-71.1426Q15.8203-64.9414 17.0654-61.1328Q18.3105-57.3242 21.1426-54.8828Q23.9746-52.4414 28.3691-50.3906Q30.0781-49.6094 30.7373-48.4375Q31.3965-47.2656 31.3965-45.0195L30.0781 27.0508Q29.9805 31.2012 32.5439 33.5449Q35.1074 35.8887 39.4531 35.8887ZM90.1367-20.4102L88.9648 26.7578Q88.8184 31.1035 91.4062 33.4961Q93.9941 35.8887 98.291 35.8887Q102.686 35.8887 105.2 33.5938Q107.715 31.2988 107.715 27.2461L107.715-110.498Q107.715-112.939 106.323-114.258Q104.932-115.576 102.93-115.576Q101.074-115.576 99.6582-114.526Q98.2422-113.477 96.6309-111.23Q92.7246-105.811 89.4775-97.998Q86.2305-90.1855 83.8135-80.9326Q81.3965-71.6797 80.0781-61.8652Q78.7598-52.0508 78.7598-42.627L78.7598-38.7695Q78.7598-35.1562 80.0049-32.7393Q81.25-30.3223 84.1797-28.3203L87.0117-26.416Q88.7695-25.1953 89.502-23.8281Q90.2344-22.4609 90.1367-20.4102Z"/>
  </g>
  <g id="Semibold-L" transform="matrix(1 0 0 1 1982.62 1556)">
   <path d="M38.623 34.7656Q42.7246 34.7656 45.166 32.4951Q47.6074 30.2246 47.5586 26.2695L46.3379-45.2148Q46.2891-47.2656 46.9482-48.4375Q47.6074-49.6094 49.2188-50.3418Q53.5645-52.2949 56.2744-54.6387Q58.9844-56.9824 60.1318-60.6445Q61.2793-64.3066 61.084-70.2148L59.2773-108.594Q59.1797-110.84 57.9346-112.085Q56.6895-113.33 54.6387-113.33Q52.5879-113.33 51.4404-112.036Q50.293-110.742 50.293-108.447L50.7812-71.2402Q50.7812-69.4824 49.8047-68.5059Q48.8281-67.5293 47.3145-67.5293Q45.7031-67.5293 44.7266-68.457Q43.75-69.3848 43.75-71.0938L43.0664-109.668Q43.0176-111.865 41.8213-113.086Q40.625-114.307 38.623-114.307Q36.5234-114.307 35.3271-113.086Q34.1309-111.865 34.082-109.668L33.3984-71.0938Q33.3984-69.4336 32.4219-68.4814Q31.4453-67.5293 29.834-67.5293Q28.2715-67.5293 27.3193-68.5059Q26.3672-69.4824 26.416-71.2402L26.8555-108.447Q26.8555-110.742 25.7324-112.036Q24.6094-113.33 22.5586-113.33Q20.459-113.33 19.2383-112.085Q18.0176-110.84 17.9199-108.594L16.1133-70.2148Q15.8203-64.3066 16.9922-60.6445Q18.1641-56.9824 20.8984-54.6387Q23.6328-52.2949 27.9297-50.3418Q29.541-49.6094 30.2246-48.4375Q30.9082-47.2656 30.8594-45.2148L29.6387 26.2695Q29.4922 30.2734 31.958 32.5195Q34.4238 34.7656 38.623 34.7656ZM88.4766-20.5566L87.1582 25.8301Q87.0605 30.1758 89.5508 32.4707Q92.041 34.7656 96.1426 34.7656Q100.391 34.7656 102.808 32.5928Q105.225 30.4199 105.225 26.4648L105.225-109.473Q105.225-111.865 103.882-113.086Q102.539-114.307 100.635-114.307Q98.8281-114.307 97.4609-113.306Q96.0938-112.305 94.5801-110.107Q90.7227-104.688 87.5244-97.0703Q84.3262-89.4531 82.0068-80.4199Q79.6875-71.3867 78.418-61.6943Q77.1484-52.002 77.1484-42.4805L77.1484-38.8184Q77.1484-35.2539 78.3691-32.8613Q79.5898-30.4688 82.2754-28.6133L85.3516-26.5137Q87.0605-25.3418 87.8174-23.9502Q88.5742-22.5586 88.4766-20.5566Z"/>
  </g>
  <g id="Medium-L" transform="matrix(1 0 0 1 1686.86 1556)">
   <path d="M37.9883 33.9355Q41.9922 33.9355 44.3604 31.7383Q46.7285 29.541 46.6797 25.6836L45.459-45.3613Q45.4102-47.2656 46.0693-48.4375Q46.7285-49.6094 48.291-50.3418Q52.5391-52.1973 55.1514-54.4678Q57.7637-56.7383 58.9111-60.3027Q60.0586-63.8672 59.8145-69.5801L58.0566-107.91Q57.959-110.059 56.7627-111.23Q55.5664-112.402 53.6133-112.402Q51.6602-112.402 50.5615-111.182Q49.4629-109.961 49.4629-107.812L49.9023-70.5566Q49.9512-68.7988 48.9746-67.8467Q47.998-66.8945 46.4844-66.8945Q44.9219-66.8945 43.9209-67.8223Q42.9199-68.75 42.9199-70.4102L42.2852-108.984Q42.2363-111.035 41.0889-112.207Q39.9414-113.379 37.9883-113.379Q35.9863-113.379 34.8389-112.207Q33.6914-111.035 33.6914-108.984L33.0078-70.4102Q32.959-68.75 31.9824-67.8223Q31.0059-66.8945 29.4434-66.8945Q27.8809-66.8945 26.9287-67.8467Q25.9766-68.7988 26.0254-70.5566L26.416-107.812Q26.4648-109.961 25.3662-111.182Q24.2676-112.402 22.3145-112.402Q20.3125-112.402 19.1406-111.23Q17.9688-110.059 17.8711-107.91L16.1133-69.5801Q15.8691-63.8672 16.9922-60.3027Q18.1152-56.7383 20.752-54.4678Q23.3887-52.1973 27.6367-50.3418Q29.1504-49.6094 29.834-48.4375Q30.5176-47.2656 30.5176-45.3613L29.248 25.6836Q29.1504 29.5898 31.543 31.7627Q33.9355 33.9355 37.9883 33.9355ZM87.1582-20.6543L85.791 25.1953Q85.6445 29.4434 88.0859 31.6895Q90.5273 33.9355 94.4824 33.9355Q98.584 33.9355 100.952 31.8359Q103.32 29.7363 103.32 25.8789L103.32-108.643Q103.32-111.035 102.002-112.207Q100.684-113.379 98.877-113.379Q97.1191-113.379 95.7764-112.378Q94.4336-111.377 92.9688-109.277Q89.1113-103.906 85.9863-96.4111Q82.8613-88.916 80.5908-80.0293Q78.3203-71.1426 77.0996-61.5479Q75.8789-51.9531 75.8789-42.4316L75.8789-38.8184Q75.8789-35.3516 77.0752-32.9834Q78.2715-30.6152 80.8105-28.8574L84.082-26.6113Q85.7422-25.4395 86.499-24.0234Q87.2559-22.6074 87.1582-20.6543Z"/>
  </g>
  <g id="Regular-L" transform="matrix(1 0 0 1 1391.37 1556)">
   <path d="M37.1582 32.8613Q40.9668 32.8613 43.2617 30.7617Q45.5566 28.6621 45.5078 24.9023L44.2871-45.5566Q44.2383-47.2656 44.9219-48.4375Q45.6055-49.6094 47.0703-50.293Q51.2207-52.0996 53.7354-54.2725Q56.25-56.4453 57.3242-59.8389Q58.3984-63.2324 58.2031-68.7012L56.4941-107.031Q56.3965-109.033 55.2734-110.132Q54.1504-111.23 52.2949-111.23Q50.4395-111.23 49.4141-110.083Q48.3887-108.936 48.3887-106.934L48.8281-69.6289Q48.8281-67.9199 47.8516-66.9922Q46.875-66.0645 45.3613-66.0645Q43.8477-66.0645 42.8467-66.9678Q41.8457-67.8711 41.8457-69.4824L41.2109-108.057Q41.1621-110.01 40.0879-111.084Q39.0137-112.158 37.1582-112.158Q35.2539-112.158 34.1797-111.084Q33.1055-110.01 33.1055-108.057L32.4219-69.4824Q32.4219-67.8711 31.4453-66.9678Q30.4688-66.0645 28.9062-66.0645Q27.3926-66.0645 26.4404-66.9922Q25.4883-67.9199 25.4883-69.6289L25.8789-106.934Q25.8789-108.936 24.8535-110.083Q23.8281-111.23 22.0215-111.23Q20.1172-111.23 19.0186-110.132Q17.9199-109.033 17.8223-107.031L16.1133-68.7012Q15.8691-63.2324 16.9434-59.8389Q18.0176-56.4453 20.5566-54.2725Q23.0957-52.0996 27.1973-50.293Q28.6621-49.6094 29.3457-48.4375Q30.0293-47.2656 30.0293-45.5566L28.8086 24.9023Q28.7109 28.6621 31.0059 30.7617Q33.3008 32.8613 37.1582 32.8613ZM85.498-20.8008L84.0332 24.3164Q83.8867 28.5156 86.2305 30.6885Q88.5742 32.8613 92.3828 32.8613Q96.2891 32.8613 98.584 30.8594Q100.879 28.8574 100.879 25.1465L100.879-107.617Q100.879-109.961 99.585-111.06Q98.291-112.158 96.6309-112.158Q94.9219-112.158 93.6279-111.182Q92.334-110.205 90.918-108.154Q87.1094-102.832 84.0576-95.5078Q81.0059-88.1836 78.8086-79.5166Q76.6113-70.8496 75.4395-61.377Q74.2676-51.9043 74.2676-42.334L74.2676-38.8672Q74.2676-35.4492 75.4395-33.1055Q76.6113-30.7617 78.9551-29.1504L82.4219-26.7578Q84.082-25.5859 84.8389-24.1455Q85.5957-22.7051 85.498-20.8008Z"/>
  </g>
  <g id="Light-L" transform="matrix(1 0 0 1 1095.86 1556)">
   <path d="M36.4258 32.4219Q40.0879 32.4219 42.3828 30.3711Q44.6777 28.3203 44.6289 24.6582L43.4082-45.3613Q43.3594-47.1191 43.9941-48.2422Q44.6289-49.3652 46.0938-50.0488Q50.1953-51.8555 52.5879-54.0283Q54.9805-56.2012 55.957-59.5947Q56.9336-62.9883 56.7383-68.3594L55.0781-106.201Q54.9805-108.057 53.9062-109.106Q52.832-110.156 51.0742-110.156Q49.2676-110.156 48.2666-109.058Q47.2656-107.959 47.2656-106.055L47.6562-69.2871Q47.6562-67.5293 46.7285-66.626Q45.8008-65.7227 44.3359-65.7227Q42.8711-65.7227 41.9189-66.6016Q40.9668-67.4805 40.9668-69.0918L40.332-107.178Q40.2832-109.033 39.2578-110.059Q38.2324-111.084 36.4258-111.084Q34.6191-111.084 33.5938-110.059Q32.5684-109.033 32.5684-107.178L31.8848-69.0918Q31.8848-67.4805 30.9326-66.6016Q29.9805-65.7227 28.5156-65.7227Q27.0508-65.7227 26.123-66.626Q25.1953-67.5293 25.1953-69.2871L25.5371-106.055Q25.5371-107.959 24.5605-109.058Q23.584-110.156 21.8262-110.156Q20.0195-110.156 18.9453-109.106Q17.8711-108.057 17.8223-106.201L16.1133-68.3594Q15.8691-62.9883 16.8701-59.5947Q17.8711-56.2012 20.2881-54.0283Q22.7051-51.8555 26.7578-50.0488Q28.2227-49.3652 28.8574-48.2422Q29.4922-47.1191 29.4922-45.3613L28.2227 24.6582Q28.1738 28.3203 30.4688 30.3711Q32.7637 32.4219 36.4258 32.4219ZM83.4961-19.4336L81.8848 23.7305Q81.6895 28.125 84.0576 30.2734Q86.4258 32.4219 90.0879 32.4219Q93.8477 32.4219 96.1426 30.4443Q98.4375 28.4668 98.4375 24.8047L98.4375-106.836Q98.4375-108.984 97.29-110.034Q96.1426-111.084 94.5312-111.084Q92.8711-111.084 91.6748-110.156Q90.4785-109.229 89.209-107.422Q85.4004-102.1 82.3975-94.8975Q79.3945-87.6953 77.2461-79.1504Q75.0977-70.6055 73.9502-61.1572Q72.8027-51.709 72.8027-41.9434L72.8027-37.9395Q72.8027-34.375 73.9258-32.0801Q75.0488-29.7852 77.3926-28.125L80.4688-25.9766Q82.1289-24.8047 82.8613-23.2178Q83.5938-21.6309 83.4961-19.4336Z"/>
  </g>
  <g id="Thin-L" transform="matrix(1 0 0 1 800.734 1556)">
   <path d="M35.4492 31.8848Q38.9648 31.8848 41.2598 29.9072Q43.5547 27.9297 43.5059 24.3164L42.2363-45.0684Q42.1875-46.9238 42.749-47.9736Q43.3105-49.0234 44.8242-49.707Q48.7793-51.5137 51.0498-53.7109Q53.3203-55.9082 54.1748-59.2773Q55.0293-62.6465 54.7852-67.8711L53.1738-105.078Q53.125-106.787 52.124-107.764Q51.123-108.74 49.4141-108.74Q47.7051-108.74 46.7529-107.739Q45.8008-106.738 45.8008-104.883L46.1426-68.7988Q46.1426-66.9922 45.2393-66.1377Q44.3359-65.2832 42.9688-65.2832Q41.6504-65.2832 40.7227-66.1133Q39.7949-66.9434 39.7949-68.6035L39.1602-106.006Q39.1602-107.764 38.1836-108.74Q37.207-109.717 35.4492-109.717Q33.7402-109.717 32.7637-108.74Q31.7871-107.764 31.7871-106.006L31.1523-68.6035Q31.1523-66.9434 30.249-66.1133Q29.3457-65.2832 27.9785-65.2832Q26.6113-65.2832 25.7324-66.1377Q24.8535-66.9922 24.8535-68.7988L25.0977-104.883Q25.0977-106.738 24.1699-107.739Q23.2422-108.74 21.5332-108.74Q19.8242-108.74 18.8477-107.764Q17.8711-106.787 17.7734-105.078L16.1621-67.8711Q15.918-62.6465 16.7725-59.2773Q17.627-55.9082 19.8975-53.7109Q22.168-51.5137 26.123-49.707Q27.6367-49.0234 28.2227-47.9736Q28.8086-46.9238 28.7109-45.0684L27.4902 24.3164Q27.3926 27.9297 29.6875 29.9072Q31.9824 31.8848 35.4492 31.8848ZM80.8594-17.627L79.0527 22.998Q78.8086 27.5879 81.2012 29.7363Q83.5938 31.8848 87.0605 31.8848Q90.625 31.8848 92.9443 29.9072Q95.2637 27.9297 95.2637 24.3164L95.2637-105.811Q95.2637-107.764 94.2627-108.74Q93.2617-109.717 91.748-109.717Q90.1855-109.717 89.0869-108.862Q87.9883-108.008 86.9141-106.445Q83.1543-101.172 80.1758-94.1406Q77.1973-87.1094 75.1221-78.6865Q73.0469-70.2637 71.9482-60.8398Q70.8496-51.416 70.8496-41.4062L70.8496-36.7188Q70.8496-32.959 71.9238-30.7129Q72.998-28.4668 75.3418-26.8066L77.9297-24.9512Q79.5898-23.7305 80.2734-21.9727Q80.957-20.2148 80.8594-17.627Z"/>
  </g>
  <g id="Ultralight-L" transform="matrix(1 0 0 1 504.853 1556)">
   <path d="M34.9609 31.5918Q38.3789 31.5918 40.6738 29.6387Q42.9688 27.6855 42.9199 24.1699L41.6016-44.9219Q41.5527-46.8262 42.1143-47.8271Q42.6758-48.8281 44.1406-49.5117Q48.0957-51.3184 50.2686-53.54Q52.4414-55.7617 53.2471-59.1064Q54.0527-62.4512 53.8086-67.6758L52.2461-104.492Q52.1973-106.104 51.2207-107.056Q50.2441-108.008 48.584-108.008Q46.875-108.008 45.9717-107.031Q45.0684-106.055 45.0684-104.297L45.3613-68.5547Q45.3613-66.6992 44.4824-65.8936Q43.6035-65.0879 42.2852-65.0879Q40.9668-65.0879 40.0879-65.8691Q39.209-66.6504 39.209-68.3594L38.5254-105.42Q38.5742-107.08 37.6221-108.032Q36.6699-108.984 34.9609-108.984Q33.3008-108.984 32.373-108.032Q31.4453-107.08 31.4453-105.42L30.8105-68.3594Q30.8105-66.6504 29.9072-65.8691Q29.0039-65.0879 27.6855-65.0879Q26.416-65.0879 25.5371-65.8936Q24.6582-66.6992 24.6582-68.5547L24.9023-104.297Q24.9023-106.055 23.9746-107.031Q23.0469-108.008 21.3867-108.008Q19.7754-108.008 18.7988-107.056Q17.8223-106.104 17.7734-104.492L16.1621-67.6758Q15.918-62.4512 16.7236-59.1064Q17.5293-55.7617 19.7266-53.54Q21.9238-51.3184 25.8301-49.5117Q27.3438-48.8281 27.8809-47.8271Q28.418-46.8262 28.3691-44.9219L27.0996 24.1699Q27.0508 27.6855 29.3457 29.6387Q31.6406 31.5918 34.9609 31.5918ZM79.4922-16.6992L77.5879 22.6074Q77.3438 27.2949 79.7363 29.4434Q82.1289 31.5918 85.5469 31.5918Q88.9648 31.5918 91.2842 29.6143Q93.6035 27.6367 93.6035 24.0723L93.6035-105.322Q93.6035-107.08 92.7002-108.032Q91.7969-108.984 90.332-108.984Q88.8184-108.984 87.793-108.154Q86.7676-107.324 85.791-105.957Q82.0312-100.684 79.0771-93.7256Q76.123-86.7676 74.0723-78.418Q72.0215-70.0684 70.9473-60.6689Q69.873-51.2695 69.873-41.1621L69.873-36.084Q69.873-32.2266 70.9229-30.0293Q71.9727-27.832 74.3164-26.123L76.6113-24.4141Q78.2715-23.1934 78.9307-21.3379Q79.5898-19.4824 79.4922-16.6992Z"/>
  </g>
  <g id="Black-M" transform="matrix(1 0 0 1 2881.84 1126)">
   <path d="M32.959 23.291Q36.8652 23.291 39.1113 21.167Q41.3574 19.043 41.3086 15.4297L40.2344-42.1387Q40.1855-44.4824 40.6738-45.3857Q41.1621-46.2891 42.7246-47.0215Q46.5332-48.8281 48.999-51.0254Q51.4648-53.2227 52.5635-56.6895Q53.6621-60.1562 53.3691-65.7715L51.8555-95.3613Q51.5625-100.195 47.2656-100.195Q45.2148-100.195 44.0918-98.8525Q42.9688-97.5098 43.0176-95.2148L43.4082-66.748Q43.457-65.1855 42.7246-64.3555Q41.9922-63.5254 40.7715-63.5254Q39.4531-63.5254 38.7451-64.3311Q38.0371-65.1367 37.9883-66.6504L37.4023-96.3379Q37.3535-98.4863 36.1816-99.8047Q35.0098-101.123 32.959-101.123Q30.957-101.123 29.7607-99.8047Q28.5645-98.4863 28.5156-96.3379L27.9785-66.6504Q27.9297-65.1855 27.1973-64.3555Q26.4648-63.5254 25.1465-63.5254Q22.3633-63.5254 22.4609-66.748L22.9492-95.2148Q22.998-97.5098 21.875-98.8525Q20.752-100.195 18.7012-100.195Q16.6504-100.195 15.4297-98.877Q14.209-97.5586 14.0625-95.3613L12.5-65.7715Q12.207-60.1562 13.3301-56.6895Q14.4531-53.2227 16.9189-51.0254Q19.3848-48.8281 23.2422-47.0215Q24.7559-46.2891 25.2441-45.3857Q25.7324-44.4824 25.6836-42.1387L24.6094 15.4297Q24.5117 19.0918 26.8066 21.1914Q29.1016 23.291 32.959 23.291ZM74.6094-22.7539L73.9746 15.4297Q73.9258 19.0918 76.1963 21.1914Q78.4668 23.291 82.3242 23.291Q86.2793 23.291 88.4766 21.167Q90.6738 19.043 90.6738 15.4785L90.6738-96.6797Q90.6738-98.6328 89.5264-99.8779Q88.3789-101.123 86.4258-101.123Q84.8145-101.123 83.5938-100.244Q82.373-99.3652 81.0547-97.5098Q77.8809-93.1641 75.1221-86.5479Q72.3633-79.9316 70.2637-72.168Q68.1641-64.4043 66.9922-56.3721Q65.8203-48.3398 65.8203-41.1133L65.8203-37.5488Q65.8203-34.4727 66.8457-32.4951Q67.8711-30.5176 70.8008-28.5156L72.1191-27.6367Q73.584-26.6602 74.1211-25.6592Q74.6582-24.6582 74.6094-22.7539Z"/>
  </g>
  <g id="Heavy-M" transform="matrix(1 0 0 1 2586.44 1126)">
   <path d="M32.0801 21.9727Q35.791 21.9727 37.915 19.9707Q40.0391 17.9688 39.9902 14.502L38.9648-42.4316Q38.916-44.5312 39.4287-45.4346Q39.9414-46.3379 41.4062-47.0215Q45.0684-48.7305 47.4365-50.8057Q49.8047-52.8809 50.8301-56.1523Q51.8555-59.4238 51.6113-64.7461L50.1465-94.4336Q49.9023-98.9258 45.8496-98.9258Q43.9453-98.9258 42.8955-97.6807Q41.8457-96.4355 41.8457-94.2871L42.2363-65.6738Q42.2852-64.1602 41.5527-63.3545Q40.8203-62.5488 39.5996-62.5488Q38.2812-62.5488 37.5488-63.3301Q36.8164-64.1113 36.8164-65.5273L36.2305-95.3613Q36.1816-97.3633 35.083-98.584Q33.9844-99.8047 32.0801-99.8047Q30.1758-99.8047 29.0527-98.584Q27.9297-97.3633 27.9297-95.3613L27.3926-65.5273Q27.3438-64.1602 26.5869-63.3545Q25.8301-62.5488 24.5605-62.5488Q21.7773-62.5488 21.875-65.6738L22.3145-94.2871Q22.3633-96.4355 21.3135-97.6807Q20.2637-98.9258 18.3594-98.9258Q16.4062-98.9258 15.2832-97.7051Q14.1602-96.4844 14.0137-94.4336L12.5-64.7461Q12.207-59.4238 13.2812-56.1523Q14.3555-52.8809 16.7236-50.8057Q19.0918-48.7305 22.8027-47.0215Q24.2188-46.3379 24.7314-45.4346Q25.2441-44.5312 25.1953-42.4316L24.1699 14.502Q24.0723 18.0176 26.2451 19.9951Q28.418 21.9727 32.0801 21.9727ZM72.9004-23.2422L72.168 14.4531Q72.1191 17.9688 74.2676 19.9707Q76.416 21.9727 80.0781 21.9727Q83.8379 21.9727 85.9375 19.9951Q88.0371 18.0176 88.0371 14.5996L88.0371-95.5078Q88.0371-97.4609 86.9141-98.6328Q85.791-99.8047 83.9844-99.8047Q82.4219-99.8047 81.25-98.9502Q80.0781-98.0957 78.7598-96.2402Q75.6836-91.9434 72.998-85.5469Q70.3125-79.1504 68.3105-71.6064Q66.3086-64.0625 65.1855-56.2012Q64.0625-48.3398 64.0625-41.0645L64.0625-37.793Q64.0625-34.8633 65.0635-32.9102Q66.0645-30.957 68.75-29.1504L70.4102-27.9785Q71.8262-27.0508 72.3877-26.0254Q72.9492-25 72.9004-23.2422Z"/>
  </g>
  <g id="Bold-M" transform="matrix(1 0 0 1 2291.2 1126)">
   <path d="M31.1035 20.5566Q34.5703 20.5566 36.5723 18.6523Q38.5742 16.748 38.5742 13.4766L37.5488-42.7734Q37.5-44.5801 38.0371-45.5078Q38.5742-46.4355 39.8926-47.0215Q43.4082-48.6328 45.6543-50.5859Q47.9004-52.5391 48.9014-55.5908Q49.9023-58.6426 49.6582-63.5742L48.2422-93.3594Q47.998-97.4609 44.2383-97.4609Q42.5293-97.4609 41.5527-96.3379Q40.5762-95.2148 40.5762-93.2617L40.9668-64.4531Q40.9668-62.9883 40.2344-62.207Q39.502-61.4258 38.2812-61.4258Q37.0117-61.4258 36.2549-62.1826Q35.498-62.9395 35.498-64.3066L34.9609-94.2383Q34.9121-96.0938 33.8867-97.1924Q32.8613-98.291 31.1035-98.291Q29.3457-98.291 28.3203-97.1924Q27.2949-96.0938 27.2461-94.2383L26.7578-64.3066Q26.709-62.9883 25.9521-62.207Q25.1953-61.4258 23.9258-61.4258Q21.1426-61.4258 21.1914-64.4531L21.6309-93.2617Q21.6309-95.2148 20.6787-96.3379Q19.7266-97.4609 17.9688-97.4609Q16.1621-97.4609 15.1123-96.3623Q14.0625-95.2637 13.9648-93.3594L12.5-63.5742Q12.2559-58.6426 13.2568-55.5908Q14.2578-52.5391 16.5039-50.5859Q18.75-48.6328 22.3145-47.0215Q23.6328-46.4355 24.1455-45.5078Q24.6582-44.5801 24.6582-42.7734L23.6328 13.4766Q23.584 16.7969 25.6104 18.6768Q27.6367 20.5566 31.1035 20.5566ZM71.0449-23.7793L70.166 13.3301Q70.1172 16.748 72.1436 18.6523Q74.1699 20.5566 77.6367 20.5566Q81.1523 20.5566 83.1543 18.7256Q85.1562 16.8945 85.1562 13.623L85.1562-94.2383Q85.1562-96.1426 84.0332-97.2168Q82.9102-98.291 81.25-98.291Q79.7852-98.291 78.6621-97.4609Q77.5391-96.6309 76.2695-94.873Q73.1934-90.625 70.6299-84.4482Q68.0664-78.2715 66.1377-70.9717Q64.209-63.6719 63.1592-56.0059Q62.1094-48.3398 62.1094-41.0645L62.1094-38.0859Q62.1094-35.2539 63.0859-33.3496Q64.0625-31.4453 66.4551-29.834L68.5547-28.418Q69.9219-27.4414 70.5078-26.416Q71.0938-25.3906 71.0449-23.7793Z"/>
  </g>
  <g id="Semibold-M" transform="matrix(1 0 0 1 1995.49 1126)">
   <path d="M30.3711 19.5312Q33.7402 19.5312 35.6445 17.7246Q37.5488 15.918 37.5488 12.7441L36.5234-42.9688Q36.5234-44.5801 37.0605-45.5078Q37.5977-46.4355 38.8672-47.0215Q42.2852-48.584 44.4336-50.415Q46.582-52.2461 47.5342-55.1514Q48.4863-58.0566 48.291-62.793L46.875-92.627Q46.6797-96.4844 43.1152-96.4844Q41.5039-96.4844 40.5762-95.4346Q39.6484-94.3848 39.6973-92.5293L40.0391-63.5742Q40.0391-62.207 39.3066-61.4258Q38.5742-60.6445 37.3535-60.6445Q36.084-60.6445 35.3271-61.4014Q34.5703-62.1582 34.5703-63.4766L34.0332-93.457Q33.9844-95.2148 33.0322-96.2402Q32.0801-97.2656 30.3711-97.2656Q28.7598-97.2656 27.7832-96.2402Q26.8066-95.2148 26.8066-93.457L26.2695-63.4766Q26.2695-62.1582 25.4883-61.4014Q24.707-60.6445 23.4375-60.6445Q20.7031-60.6445 20.752-63.5742L21.0938-92.5293Q21.1426-94.3848 20.2393-95.4346Q19.3359-96.4844 17.6758-96.4844Q15.9668-96.4844 14.9902-95.459Q14.0137-94.4336 13.916-92.627L12.5-62.793Q12.2559-58.0566 13.2324-55.1514Q14.209-52.2461 16.3574-50.415Q18.5059-48.584 21.9238-47.0215Q23.2422-46.4355 23.7549-45.5078Q24.2676-44.5801 24.2676-42.9688L23.291 12.7441Q23.1934 15.918 25.1221 17.7246Q27.0508 19.5312 30.3711 19.5312ZM69.6777-24.1699L68.75 12.5488Q68.7012 15.918 70.6543 17.7246Q72.6074 19.5312 75.8789 19.5312Q79.248 19.5312 81.1768 17.7979Q83.1055 16.0645 83.1055 12.9395L83.1055-93.3594Q83.1055-95.2148 82.0068-96.2402Q80.9082-97.2656 79.3457-97.2656Q77.8809-97.2656 76.8066-96.46Q75.7324-95.6543 74.4629-93.8965Q71.4844-89.6484 68.9697-83.6426Q66.4551-77.6367 64.5996-70.5322Q62.7441-63.4277 61.7432-55.8594Q60.7422-48.291 60.7422-41.0156L60.7422-38.2324Q60.7422-35.5469 61.6943-33.6426Q62.6465-31.7383 64.8438-30.2734L67.2363-28.6621Q68.5547-27.7344 69.1406-26.6846Q69.7266-25.6348 69.6777-24.1699Z"/>
  </g>
  <g id="Medium-M" transform="matrix(1 0 0 1 1699.56 1126)">
   <path d="M29.8828 18.75Q33.1055 18.75 34.9609 17.0166Q36.8164 15.2832 36.7676 12.207L35.791-43.1641Q35.791-44.5801 36.3281-45.5322Q36.8652-46.4844 38.0859-47.0215Q41.4062-48.4863 43.5059-50.2686Q45.6055-52.0508 46.5332-54.834Q47.4609-57.6172 47.2656-62.1582L45.8984-92.0898Q45.7031-95.7031 42.2852-95.7031Q40.7715-95.7031 39.8926-94.7266Q39.0137-93.75 39.0137-91.9922L39.3555-62.9395Q39.3555-61.5723 38.623-60.8154Q37.8906-60.0586 36.6699-60.0586Q35.4004-60.0586 34.6436-60.791Q33.8867-61.5234 33.8867-62.793L33.3496-92.8711Q33.3008-94.5801 32.3975-95.5322Q31.4941-96.4844 29.8828-96.4844Q28.3203-96.4844 27.3926-95.5322Q26.4648-94.5801 26.416-92.8711L25.9277-62.793Q25.9277-61.5234 25.1465-60.791Q24.3652-60.0586 23.0957-60.0586Q20.3613-60.0586 20.3613-62.9395L20.752-91.9922Q20.752-93.75 19.8975-94.7266Q19.043-95.7031 17.4805-95.7031Q15.8691-95.7031 14.917-94.751Q13.9648-93.7988 13.8672-92.0898L12.5-62.1582Q12.3047-57.6172 13.208-54.834Q14.1113-52.0508 16.2354-50.2686Q18.3594-48.4863 21.6797-47.0215Q22.9004-46.4844 23.4375-45.5322Q23.9746-44.5801 23.9746-43.1641L22.998 12.207Q22.9492 15.2832 24.8047 17.0166Q26.6602 18.75 29.8828 18.75ZM68.7012-24.4141L67.7246 11.9629Q67.627 15.2344 69.5068 16.9922Q71.3867 18.75 74.5605 18.75Q77.832 18.75 79.6875 17.1143Q81.543 15.4785 81.543 12.4512L81.543-92.6758Q81.543-94.5312 80.4688-95.5078Q79.3945-96.4844 77.9297-96.4844Q76.5137-96.4844 75.4395-95.6787Q74.3652-94.873 73.1445-93.1641Q70.166-88.9648 67.7002-83.0566Q65.2344-77.1484 63.4521-70.166Q61.6699-63.1836 60.6934-55.7373Q59.7168-48.291 59.7168-41.0156L59.7168-38.3789Q59.7168-35.7422 60.6689-33.8623Q61.6211-31.9824 63.623-30.6152L66.2598-28.8574Q67.5781-27.9297 68.1641-26.9043Q68.75-25.8789 68.7012-24.4141Z"/>
  </g>
  <g id="Regular-M" transform="matrix(1 0 0 1 1403.85 1126)">
   <path d="M29.1992 17.7734Q32.2754 17.7734 34.0332 16.1133Q35.791 14.4531 35.791 11.4746L34.8145-43.3594Q34.8145-44.6289 35.376-45.5811Q35.9375-46.5332 37.0605-47.0215Q40.2832-48.4375 42.3096-50.1221Q44.3359-51.8066 45.2148-54.4434Q46.0938-57.0801 45.9473-61.377L44.5801-91.3574Q44.4336-94.7266 41.2109-94.7266Q39.7949-94.7266 38.9648-93.8232Q38.1348-92.9199 38.1348-91.2598L38.4766-62.1094Q38.4766-60.791 37.7197-60.0586Q36.9629-59.3262 35.791-59.3262Q34.5215-59.3262 33.7402-60.0342Q32.959-60.7422 32.959-61.9629L32.4707-92.1387Q32.4219-93.7012 31.5674-94.5801Q30.7129-95.459 29.1992-95.459Q27.7344-95.459 26.8555-94.5801Q25.9766-93.7012 25.9766-92.1387L25.4883-61.9629Q25.4883-60.7422 24.6826-60.0342Q23.877-59.3262 22.6562-59.3262Q19.9219-59.3262 19.9219-62.1094L20.2637-91.2598Q20.2637-92.9199 19.458-93.8232Q18.6523-94.7266 17.1875-94.7266Q15.6738-94.7266 14.7949-93.8477Q13.916-92.9688 13.8184-91.3574L12.5-61.377Q12.3047-57.0801 13.1836-54.4434Q14.0625-51.8066 16.0889-50.1221Q18.1152-48.4375 21.3379-47.0215Q22.5098-46.5332 23.0469-45.5811Q23.584-44.6289 23.584-43.3594L22.6562 11.4746Q22.6074 14.4531 24.3652 16.1133Q26.123 17.7734 29.1992 17.7734ZM67.4316-24.8047L66.3574 11.2305Q66.2598 14.4043 68.0664 16.0889Q69.873 17.7734 72.9004 17.7734Q75.9766 17.7734 77.7832 16.2354Q79.5898 14.6973 79.5898 11.7676L79.5898-91.7969Q79.5898-93.6523 78.5156-94.5557Q77.4414-95.459 76.0742-95.459Q74.707-95.459 73.6816-94.6777Q72.6562-93.8965 71.4355-92.1875Q68.5059-88.0371 66.1133-82.2998Q63.7207-76.5625 61.9873-69.751Q60.2539-62.9395 59.3262-55.6152Q58.3984-48.291 58.3984-40.9668L58.3984-38.5742Q58.3984-36.0352 59.3262-34.1797Q60.2539-32.3242 62.0605-31.1035L64.9902-29.1504Q66.2598-28.2227 66.8701-27.1729Q67.4805-26.123 67.4316-24.8047Z"/>
  </g>
  <g id="Light-M" transform="matrix(1 0 0 1 1108.21 1126)">
   <path d="M28.5645 17.3828Q31.4941 17.3828 33.252 15.7715Q35.0098 14.1602 35.0098 11.2793L34.0332-43.1641Q33.9844-44.4824 34.4971-45.3857Q35.0098-46.2891 36.1816-46.7773Q39.3066-48.1934 41.2354-49.9023Q43.1641-51.6113 43.9697-54.2236Q44.7754-56.8359 44.6289-61.0352L43.3105-90.625Q43.1641-93.75 40.0879-93.75Q38.7207-93.75 37.9395-92.8955Q37.1582-92.041 37.1582-90.4785L37.4512-61.7676Q37.4512-60.4492 36.7188-59.7412Q35.9863-59.0332 34.8145-59.0332Q33.6426-59.0332 32.8857-59.7168Q32.1289-60.4004 32.1289-61.6211L31.6406-91.3574Q31.6406-92.8223 30.8105-93.6523Q29.9805-94.4824 28.5645-94.4824Q27.1484-94.4824 26.2939-93.6523Q25.4395-92.8223 25.4395-91.3574L24.9512-61.6211Q24.9512-60.4004 24.1943-59.7168Q23.4375-59.0332 22.2656-59.0332Q19.6777-59.0332 19.6777-61.7676L19.9707-90.4785Q19.9707-92.041 19.1895-92.8955Q18.4082-93.75 16.9922-93.75Q15.5762-93.75 14.7217-92.9199Q13.8672-92.0898 13.7695-90.625L12.5-61.0352Q12.3047-56.8359 13.1104-54.2236Q13.916-51.6113 15.8447-49.9023Q17.7734-48.1934 20.8984-46.7773Q22.0703-46.2891 22.583-45.3857Q23.0957-44.4824 23.0957-43.1641L22.1191 11.2793Q22.0703 14.1602 23.8281 15.7715Q25.5859 17.3828 28.5645 17.3828ZM65.625-23.584L64.4531 10.6934Q64.3066 14.0625 66.1377 15.7227Q67.9688 17.3828 70.8496 17.3828Q73.7793 17.3828 75.5859 15.8447Q77.3926 14.3066 77.3926 11.4258L77.3926-91.1133Q77.3926-92.8223 76.4404-93.6523Q75.4883-94.4824 74.2188-94.4824Q72.8516-94.4824 71.9238-93.75Q70.9961-93.0176 69.9219-91.5039Q66.9922-87.4023 64.624-81.7627Q62.2559-76.123 60.5713-69.4336Q58.8867-62.7441 57.9834-55.4199Q57.0801-48.0957 57.0801-40.625L57.0801-37.7441Q57.0801-35.0586 57.9834-33.252Q58.8867-31.4453 60.6934-30.1758L63.2324-28.418Q64.502-27.4902 65.0879-26.3184Q65.6738-25.1465 65.625-23.584Z"/>
  </g>
  <g id="Thin-M" transform="matrix(1 0 0 1 812.941 1126)">
   <path d="M27.6855 16.8945Q30.4199 16.8945 32.2021 15.332Q33.9844 13.7695 33.9355 10.9863L32.959-42.9199Q32.9102-44.3359 33.374-45.1416Q33.8379-45.9473 35.0098-46.4844Q38.0859-47.9004 39.8682-49.6094Q41.6504-51.3184 42.334-53.9062Q43.0176-56.4941 42.8711-60.6445L41.6016-89.5996Q41.5039-92.5293 38.623-92.5293Q37.3047-92.5293 36.5479-91.7236Q35.791-90.918 35.791-89.4531L36.084-61.3281Q36.084-59.9609 35.3516-59.3018Q34.6191-58.6426 33.5938-58.6426Q32.5195-58.6426 31.7871-59.2773Q31.0547-59.9121 31.0547-61.1816L30.5664-90.332Q30.5664-91.6992 29.7852-92.4805Q29.0039-93.2617 27.6855-93.2617Q26.3184-93.2617 25.5615-92.4805Q24.8047-91.6992 24.8047-90.332L24.3164-61.1816Q24.3164-59.9121 23.5596-59.2773Q22.8027-58.6426 21.7773-58.6426Q19.3359-58.6426 19.3359-61.3281L19.5801-89.4531Q19.5801-90.918 18.8232-91.7236Q18.0664-92.5293 16.748-92.5293Q15.3809-92.5293 14.5996-91.748Q13.8184-90.9668 13.7695-89.5996L12.5-60.6445Q12.3047-56.4941 13.0127-53.9062Q13.7207-51.3184 15.5029-49.6094Q17.2852-47.9004 20.3613-46.4844Q21.5332-45.9473 21.9971-45.1416Q22.4609-44.3359 22.4121-42.9199L21.4355 10.9863Q21.3867 13.7695 23.1689 15.332Q24.9512 16.8945 27.6855 16.8945ZM63.2324-21.9727L61.8652 10.0586Q61.7188 13.5742 63.5498 15.2344Q65.3809 16.8945 68.1152 16.8945Q70.8984 16.8945 72.7051 15.3564Q74.5117 13.8184 74.5117 10.9863L74.5117-90.1855Q74.5117-91.6992 73.7061-92.4805Q72.9004-93.2617 71.6797-93.2617Q70.459-93.2617 69.6045-92.5781Q68.75-91.8945 67.8711-90.625Q64.9414-86.5723 62.6221-81.0791Q60.3027-75.5859 58.667-69.0186Q57.0312-62.4512 56.1768-55.1514Q55.3223-47.8516 55.3223-40.1367L55.3223-36.6211Q55.3223-33.7891 56.1768-32.0312Q57.0312-30.2734 58.8379-28.9551L60.9375-27.4902Q62.207-26.5137 62.7686-25.2197Q63.3301-23.9258 63.2324-21.9727Z"/>
  </g>
  <g id="Ultralight-M" transform="matrix(1 0 0 1 516.962 1126)">
   <path d="M27.2461 16.6504Q29.8828 16.6504 31.665 15.1123Q33.4473 13.5742 33.3984 10.8398L32.4219-42.8223Q32.373-44.2383 32.7881-45.0195Q33.2031-45.8008 34.375-46.3379Q37.4023-47.7539 39.1357-49.4629Q40.8691-51.1719 41.5039-53.7598Q42.1387-56.3477 41.9434-60.4004L40.7227-89.1113Q40.625-91.8457 37.8418-91.8457Q36.5723-91.8457 35.8643-91.0889Q35.1562-90.332 35.1562-88.9648L35.4004-61.1328Q35.4004-59.7168 34.6924-59.0576Q33.9844-58.3984 32.9102-58.3984Q31.9336-58.3984 31.2256-59.0332Q30.5176-59.668 30.5176-60.9863L30.0293-89.8438Q30.0293-91.1133 29.2725-91.8457Q28.5156-92.5781 27.2461-92.5781Q25.9277-92.5781 25.1709-91.8457Q24.4141-91.1133 24.4141-89.8438L23.9258-60.9863Q23.9258-59.668 23.2178-59.0332Q22.5098-58.3984 21.5332-58.3984Q19.1406-58.3984 19.1406-61.1328L19.3359-88.9648Q19.3359-90.332 18.6279-91.0889Q17.9199-91.8457 16.6016-91.8457Q15.332-91.8457 14.5508-91.1133Q13.7695-90.3809 13.7207-89.1113L12.5-60.4004Q12.3047-56.3477 12.9639-53.7598Q13.623-51.1719 15.332-49.4629Q17.041-47.7539 20.0684-46.3379Q21.2402-45.8008 21.6797-45.0195Q22.1191-44.2383 22.0703-42.8223L21.0449 10.8398Q20.9961 13.5742 22.7783 15.1123Q24.5605 16.6504 27.2461 16.6504ZM62.0117-21.1914L60.5957 9.66797Q60.4004 13.3301 62.2559 14.9902Q64.1113 16.6504 66.748 16.6504Q69.4336 16.6504 71.2402 15.1123Q73.0469 13.5742 73.0469 10.791L73.0469-89.6973Q73.0469-91.1621 72.3145-91.8701Q71.582-92.5781 70.459-92.5781Q69.1895-92.5781 68.4082-91.9434Q67.627-91.3086 66.8457-90.1855Q63.916-86.1328 61.6211-80.7129Q59.3262-75.293 57.7148-68.7988Q56.1035-62.3047 55.2734-55.0049Q54.4434-47.7051 54.4434-39.9414L54.4434-36.084Q54.4434-33.1055 55.2734-31.3721Q56.1035-29.6387 57.9102-28.3203L59.7656-27.002Q61.0352-26.0254 61.5723-24.6338Q62.1094-23.2422 62.0117-21.1914Z"/>
  </g>
  <g id="Black-S" transform="matrix(1 0 0 1 2892.65 696)">
   <path d="M26.0742 10.9863Q29.1992 10.9863 30.9814 9.27734Q32.7637 7.56836 32.7148 4.73633L31.8848-40.5273Q31.8359-42.4805 32.2266-43.1641Q32.6172-43.8477 33.8379-44.4336Q36.8652-45.8984 38.8184-47.6562Q40.7715-49.4141 41.6504-52.1973Q42.5293-54.9805 42.2852-59.4727L41.0645-82.5684Q40.8203-86.4746 37.4023-86.4746Q35.7422-86.4746 34.8389-85.4004Q33.9355-84.3262 33.9844-82.4707L34.3262-60.2539Q34.4238-57.666 32.2754-57.666Q30.1758-57.666 30.0781-60.1562L29.6387-83.3496Q29.5898-85.0586 28.6377-86.1328Q27.6855-87.207 26.0742-87.207Q24.4629-87.207 23.5107-86.1328Q22.5586-85.0586 22.5098-83.3496L22.0703-60.1562Q21.9727-57.666 19.873-57.666Q17.7246-57.666 17.7734-60.2539L18.1641-82.4707Q18.2129-84.3262 17.3096-85.4004Q16.4062-86.4746 14.7461-86.4746Q11.2793-86.4746 11.0352-82.5684L9.81445-59.4727Q9.57031-54.9805 10.4492-52.1973Q11.3281-49.4141 13.3057-47.6562Q15.2832-45.8984 18.3105-44.4336Q19.5801-43.8477 19.9463-43.1641Q20.3125-42.4805 20.2637-40.5273L19.3848 4.73633Q19.3359 7.61719 21.167 9.30176Q22.998 10.9863 26.0742 10.9863ZM58.8867-25.2441L58.3984 4.73633Q58.3496 7.61719 60.1807 9.30176Q62.0117 10.9863 65.0879 10.9863Q68.2617 10.9863 69.9951 9.27734Q71.7285 7.56836 71.7285 4.73633L71.7285-83.6914Q71.7285-85.2539 70.8252-86.2305Q69.9219-87.207 68.3594-87.207Q67.1387-87.207 66.1621-86.5234Q65.1855-85.8398 64.1113-84.375Q61.6211-80.957 59.4482-75.7324Q57.2754-70.5078 55.5908-64.3311Q53.9062-58.1543 52.9785-51.8311Q52.0508-45.5078 52.0508-39.8438L52.0508-36.9141Q52.0508-34.4727 52.8564-32.9102Q53.6621-31.3477 56.0547-29.7363L56.9336-29.1504Q58.1055-28.3691 58.5205-27.5879Q58.9355-26.8066 58.8867-25.2441Z"/>
  </g>
  <g id="Heavy-S" transform="matrix(1 0 0 1 2596.92 696)">
   <path d="M25.3906 9.91211Q28.3691 9.91211 30.0537 8.30078Q31.7383 6.68945 31.6895 3.95508L30.9082-40.7715Q30.8594-42.5293 31.2744-43.2373Q31.6895-43.9453 32.8125-44.4824Q35.7422-45.8496 37.6221-47.5098Q39.502-49.1699 40.332-51.7822Q41.1621-54.3945 40.9668-58.6426L39.7461-81.8848Q39.5508-85.498 36.3281-85.498Q34.7656-85.498 33.9355-84.4971Q33.1055-83.4961 33.1543-81.7871L33.4473-59.375Q33.5449-56.8359 31.3965-56.8359Q29.248-56.8359 29.1504-59.2773L28.7598-82.6172Q28.7109-84.2285 27.8076-85.2051Q26.9043-86.1816 25.3906-86.1816Q23.877-86.1816 22.998-85.2051Q22.1191-84.2285 22.0703-82.6172L21.6309-59.2773Q21.582-56.8359 19.4336-56.8359Q17.2852-56.8359 17.2852-59.375L17.6758-81.7871Q17.6758-83.4961 16.8457-84.4971Q16.0156-85.498 14.4531-85.498Q11.2305-85.498 10.9863-81.8848L9.81445-58.6426Q9.57031-54.3945 10.4248-51.7822Q11.2793-49.1699 13.1836-47.5098Q15.0879-45.8496 17.9688-44.4824Q19.1895-43.9453 19.5557-43.2373Q19.9219-42.5293 19.9219-40.7715L19.043 3.95508Q18.9941 6.73828 20.7275 8.3252Q22.4609 9.91211 25.3906 9.91211ZM57.666-25.8301L57.1289 3.95508Q57.0801 6.73828 58.8135 8.3252Q60.5469 9.91211 63.4766 9.91211Q66.4551 9.91211 68.1152 8.3252Q69.7754 6.73828 69.7754 4.05273L69.7754-82.8125Q69.7754-84.375 68.8721-85.2783Q67.9688-86.1816 66.5039-86.1816Q65.332-86.1816 64.3799-85.498Q63.4277-84.8145 62.4023-83.3984Q59.9121-79.9805 57.8125-74.9268Q55.7129-69.873 54.1016-63.8916Q52.4902-57.9102 51.6113-51.709Q50.7324-45.5078 50.7324-39.8438L50.7324-37.207Q50.7324-34.9121 51.5381-33.374Q52.3438-31.8359 54.4922-30.3711L55.7129-29.541Q56.8848-28.7598 57.2998-27.9785Q57.7148-27.1973 57.666-25.8301Z"/>
  </g>
  <g id="Bold-S" transform="matrix(1 0 0 1 2301.31 696)">
   <path d="M24.6582 8.74023Q27.4414 8.74023 29.0283 7.22656Q30.6152 5.71289 30.5664 3.125L29.7852-41.1133Q29.7852-42.5781 30.2002-43.3105Q30.6152-44.043 31.6895-44.5312Q34.4727-45.8008 36.2549-47.3389Q38.0371-48.877 38.8428-51.3184Q39.6484-53.7598 39.4531-57.666L38.3301-81.1035Q38.1348-84.4238 35.1562-84.4238Q33.7402-84.4238 32.959-83.4961Q32.1777-82.5684 32.1777-81.0059L32.5195-58.3496Q32.5684-55.957 30.3711-55.957Q28.2227-55.957 28.1738-58.252L27.7344-81.7871Q27.6855-83.3008 26.8799-84.1797Q26.0742-85.0586 24.6582-85.0586Q23.2422-85.0586 22.4365-84.1797Q21.6309-83.3008 21.582-81.7871L21.1426-58.252Q21.0938-55.957 18.8965-55.957Q16.748-55.957 16.7969-58.3496L17.0898-81.0059Q17.1387-82.5684 16.3574-83.4961Q15.5762-84.4238 14.1602-84.4238Q11.1328-84.4238 10.9375-81.1035L9.81445-57.666Q9.61914-53.7598 10.4248-51.3184Q11.2305-48.877 13.0371-47.3389Q14.8438-45.8008 17.627-44.5312Q18.7012-44.043 19.1162-43.3105Q19.5312-42.5781 19.5312-41.1133L18.7012 3.125Q18.6523 5.76172 20.2637 7.25098Q21.875 8.74023 24.6582 8.74023ZM56.2988-26.4648L55.6641 3.07617Q55.6152 5.76172 57.2266 7.25098Q58.8379 8.74023 61.6211 8.74023Q64.4531 8.74023 66.0156 7.27539Q67.5781 5.81055 67.5781 3.27148L67.5781-81.7871Q67.5781-83.3496 66.6748-84.2041Q65.7715-85.0586 64.4531-85.0586Q63.2812-85.0586 62.3779-84.3994Q61.4746-83.7402 60.4004-82.2754Q58.0078-78.9551 55.9814-74.0723Q53.9551-69.1895 52.417-63.4033Q50.8789-57.6172 50.0488-51.5869Q49.2188-45.5566 49.2188-39.8926L49.2188-37.5977Q49.2188-35.4004 50-33.8867Q50.7812-32.373 52.6855-31.1035L54.3457-29.9805Q55.4688-29.248 55.9082-28.4668Q56.3477-27.6855 56.2988-26.4648Z"/>
  </g>
  <g id="Semibold-S" transform="matrix(1 0 0 1 2005.38 696)">
   <path d="M24.1211 7.91016Q26.8066 7.91016 28.3203 6.46973Q29.834 5.0293 29.7852 2.49023L29.0039-41.3086Q29.0039-42.627 29.4434-43.3594Q29.8828-44.0918 30.8594-44.5312Q33.5449-45.752 35.3027-47.2168Q37.0605-48.6816 37.8418-50.9766Q38.623-53.2715 38.4277-57.0312L37.3047-80.5176Q37.1094-83.6426 34.3262-83.6426Q32.959-83.6426 32.2266-82.7881Q31.4941-81.9336 31.543-80.4688L31.8359-57.666Q31.8359-55.3223 29.6875-55.3223Q27.4902-55.3223 27.4414-57.5684L27.0508-81.2012Q27.002-82.6172 26.2207-83.4229Q25.4395-84.2285 24.1211-84.2285Q22.8027-84.2285 22.0215-83.4229Q21.2402-82.6172 21.1914-81.2012L20.8008-57.5684Q20.752-55.3223 18.5547-55.3223Q16.4062-55.3223 16.4062-57.666L16.6992-80.4688Q16.6992-81.9336 15.9912-82.7881Q15.2832-83.6426 13.9648-83.6426Q11.084-83.6426 10.8887-80.5176L9.76562-57.0312Q9.61914-53.2715 10.4004-50.9766Q11.1816-48.6816 12.9395-47.2168Q14.6973-45.752 17.3828-44.5312Q18.3594-44.0918 18.7988-43.3594Q19.2383-42.627 19.2383-41.3086L18.457 2.49023Q18.4082 5.0293 19.9463 6.46973Q21.4844 7.91016 24.1211 7.91016ZM55.3223-26.8555L54.6875 2.49023Q54.5898 5.0293 56.1279 6.46973Q57.666 7.91016 60.3516 7.91016Q63.0371 7.91016 64.5264 6.54297Q66.0156 5.17578 66.0156 2.68555L66.0156-81.1035Q66.0156-82.666 65.1367-83.4473Q64.2578-84.2285 62.9883-84.2285Q61.8652-84.2285 60.9863-83.5938Q60.1074-82.959 59.0332-81.4941Q56.6895-78.1738 54.7119-73.4131Q52.7344-68.6523 51.2695-63.0371Q49.8047-57.4219 48.999-51.4893Q48.1934-45.5566 48.1934-39.8926L48.1934-37.793Q48.1934-35.7422 48.9746-34.2529Q49.7559-32.7637 51.4648-31.5918L53.418-30.2734Q54.4922-29.541 54.9316-28.7842Q55.3711-28.0273 55.3223-26.8555Z"/>
  </g>
  <g id="Medium-S" transform="matrix(1 0 0 1 1709.23 696)">
   <path d="M23.7305 7.32422Q26.3184 7.32422 27.7832 5.93262Q29.248 4.54102 29.1992 2.05078L28.418-41.4551Q28.418-42.627 28.8818-43.3838Q29.3457-44.1406 30.2734-44.5312Q32.9102-45.752 34.5947-47.1436Q36.2793-48.5352 37.0361-50.7324Q37.793-52.9297 37.6465-56.4941L36.5234-80.127Q36.377-83.0566 33.6914-83.0566Q32.4219-83.0566 31.7139-82.251Q31.0059-81.4453 31.0059-80.0781L31.2988-57.1289Q31.3477-54.8828 29.1504-54.8828Q26.9531-54.8828 26.9043-57.0312L26.5137-80.8105Q26.4648-82.1289 25.7324-82.8857Q25-83.6426 23.7305-83.6426Q22.4609-83.6426 21.7285-82.8857Q20.9961-82.1289 20.9473-80.8105L20.5566-57.0312Q20.5078-54.8828 18.2617-54.8828Q16.1133-54.8828 16.1133-57.1289L16.4062-80.0781Q16.4062-81.4453 15.7227-82.251Q15.0391-83.0566 13.7695-83.0566Q11.0352-83.0566 10.8887-80.127L9.76562-56.4941Q9.61914-52.9297 10.4004-50.7324Q11.1816-48.5352 12.8662-47.1436Q14.5508-45.752 17.1875-44.5312Q18.1152-44.1406 18.5791-43.3838Q19.043-42.627 19.043-41.4551L18.2617 2.05078Q18.2129 4.54102 19.6777 5.93262Q21.1426 7.32422 23.7305 7.32422ZM54.5898-27.1973L53.9062 2.00195Q53.8086 4.54102 55.3223 5.93262Q56.8359 7.32422 59.375 7.32422Q61.9629 7.32422 63.4277 6.00586Q64.8926 4.6875 64.8926 2.29492L64.8926-80.5664Q64.8926-82.1289 64.0137-82.8857Q63.1348-83.6426 61.9141-83.6426Q60.8398-83.6426 59.9609-83.0078Q59.082-82.373 58.0078-80.9082Q55.7129-77.6367 53.7598-72.9736Q51.8066-68.3105 50.3662-62.793Q48.9258-57.2754 48.1689-51.416Q47.4121-45.5566 47.4121-39.8926L47.4121-37.9883Q47.4121-35.9863 48.1689-34.4971Q48.9258-33.0078 50.5371-31.9336L52.6855-30.5176Q53.7598-29.7852 54.1992-29.0283Q54.6387-28.2715 54.5898-27.1973Z"/>
  </g>
  <g id="Regular-S" transform="matrix(1 0 0 1 1413.27 696)">
   <path d="M23.1934 6.49414Q25.6836 6.49414 27.0752 5.17578Q28.4668 3.85742 28.418 1.46484L27.6855-41.6504Q27.6855-42.6758 28.1494-43.4326Q28.6133-44.1895 29.4922-44.5801Q32.0312-45.7031 33.667-47.0215Q35.3027-48.3398 36.0352-50.415Q36.7676-52.4902 36.6211-55.8594L35.5469-79.5898Q35.4004-82.3242 32.8613-82.3242Q31.6895-82.3242 31.0303-81.5674Q30.3711-80.8105 30.3711-79.541L30.6641-56.4453Q30.6641-54.248 28.4668-54.248Q26.2207-54.248 26.2207-56.3477L25.8301-80.2246Q25.7812-81.4941 25.0977-82.1777Q24.4141-82.8613 23.1934-82.8613Q22.0215-82.8613 21.3379-82.1777Q20.6543-81.4941 20.6055-80.2246L20.2148-56.3477Q20.2148-54.248 17.9199-54.248Q15.7715-54.248 15.7715-56.4453L16.0156-79.541Q16.0156-80.8105 15.3809-81.5674Q14.7461-82.3242 13.5742-82.3242Q10.9863-82.3242 10.8398-79.5898L9.76562-55.8594Q9.61914-52.4902 10.376-50.415Q11.1328-48.3398 12.7686-47.0215Q14.4043-45.7031 16.9434-44.5801Q17.8223-44.1895 18.2861-43.4326Q18.75-42.6758 18.75-41.6504L18.0176 1.46484Q17.9688 3.85742 19.3604 5.17578Q20.752 6.49414 23.1934 6.49414ZM53.6621-27.6367L52.9297 1.41602Q52.832 3.85742 54.248 5.17578Q55.6641 6.49414 58.1055 6.49414Q60.5957 6.49414 61.9873 5.27344Q63.3789 4.05273 63.3789 1.75781L63.3789-79.8828Q63.3789-81.4453 62.5-82.1533Q61.6211-82.8613 60.498-82.8613Q59.4238-82.8613 58.5693-82.2266Q57.7148-81.5918 56.6895-80.1758Q54.3945-76.9043 52.4902-72.3633Q50.5859-67.8223 49.2188-62.4512Q47.8516-57.0801 47.1191-51.3184Q46.3867-45.5566 46.3867-39.8926L46.3867-38.2324Q46.3867-36.3281 47.1436-34.8633Q47.9004-33.3984 49.3164-32.4219L51.7578-30.8105Q52.7832-30.0781 53.2471-29.3213Q53.7109-28.5645 53.6621-27.6367Z"/>
  </g>
  <g id="Light-S" transform="matrix(1 0 0 1 1117.51 696)">
   <path d="M22.6074 6.15234Q24.9512 6.15234 26.3428 4.88281Q27.7344 3.61328 27.7344 1.26953L26.9531-41.5039Q26.9531-42.5781 27.3926-43.2861Q27.832-43.9941 28.7109-44.3848Q31.2012-45.5078 32.7393-46.8262Q34.2773-48.1445 34.9365-50.2197Q35.5957-52.2949 35.4492-55.5664L34.4238-78.9062Q34.2773-81.4941 31.8848-81.4941Q30.7129-81.4941 30.1025-80.7861Q29.4922-80.0781 29.4922-78.8574L29.7363-56.1523Q29.7363-54.0039 27.6367-54.0039Q25.4883-54.0039 25.4883-56.0547L25.0977-79.541Q25.0977-80.7129 24.4385-81.3721Q23.7793-82.0312 22.6074-82.0312Q21.4844-82.0312 20.8252-81.3721Q20.166-80.7129 20.166-79.541L19.7754-56.0547Q19.7754-54.0039 17.5781-54.0039Q15.5273-54.0039 15.5273-56.1523L15.7227-78.8574Q15.7227-80.0781 15.1123-80.7861Q14.502-81.4941 13.3789-81.4941Q10.9375-81.4941 10.8398-78.9062L9.76562-55.5664Q9.61914-52.2949 10.3027-50.2197Q10.9863-48.1445 12.5244-46.8262Q14.0625-45.5078 16.5527-44.3848Q17.4805-43.9941 17.8955-43.2861Q18.3105-42.5781 18.3105-41.5039L17.5293 1.26953Q17.4805 3.61328 18.8721 4.88281Q20.2637 6.15234 22.6074 6.15234ZM52.0508-26.5625L51.2207 0.976562Q51.123 3.51562 52.5391 4.83398Q53.9551 6.15234 56.2988 6.15234Q58.6426 6.15234 60.0586 4.93164Q61.4746 3.71094 61.4746 1.46484L61.4746-79.248Q61.4746-80.7129 60.6934-81.3721Q59.9121-82.0312 58.8379-82.0312Q57.8125-82.0312 57.0068-81.4453Q56.2012-80.8594 55.3223-79.5898Q53.0273-76.3672 51.1719-71.8994Q49.3164-67.4316 47.9736-62.1582Q46.6309-56.8848 45.9229-51.1475Q45.2148-45.4102 45.2148-39.5996L45.2148-37.5Q45.2148-35.498 45.9473-34.0576Q46.6797-32.6172 48.0957-31.6406L50.1953-30.1758Q51.2207-29.4434 51.6846-28.5889Q52.1484-27.7344 52.0508-26.5625Z"/>
  </g>
  <g id="Thin-S" transform="matrix(1 0 0 1 822.072 696)">
   <path d="M21.875 5.71289Q24.0234 5.71289 25.415 4.49219Q26.8066 3.27148 26.8066 1.02539L26.0254-41.3086Q25.9766-42.3828 26.3672-43.042Q26.7578-43.7012 27.6855-44.1406Q30.0781-45.2148 31.5186-46.5576Q32.959-47.9004 33.5205-49.9512Q34.082-52.002 33.9355-55.2246L32.9102-78.0273Q32.8125-80.3711 30.5176-80.3711Q29.4922-80.3711 28.9062-79.7119Q28.3203-79.0527 28.3203-77.9297L28.5156-55.7617Q28.5156-53.6621 26.5625-53.6621Q24.5605-53.6621 24.5605-55.6641L24.1699-78.6133Q24.1699-79.6875 23.5596-80.2979Q22.9492-80.9082 21.875-80.9082Q20.8008-80.9082 20.1904-80.2979Q19.5801-79.6875 19.5312-78.6133L19.1406-55.6641Q19.1406-53.6621 17.1387-53.6621Q15.1855-53.6621 15.1855-55.7617L15.3809-77.9297Q15.3809-79.0527 14.7949-79.7119Q14.209-80.3711 13.1348-80.3711Q10.8887-80.3711 10.791-78.0273L9.81445-55.2246Q9.66797-52.002 10.2295-49.9512Q10.791-47.9004 12.207-46.5576Q13.623-45.2148 16.0645-44.1406Q16.9922-43.7012 17.3584-43.042Q17.7246-42.3828 17.6758-41.3086L16.9434 1.02539Q16.8945 3.27148 18.2861 4.49219Q19.6777 5.71289 21.875 5.71289ZM50-25.1465L48.9746 0.341797Q48.8281 3.07617 50.2686 4.39453Q51.709 5.71289 53.9062 5.71289Q56.1035 5.71289 57.5195 4.5166Q58.9355 3.32031 58.9355 1.07422L58.9355-78.418Q58.9355-79.6875 58.2764-80.2979Q57.6172-80.9082 56.6406-80.9082Q55.6641-80.9082 54.9805-80.3711Q54.2969-79.834 53.5645-78.8086Q51.2695-75.5859 49.4385-71.2646Q47.6074-66.9434 46.3379-61.792Q45.0684-56.6406 44.3848-50.9033Q43.7012-45.166 43.7012-39.209L43.7012-36.5234Q43.7012-34.375 44.3848-32.9834Q45.0684-31.5918 46.4844-30.5664L48.1934-29.3457Q49.2188-28.6133 49.6582-27.6123Q50.0977-26.6113 50-25.1465Z"/>
  </g>
  <g id="Ultralight-S" transform="matrix(1 0 0 1 526.02 696)">
   <path d="M21.4844 5.51758Q23.5352 5.51758 24.9268 4.29688Q26.3184 3.07617 26.3184 0.927734L25.5371-41.2109Q25.4883-42.334 25.8545-42.9443Q26.2207-43.5547 27.1484-43.9941Q29.541-45.0684 30.9082-46.4111Q32.2754-47.7539 32.7637-49.8047Q33.252-51.8555 33.1055-55.0293L32.1289-77.5391Q32.0801-79.7852 29.8828-79.7852Q28.8086-79.7852 28.2471-79.1748Q27.6855-78.5645 27.6855-77.4414L27.8809-55.5664Q27.8809-53.4668 26.0254-53.4668Q24.0723-53.4668 24.0723-55.4688L23.6816-78.125Q23.6816-79.1992 23.0957-79.7852Q22.5098-80.3711 21.4844-80.3711Q20.4102-80.3711 19.8242-79.7852Q19.2383-79.1992 19.2383-78.125L18.8477-55.4688Q18.8477-53.4668 16.9434-53.4668Q15.0391-53.4668 15.0391-55.5664L15.1855-77.4414Q15.1855-78.5645 14.624-79.1748Q14.0625-79.7852 13.0371-79.7852Q10.8398-79.7852 10.791-77.5391L9.81445-55.0293Q9.66797-51.8555 10.1807-49.8047Q10.6934-47.7539 12.0605-46.4111Q13.4277-45.0684 15.8203-43.9941Q16.748-43.5547 17.0898-42.9443Q17.4316-42.334 17.3828-41.2109L16.6016 0.927734Q16.5527 3.07617 17.9443 4.29688Q19.3359 5.51758 21.4844 5.51758ZM48.877-24.4141L47.8027 0.0488281Q47.6562 2.88086 49.0967 4.19922Q50.5371 5.51758 52.6367 5.51758Q54.7852 5.51758 56.2012 4.29688Q57.6172 3.07617 57.6172 0.878906L57.6172-78.0273Q57.6172-79.1992 57.0312-79.7852Q56.4453-80.3711 55.4688-80.3711Q54.541-80.3711 53.8818-79.8584Q53.2227-79.3457 52.6367-78.418Q50.3418-75.2441 48.5352-70.9717Q46.7285-66.6992 45.459-61.5967Q44.1895-56.4941 43.5303-50.7812Q42.8711-45.0684 42.8711-38.9648L42.8711-36.0352Q42.8711-33.7891 43.5303-32.4219Q44.1895-31.0547 45.6055-30.0293L47.1191-28.9062Q48.1445-28.1738 48.5596-27.0996Q48.9746-26.0254 48.877-24.4141Z"/>
  </g>
 </g>
</svg>
