<svg fill="none" height="32" viewBox="0 0 32 32" width="32" xmlns="http://www.w3.org/2000/svg" xmlns:xlink="http://www.w3.org/1999/xlink"><linearGradient id="a" gradientUnits="userSpaceOnUse" x1="16" x2="16" y1="0" y2="32"><stop offset="0" stop-color="#6364ff"/><stop offset="1" stop-color="#563acc"/></linearGradient><rect fill="url(#a)" height="32" rx="16" width="32"/><path d="m23.9354 11.3249c-.2464-1.80299-1.843-3.22387-3.7356-3.4992-.3193-.04652-1.5292-.21584-4.3317-.21584h-.0209c-2.8033 0-3.4047.16932-3.724.21584-1.84.2677-3.52022 1.54444-3.92789 3.3688-.19608.8984-.21701 1.8945-.18058 2.8082.05192 1.3103.062 2.6183.1829 3.9232.08359.8669.2294 1.7268.43635 2.5733.38751 1.5635 1.95622 2.8647 3.49302 3.3955 1.6455.5536 3.4151.6455 5.1106.2654.1865-.0427.371-.0922.5534-.1487.4115-.1289.8944-.273 1.2493-.5263.0049-.0035.0089-.0081.0117-.0134s.0044-.0111.0046-.0171v-1.2645c-.0001-.0056-.0014-.0111-.004-.016-.0025-.005-.0061-.0094-.0105-.0128-.0045-.0035-.0097-.0059-.0152-.0071s-.0113-.0012-.0168.0001c-1.0863.2553-2.1995.3833-3.3164.3813-1.922 0-2.439-.8977-2.587-1.2714-.119-.323-.1946-.6599-.2248-1.0022-.0003-.0057.0008-.0114.0032-.0167.0023-.0053.0059-.0099.0104-.0136.0046-.0036.0099-.0061.0156-.0074.0057-.0012.0117-.0011.0173.0004 1.0682.2536 2.1633.3816 3.2621.3813.2643 0 .5278 0 .7921-.0068 1.1052-.0305 2.2701-.0862 3.3575-.2952.0271-.0053.0542-.0099.0775-.0168 1.7151-.3241 3.3473-1.3416 3.5132-3.9179.0062-.1014.0217-1.0624.0217-1.1677.0008-.3577.117-2.5374-.0171-3.8767zm-2.6397 6.4287h-1.8035v-4.3473c0-.9152-.3875-1.382-1.1757-1.382-.8665 0-1.3005.5522-1.3005 1.6428v2.3796h-1.7927v-2.3796c0-1.0906-.4348-1.6428-1.3013-1.6428-.7835 0-1.1749.4668-1.1757 1.382v4.3473h-1.802v-4.4793c0-.9152.2375-1.6423.7123-2.1813.4898-.5376 1.1323-.8137 1.9298-.8137.9231 0 1.6206.3493 2.0856 1.0471l.4488.7414.4495-.7414c.465-.6978 1.1626-1.0471 2.0841-1.0471.7967 0 1.4392.2761 1.9306.8137.4748.5385.7122 1.2656.7122 2.1813z" fill="#fff"/></svg>