<svg width="36" height="36" viewBox="0 0 36 36" fill="none" xmlns="http://www.w3.org/2000/svg">
<rect x="1" y="1" width="34" height="34" rx="17" fill="#0A66C2"/>
<g clip-path="url(#clip0_1043_15615)">
<path d="M24.8189 10H11.1811C10.8679 10 10.5674 10.1244 10.3459 10.3459C10.1244 10.5674 10 10.8679 10 11.1811V24.8189C10 25.1321 10.1244 25.4326 10.3459 25.6541C10.5674 25.8756 10.8679 26 11.1811 26H24.8189C25.1321 26 25.4326 25.8756 25.6541 25.6541C25.8756 25.4326 26 25.1321 26 24.8189V11.1811C26 10.8679 25.8756 10.5674 25.6541 10.3459C25.4326 10.1244 25.1321 10 24.8189 10ZM14.7689 23.63H12.3633V15.9889H14.7689V23.63ZM13.5644 14.93C13.2916 14.9285 13.0253 14.8461 12.7992 14.6934C12.573 14.5407 12.3972 14.3244 12.2939 14.0718C12.1906 13.8192 12.1644 13.5417 12.2187 13.2743C12.2729 13.0069 12.4052 12.7615 12.5988 12.5692C12.7923 12.3769 13.0385 12.2462 13.3063 12.1936C13.5741 12.1411 13.8514 12.1691 14.1033 12.274C14.3552 12.3789 14.5704 12.5561 14.7216 12.7832C14.8729 13.0103 14.9535 13.2771 14.9533 13.55C14.9559 13.7327 14.9217 13.914 14.8527 14.0832C14.7837 14.2524 14.6813 14.4059 14.5517 14.5347C14.4221 14.6635 14.2679 14.7649 14.0983 14.8328C13.9287 14.9007 13.7471 14.9337 13.5644 14.93ZM23.6356 23.6367H21.2311V19.4622C21.2311 18.2311 20.7078 17.8511 20.0322 17.8511C19.3189 17.8511 18.6189 18.3889 18.6189 19.4933V23.6367H16.2133V15.9944H18.5267V17.0533H18.5578C18.79 16.5833 19.6033 15.78 20.8444 15.78C22.1867 15.78 23.6367 16.5767 23.6367 18.91L23.6356 23.6367Z" fill="white"/>
</g>
<rect x="1" y="1" width="34" height="34" rx="17" stroke="white" stroke-width="2"/>
<defs>
<clipPath id="clip0_1043_15615">
<rect width="16" height="16" fill="white" transform="translate(10 10)"/>
</clipPath>
</defs>
</svg>
