<svg fill="none" height="32" viewBox="0 0 32 32" width="32" xmlns="http://www.w3.org/2000/svg" xmlns:xlink="http://www.w3.org/1999/xlink"><clipPath id="a"><path d="m8 8h16v16h-16z"/></clipPath><rect fill="#0a66c2" height="32" rx="16" width="32"/><g clip-path="url(#a)"><path d="m22.8189 8h-13.63779c-.31325 0-.61367.12444-.83517.34594s-.34594.52192-.34594.83517v13.63779c0 .3132.12444.6137.34594.8352s.52192.3459.83517.3459h13.63779c.3132 0 .6137-.1244.8352-.3459s.3459-.522.3459-.8352v-13.63779c0-.31325-.1244-.61367-.3459-.83517s-.522-.34594-.8352-.34594zm-10.05 13.63h-2.4056v-7.6411h2.4056zm-1.2045-8.7c-.2728-.0015-.5391-.0839-.7652-.2366-.2262-.1527-.402-.369-.5053-.6216s-.1295-.5301-.0752-.7975c.0542-.2674.1865-.5128.3801-.7051.1935-.1923.4397-.323.7075-.3756.2678-.0525.5451-.0245.797.0804s.4671.2821.6183.5092c.1513.2271.2319.4939.2317.7668.0026.1827-.0316.364-.1006.5332s-.1714.3227-.301.4515-.2838.2302-.4534.2981-.3512.1009-.5339.0972zm10.0712 8.7067h-2.4045v-4.1745c0-1.2311-.5233-1.6111-1.1989-1.6111-.7133 0-1.4133.5378-1.4133 1.6422v4.1434h-2.4056v-7.6423h2.3134v1.0589h.0311c.2322-.47 1.0455-1.2733 2.2866-1.2733 1.3423 0 2.7923.7967 2.7923 3.13z" fill="#fff"/></g></svg>