<svg fill="none" height="32" viewBox="0 0 32 32" width="32" xmlns="http://www.w3.org/2000/svg"><rect fill="#1da1f2" height="32" rx="16" width="32"/><path d="m13.0317 22.5003c6.0377 0 9.3401-5.0022 9.3401-9.3401 0-.1421 0-.2835-.0096-.4243.6425-.4647 1.1971-1.0401 1.6378-1.6992-.5991.2656-1.2346.4397-1.8854.5164.6853-.4102 1.1982-1.0554 1.4432-1.81564-.6444.38244-1.3494.65184-2.0845.79684-.495-.5263-1.1496-.87481-1.8625-.99158-.713-.11677-1.4445.00469-2.0815.34558-.637.3409-1.1438.8822-1.4421 1.5402-.2984.658-.3715 1.3959-.2082 2.0997-1.3051-.0655-2.5818-.4047-3.7474-.9955-1.1655-.5909-2.19376-1.4203-3.018-2.4343-.41978.7227-.54835 1.5782-.35953 2.3923.18881.8141.68082 1.5257 1.37583 1.9898-.52241-.0153-1.03347-.1562-1.4899-.4109v.0416c.00021.7579.26257 1.4924.74258 2.0789s1.14812.989 1.89102 1.139c-.4833.1319-.9904.1511-1.48224.0564.20984.6522.61824 1.2225 1.16814 1.6313.5499.4087 1.2137.6354 1.8987.6483-.6806.535-1.46.9306-2.2936 1.164-.83364.2335-1.70512.3003-2.5646.1967 1.50122.9633 3.2479 1.4743 5.0317 1.472" fill="#fff"/></svg>