<svg width="65" height="65" viewBox="0 0 65 65" fill="none" xmlns="http://www.w3.org/2000/svg">
<rect width="65" height="65" rx="32.5" fill="#D63638"/>
<path d="M32.0001 18.6667C39.3667 18.6667 45.3334 24.6333 45.3334 32C45.3334 39.3667 39.3667 45.3333 32.0001 45.3333C24.6334 45.3333 18.6667 39.3667 18.6667 32C18.6667 24.6333 24.6334 18.6667 32.0001 18.6667ZM33.8834 34.3L34.4667 23.5333H29.5334L30.1167 34.3H33.8834ZM33.7334 39.9C34.1334 39.5167 34.3501 38.9833 34.3501 38.3C34.3501 37.6 34.1501 37.0667 33.7501 36.6833C33.3501 36.3 32.7667 36.1 31.9834 36.1C31.2001 36.1 30.6167 36.3 30.2001 36.6833C29.7834 37.0667 29.5834 37.6 29.5834 38.3C29.5834 38.9833 29.8001 39.5167 30.2167 39.9C30.6501 40.2833 31.2334 40.4667 31.9834 40.4667C32.7334 40.4667 33.3167 40.2833 33.7334 39.9Z" fill="white"/>
</svg>
