<?xml version="1.0" encoding="UTF-8"?>
<!--Generator: Apple Native CoreSVG 149-->
<!DOCTYPE svg
PUBLIC "-//W3C//DTD SVG 1.1//EN"
       "http://www.w3.org/Graphics/SVG/1.1/DTD/svg11.dtd">
<svg version="1.1" xmlns="http://www.w3.org/2000/svg" xmlns:xlink="http://www.w3.org/1999/xlink" width="3300" height="2200">
 <!--glyph: "uni100C1A.medium", point size: 100.0, font version: "17.0d9e1", template writer version: "59"-->
 <g id="Notes">
  <rect height="2200" id="artboard" style="fill:white;opacity:1" width="3300" x="0" y="0"/>
  <line style="fill:none;stroke:black;opacity:1;stroke-width:0.5;" x1="263" x2="3036" y1="292" y2="292"/>
  <text style="stroke:none;fill:black;font-family:sans-serif;font-size:13;font-weight:bold;" transform="matrix(1 0 0 1 263 322)">Weight/Scale Variations</text>
  <text style="stroke:none;fill:black;font-family:sans-serif;font-size:13;text-anchor:middle;" transform="matrix(1 0 0 1 559.711 322)">Ultralight</text>
  <text style="stroke:none;fill:black;font-family:sans-serif;font-size:13;text-anchor:middle;" transform="matrix(1 0 0 1 856.422 322)">Thin</text>
  <text style="stroke:none;fill:black;font-family:sans-serif;font-size:13;text-anchor:middle;" transform="matrix(1 0 0 1 1153.13 322)">Light</text>
  <text style="stroke:none;fill:black;font-family:sans-serif;font-size:13;text-anchor:middle;" transform="matrix(1 0 0 1 1449.84 322)">Regular</text>
  <text style="stroke:none;fill:black;font-family:sans-serif;font-size:13;text-anchor:middle;" transform="matrix(1 0 0 1 1746.56 322)">Medium</text>
  <text style="stroke:none;fill:black;font-family:sans-serif;font-size:13;text-anchor:middle;" transform="matrix(1 0 0 1 2043.27 322)">Semibold</text>
  <text style="stroke:none;fill:black;font-family:sans-serif;font-size:13;text-anchor:middle;" transform="matrix(1 0 0 1 2339.98 322)">Bold</text>
  <text style="stroke:none;fill:black;font-family:sans-serif;font-size:13;text-anchor:middle;" transform="matrix(1 0 0 1 2636.69 322)">Heavy</text>
  <text style="stroke:none;fill:black;font-family:sans-serif;font-size:13;text-anchor:middle;" transform="matrix(1 0 0 1 2933.4 322)">Black</text>
  <line style="fill:none;stroke:black;opacity:1;stroke-width:0.5;" x1="263" x2="3036" y1="1903" y2="1903"/>
  <g transform="matrix(1 0 0 1 263 1933)">
   <path d="M9.24805 0.830078Q10.8691 0.830078 12.2949 0.214844Q13.7207-0.400391 14.8096-1.49414Q15.8984-2.58789 16.5186-4.01367Q17.1387-5.43945 17.1387-7.05078Q17.1387-8.66211 16.5186-10.0879Q15.8984-11.5137 14.8047-12.6074Q13.7109-13.7012 12.2852-14.3164Q10.8594-14.9316 9.23828-14.9316Q7.62695-14.9316 6.20117-14.3164Q4.77539-13.7012 3.69141-12.6074Q2.60742-11.5137 1.9873-10.0879Q1.36719-8.66211 1.36719-7.05078Q1.36719-5.43945 1.9873-4.01367Q2.60742-2.58789 3.69629-1.49414Q4.78516-0.400391 6.21094 0.214844Q7.63672 0.830078 9.24805 0.830078ZM9.24805-0.654297Q7.91992-0.654297 6.7627-1.14746Q5.60547-1.64062 4.73145-2.51953Q3.85742-3.39844 3.36426-4.56055Q2.87109-5.72266 2.87109-7.05078Q2.87109-8.37891 3.35938-9.54102Q3.84766-10.7031 4.72168-11.582Q5.5957-12.4609 6.75293-12.9541Q7.91016-13.4473 9.23828-13.4473Q10.5762-13.4473 11.7334-12.9541Q12.8906-12.4609 13.7695-11.582Q14.6484-10.7031 15.1465-9.54102Q15.6445-8.37891 15.6445-7.05078Q15.6445-5.72266 15.1514-4.56055Q14.6582-3.39844 13.7842-2.51953Q12.9102-1.64062 11.748-1.14746Q10.5859-0.654297 9.24805-0.654297ZM5.83984-7.04102Q5.83984-6.71875 6.04492-6.51855Q6.25-6.31836 6.5918-6.31836L8.50586-6.31836L8.50586-4.39453Q8.50586-4.0625 8.70605-3.85742Q8.90625-3.65234 9.22852-3.65234Q9.56055-3.65234 9.76562-3.85742Q9.9707-4.0625 9.9707-4.39453L9.9707-6.31836L11.8945-6.31836Q12.2266-6.31836 12.4316-6.51855Q12.6367-6.71875 12.6367-7.04102Q12.6367-7.37305 12.4316-7.57812Q12.2266-7.7832 11.8945-7.7832L9.9707-7.7832L9.9707-9.69727Q9.9707-10.0391 9.76562-10.2441Q9.56055-10.4492 9.22852-10.4492Q8.90625-10.4492 8.70605-10.2441Q8.50586-10.0391 8.50586-9.69727L8.50586-7.7832L6.5918-7.7832Q6.25-7.7832 6.04492-7.57812Q5.83984-7.37305 5.83984-7.04102Z"/>
  </g>
  <g transform="matrix(1 0 0 1 281.867 1933)">
   <path d="M11.709 2.91016Q13.75 2.91016 15.5518 2.12891Q17.3535 1.34766 18.7305-0.0292969Q20.1074-1.40625 20.8887-3.20801Q21.6699-5.00977 21.6699-7.05078Q21.6699-9.0918 20.8887-10.8936Q20.1074-12.6953 18.7305-14.0723Q17.3535-15.4492 15.5469-16.2305Q13.7402-17.0117 11.6992-17.0117Q9.6582-17.0117 7.85645-16.2305Q6.05469-15.4492 4.68262-14.0723Q3.31055-12.6953 2.5293-10.8936Q1.74805-9.0918 1.74805-7.05078Q1.74805-5.00977 2.5293-3.20801Q3.31055-1.40625 4.6875-0.0292969Q6.06445 1.34766 7.86621 2.12891Q9.66797 2.91016 11.709 2.91016ZM11.709 1.25Q9.98047 1.25 8.47656 0.605469Q6.97266-0.0390625 5.83496-1.17676Q4.69727-2.31445 4.05762-3.81836Q3.41797-5.32227 3.41797-7.05078Q3.41797-8.7793 4.05762-10.2832Q4.69727-11.7871 5.83008-12.9297Q6.96289-14.0723 8.4668-14.7119Q9.9707-15.3516 11.6992-15.3516Q13.4277-15.3516 14.9316-14.7119Q16.4355-14.0723 17.5781-12.9297Q18.7207-11.7871 19.3652-10.2832Q20.0098-8.7793 20.0098-7.05078Q20.0098-5.32227 19.3701-3.81836Q18.7305-2.31445 17.5928-1.17676Q16.4551-0.0390625 14.9463 0.605469Q13.4375 1.25 11.709 1.25ZM7.39258-7.04102Q7.39258-6.68945 7.62695-6.46484Q7.86133-6.24023 8.23242-6.24023L10.8789-6.24023L10.8789-3.57422Q10.8789-3.21289 11.1035-2.9834Q11.3281-2.75391 11.6797-2.75391Q12.0508-2.75391 12.2852-2.9834Q12.5195-3.21289 12.5195-3.57422L12.5195-6.24023L15.1758-6.24023Q15.5371-6.24023 15.7715-6.46484Q16.0059-6.68945 16.0059-7.04102Q16.0059-7.41211 15.7715-7.6416Q15.5371-7.87109 15.1758-7.87109L12.5195-7.87109L12.5195-10.5176Q12.5195-10.8984 12.2852-11.1279Q12.0508-11.3574 11.6797-11.3574Q11.3281-11.3574 11.1035-11.1279Q10.8789-10.8984 10.8789-10.5176L10.8789-7.87109L8.23242-7.87109Q7.85156-7.87109 7.62207-7.6416Q7.39258-7.41211 7.39258-7.04102Z"/>
  </g>
  <g transform="matrix(1 0 0 1 305.646 1933)">
   <path d="M14.9707 5.66406Q17.0605 5.66406 18.96 5.01465Q20.8594 4.36523 22.4512 3.19336Q24.043 2.02148 25.2197 0.429688Q26.3965-1.16211 27.0459-3.06641Q27.6953-4.9707 27.6953-7.05078Q27.6953-9.14062 27.0459-11.04Q26.3965-12.9395 25.2197-14.5312Q24.043-16.123 22.4512-17.2998Q20.8594-18.4766 18.9551-19.126Q17.0508-19.7754 14.9609-19.7754Q12.8711-19.7754 10.9717-19.126Q9.07227-18.4766 7.48535-17.2998Q5.89844-16.123 4.72168-14.5312Q3.54492-12.9395 2.90039-11.04Q2.25586-9.14062 2.25586-7.05078Q2.25586-4.9707 2.90527-3.06641Q3.55469-1.16211 4.72656 0.429688Q5.89844 2.02148 7.49023 3.19336Q9.08203 4.36523 10.9814 5.01465Q12.8809 5.66406 14.9707 5.66406ZM14.9707 3.84766Q13.1641 3.84766 11.5283 3.2959Q9.89258 2.74414 8.53516 1.74805Q7.17773 0.751953 6.17676-0.610352Q5.17578-1.97266 4.62891-3.6084Q4.08203-5.24414 4.08203-7.05078Q4.08203-8.86719 4.62891-10.5029Q5.17578-12.1387 6.17188-13.501Q7.16797-14.8633 8.52539-15.8594Q9.88281-16.8555 11.5186-17.4023Q13.1543-17.9492 14.9609-17.9492Q16.7773-17.9492 18.4131-17.4023Q20.0488-16.8555 21.4111-15.8594Q22.7734-14.8633 23.7695-13.501Q24.7656-12.1387 25.3174-10.5029Q25.8691-8.86719 25.8691-7.05078Q25.8789-5.24414 25.332-3.6084Q24.7852-1.97266 23.7842-0.610352Q22.7832 0.751953 21.4209 1.74805Q20.0586 2.74414 18.4229 3.2959Q16.7871 3.84766 14.9707 3.84766ZM9.45312-7.04102Q9.45312-6.66016 9.71191-6.41113Q9.9707-6.16211 10.3711-6.16211L14.0625-6.16211L14.0625-2.46094Q14.0625-2.06055 14.3115-1.80664Q14.5605-1.55273 14.9414-1.55273Q15.3516-1.55273 15.6055-1.80664Q15.8594-2.06055 15.8594-2.46094L15.8594-6.16211L19.5605-6.16211Q19.9609-6.16211 20.2148-6.41113Q20.4688-6.66016 20.4688-7.04102Q20.4688-7.45117 20.2148-7.70508Q19.9609-7.95898 19.5605-7.95898L15.8594-7.95898L15.8594-11.6504Q15.8594-12.0605 15.6055-12.3145Q15.3516-12.5684 14.9414-12.5684Q14.5605-12.5684 14.3115-12.3096Q14.0625-12.0508 14.0625-11.6504L14.0625-7.95898L10.3711-7.95898Q9.96094-7.95898 9.70703-7.70508Q9.45312-7.45117 9.45312-7.04102Z"/>
  </g>
  <text style="stroke:none;fill:black;font-family:sans-serif;font-size:13;font-weight:bold;" transform="matrix(1 0 0 1 263 1953)">Design Variations</text>
  <text style="stroke:none;fill:black;font-family:sans-serif;font-size:13;" transform="matrix(1 0 0 1 263 1971)">Symbols are supported in up to nine weights and three scales.</text>
  <text style="stroke:none;fill:black;font-family:sans-serif;font-size:13;" transform="matrix(1 0 0 1 263 1989)">For optimal layout with text and other symbols, vertically align</text>
  <text style="stroke:none;fill:black;font-family:sans-serif;font-size:13;" transform="matrix(1 0 0 1 263 2007)">symbols with the adjacent text.</text>
  <line style="fill:none;stroke:#00AEEF;stroke-width:0.5;opacity:1.0;" x1="776" x2="776" y1="1919" y2="1933"/>
  <g transform="matrix(1 0 0 1 776 1933)">
   <path d="M3.31055 0.15625Q3.70117 0.15625 3.91602-0.00976562Q4.13086-0.175781 4.26758-0.585938L5.52734-4.0332L11.2891-4.0332L12.5488-0.585938Q12.6855-0.175781 12.9004-0.00976562Q13.1152 0.15625 13.4961 0.15625Q13.8867 0.15625 14.1162-0.0585938Q14.3457-0.273438 14.3457-0.644531Q14.3457-0.869141 14.2383-1.17188L9.6582-13.3691Q9.48242-13.8184 9.17969-14.043Q8.87695-14.2676 8.4082-14.2676Q7.5-14.2676 7.17773-13.3789L2.59766-1.16211Q2.49023-0.859375 2.49023-0.634766Q2.49023-0.263672 2.70996-0.0537109Q2.92969 0.15625 3.31055 0.15625ZM6.00586-5.51758L8.37891-12.0898L8.42773-12.0898L10.8008-5.51758Z"/>
  </g>
  <line style="fill:none;stroke:#00AEEF;stroke-width:0.5;opacity:1.0;" x1="793.197" x2="793.197" y1="1919" y2="1933"/>
  <text style="stroke:none;fill:black;font-family:sans-serif;font-size:13;font-weight:bold;" transform="matrix(1 0 0 1 776 1953)">Margins</text>
  <text style="stroke:none;fill:black;font-family:sans-serif;font-size:13;" transform="matrix(1 0 0 1 776 1971)">Leading and trailing margins on the left and right side of each symbol</text>
  <text style="stroke:none;fill:black;font-family:sans-serif;font-size:13;" transform="matrix(1 0 0 1 776 1989)">can be adjusted by modifying the x-location of the margin guidelines.</text>
  <text style="stroke:none;fill:black;font-family:sans-serif;font-size:13;" transform="matrix(1 0 0 1 776 2007)">Modifications are automatically applied proportionally to all</text>
  <text style="stroke:none;fill:black;font-family:sans-serif;font-size:13;" transform="matrix(1 0 0 1 776 2025)">scales and weights.</text>
  <g transform="matrix(1 0 0 1 1289 1933)">
   <path d="M2.8418 1.86523L4.54102 3.57422Q5.18555 4.22852 5.90332 4.17969Q6.62109 4.13086 7.31445 3.35938L18.0078-8.42773L17.041-9.4043L6.42578 2.27539Q6.16211 2.57812 5.89355 2.61719Q5.625 2.65625 5.27344 2.30469L4.10156 1.14258Q3.75 0.791016 3.79395 0.522461Q3.83789 0.253906 4.14062-0.0195312L15.6152-10.8203L14.6387-11.7871L3.04688-0.898438Q2.30469-0.214844 2.25098 0.498047Q2.19727 1.21094 2.8418 1.86523ZM9.25781-16.3281Q8.94531-16.0254 8.90625-15.6348Q8.86719-15.2441 9.04297-14.9512Q9.21875-14.6777 9.55566-14.541Q9.89258-14.4043 10.3809-14.5215Q11.4746-14.7754 12.5977-14.7314Q13.7207-14.6875 14.7949-13.9844L14.209-12.5293Q13.9551-11.9043 14.0674-11.4404Q14.1797-10.9766 14.5801-10.5664L16.875-8.25195Q17.2363-7.88086 17.5781-7.82227Q17.9199-7.76367 18.3398-7.8418L19.4043-8.03711L20.0684-7.36328L20.0293-6.80664Q20-6.43555 20.1221-6.12305Q20.2441-5.81055 20.6055-5.44922L21.3672-4.70703Q21.7285-4.3457 22.1533-4.33105Q22.5781-4.31641 22.9297-4.66797L25.8398-7.58789Q26.1914-7.93945 26.1816-8.35449Q26.1719-8.76953 25.8105-9.13086L25.0391-9.89258Q24.6875-10.2539 24.3799-10.3857Q24.0723-10.5176 23.7109-10.4883L23.1348-10.4395L22.4902-11.0742L22.7344-12.1973Q22.832-12.6172 22.6953-12.9834Q22.5586-13.3496 22.1191-13.7891L19.9219-15.9766Q18.6719-17.2168 17.2607-17.8369Q15.8496-18.457 14.4189-18.4814Q12.9883-18.5059 11.665-17.959Q10.3418-17.4121 9.25781-16.3281ZM10.752-15.957Q11.6602-16.6211 12.7002-16.9043Q13.7402-17.1875 14.8047-17.085Q15.8691-16.9824 16.8701-16.5137Q17.8711-16.0449 18.7012-15.2051L21.1328-12.793Q21.3086-12.6172 21.3525-12.4512Q21.3965-12.2852 21.3379-12.0312L21.0156-10.5469L22.5195-9.0625L23.5059-9.12109Q23.6914-9.13086 23.7891-9.09668Q23.8867-9.0625 24.0332-8.91602L24.6094-8.33984L22.168-5.89844L21.5918-6.47461Q21.4453-6.62109 21.4062-6.71875Q21.3672-6.81641 21.377-7.01172L21.4453-7.98828L19.9512-9.47266L18.4277-9.21875Q18.1836-9.16992 18.042-9.2041Q17.9004-9.23828 17.7148-9.41406L15.7129-11.416Q15.5176-11.5918 15.4932-11.7529Q15.4688-11.9141 15.5859-12.1875L16.4648-14.2773Q15.293-15.3711 13.8281-15.791Q12.3633-16.2109 10.8398-15.7617Q10.7227-15.7324 10.6885-15.8057Q10.6543-15.8789 10.752-15.957Z"/>
  </g>
  <text style="stroke:none;fill:black;font-family:sans-serif;font-size:13;font-weight:bold;" transform="matrix(1 0 0 1 1289 1953)">Exporting</text>
  <text style="stroke:none;fill:black;font-family:sans-serif;font-size:13;" transform="matrix(1 0 0 1 1289 1971)">Symbols should be outlined when exporting to ensure the</text>
  <text style="stroke:none;fill:black;font-family:sans-serif;font-size:13;" transform="matrix(1 0 0 1 1289 1989)">design is preserved when submitting to Xcode.</text>
  <text id="template-version" style="stroke:none;fill:black;font-family:sans-serif;font-size:13;text-anchor:end;" transform="matrix(1 0 0 1 3036 1933)">Template v.3.0</text>
  <text style="stroke:none;fill:black;font-family:sans-serif;font-size:13;text-anchor:end;" transform="matrix(1 0 0 1 3036 1951)">Requires Xcode 13 or greater</text>
  <text id="descriptive-name" style="stroke:none;fill:black;font-family:sans-serif;font-size:13;text-anchor:end;" transform="matrix(1 0 0 1 3036 1969)">Generated from arrowshape.turn.up.backward</text>
  <text style="stroke:none;fill:black;font-family:sans-serif;font-size:13;text-anchor:end;" transform="matrix(1 0 0 1 3036 1987)">Typeset at 100 points</text>
  <text style="stroke:none;fill:black;font-family:sans-serif;font-size:13;" transform="matrix(1 0 0 1 263 726)">Small</text>
  <text style="stroke:none;fill:black;font-family:sans-serif;font-size:13;" transform="matrix(1 0 0 1 263 1156)">Medium</text>
  <text style="stroke:none;fill:black;font-family:sans-serif;font-size:13;" transform="matrix(1 0 0 1 263 1586)">Large</text>
 </g>
 <g id="Guides">
  <g id="H-reference" style="fill:#27AAE1;stroke:none;" transform="matrix(1 0 0 1 339 696)">
   <path d="M0.976562 0L3.66211 0L29.3457-67.1387L30.0293-67.1387L30.0293-70.459L28.125-70.459ZM11.6699-24.4629L46.9727-24.4629L46.2402-26.709L12.4512-26.709ZM55.127 0L57.7637 0L30.6152-70.459L29.4434-70.459L29.4434-67.1387Z"/>
  </g>
  <line id="Baseline-S" style="fill:none;stroke:#27AAE1;opacity:1;stroke-width:0.5;" x1="263" x2="3036" y1="696" y2="696"/>
  <line id="Capline-S" style="fill:none;stroke:#27AAE1;opacity:1;stroke-width:0.5;" x1="263" x2="3036" y1="625.541" y2="625.541"/>
  <g id="H-reference" style="fill:#27AAE1;stroke:none;" transform="matrix(1 0 0 1 339 1126)">
   <path d="M0.976562 0L3.66211 0L29.3457-67.1387L30.0293-67.1387L30.0293-70.459L28.125-70.459ZM11.6699-24.4629L46.9727-24.4629L46.2402-26.709L12.4512-26.709ZM55.127 0L57.7637 0L30.6152-70.459L29.4434-70.459L29.4434-67.1387Z"/>
  </g>
  <line id="Baseline-M" style="fill:none;stroke:#27AAE1;opacity:1;stroke-width:0.5;" x1="263" x2="3036" y1="1126" y2="1126"/>
  <line id="Capline-M" style="fill:none;stroke:#27AAE1;opacity:1;stroke-width:0.5;" x1="263" x2="3036" y1="1055.54" y2="1055.54"/>
  <g id="H-reference" style="fill:#27AAE1;stroke:none;" transform="matrix(1 0 0 1 339 1556)">
   <path d="M0.976562 0L3.66211 0L29.3457-67.1387L30.0293-67.1387L30.0293-70.459L28.125-70.459ZM11.6699-24.4629L46.9727-24.4629L46.2402-26.709L12.4512-26.709ZM55.127 0L57.7637 0L30.6152-70.459L29.4434-70.459L29.4434-67.1387Z"/>
  </g>
  <line id="Baseline-L" style="fill:none;stroke:#27AAE1;opacity:1;stroke-width:0.5;" x1="263" x2="3036" y1="1556" y2="1556"/>
  <line id="Capline-L" style="fill:none;stroke:#27AAE1;opacity:1;stroke-width:0.5;" x1="263" x2="3036" y1="1485.54" y2="1485.54"/>
  <line id="left-margin-Regular-M" style="fill:none;stroke:#00AEEF;stroke-width:0.5;opacity:1.0;" x1="1387.86" x2="1387.86" y1="1030.79" y2="1150.12"/>
  <line id="right-margin-Regular-M" style="fill:none;stroke:#00AEEF;stroke-width:0.5;opacity:1.0;" x1="1511.83" x2="1511.83" y1="1030.79" y2="1150.12"/>
 </g>
 <g id="Symbols">
  <g id="Black-L" transform="matrix(1 0 0 1 2851.76 1556)">
   <path d="M75.5371 26.3672Q80.7129 26.3672 84.2285 22.876Q87.7441 19.3848 87.7441 14.209L87.7441-3.71094L88.4277-3.71094Q97.7051-3.71094 104.321-1.12305Q110.938 1.46484 115.552 6.05469Q120.166 10.6445 123.535 16.6016Q126.221 21.3379 129.175 23.2666Q132.129 25.1953 136.035 25.1953Q141.797 25.1953 144.897 19.4092Q147.998 13.623 147.998 1.9043Q147.998-14.1602 144.141-26.8066Q140.283-39.4531 132.69-48.2666Q125.098-57.0801 113.989-61.6699Q102.881-66.2598 88.4277-66.2598L87.7441-66.2598L87.7441-84.4727Q87.7441-89.6973 84.2285-93.2617Q80.7129-96.8262 75.4883-96.8262Q72.3145-96.8262 69.5557-95.5078Q66.7969-94.1895 63.2812-90.9668L12.793-44.3848Q10.8398-42.5781 9.83887-40.1123Q8.83789-37.6465 8.83789-35.2051Q8.83789-32.9102 9.86328-30.3467Q10.8887-27.7832 12.8418-25.9766L63.2812 20.6543Q66.5039 23.6816 69.3359 25.0244Q72.168 26.3672 75.5371 26.3672ZM70.2148 1.36719Q69.7266 1.36719 69.2871 0.878906L31.9824-34.2773Q31.6895-34.5703 31.5674-34.79Q31.4453-35.0098 31.4453-35.2051Q31.4453-35.4492 31.5674-35.6689Q31.6895-35.8887 31.9824-36.1816L69.2871-71.4844Q69.4824-71.6797 69.7266-71.7529Q69.9707-71.8262 70.2148-71.8262Q71.3379-71.8262 71.3379-70.6543L71.3379-50.7812Q71.3379-48.7305 73.3398-48.7305L80.4688-48.7305Q93.0176-48.7305 102.466-45.459Q111.914-42.1875 118.286-36.0107Q124.658-29.834 127.93-20.9961Q131.201-12.1582 131.396-1.07422Q131.396-0.585938 131.006-0.585938Q130.859-0.585938 130.737-0.683594Q130.615-0.78125 130.469-1.02539Q126.66-8.64258 119.849-13.1592Q113.037-17.6758 103.198-19.6777Q93.3594-21.6797 80.4688-21.6797L73.3398-21.6797Q71.3379-21.6797 71.3379-19.6777L71.3379 0.146484Q71.3379 1.36719 70.2148 1.36719Z"/>
  </g>
  <g id="Heavy-L" transform="matrix(1 0 0 1 2555.63 1556)">
   <path d="M74.2676 25.293Q78.9062 25.293 82.0312 22.168Q85.1562 19.043 85.1562 14.4043L85.1562-5.12695L86.1816-5.12695Q96.2891-5.12695 103.638-2.56348Q110.986 0 116.211 4.90723Q121.436 9.81445 125.244 16.7969Q127.637 21.0449 130.322 22.7051Q133.008 24.3652 136.426 24.3652Q141.406 24.3652 144.189 19.4824Q146.973 14.5996 146.973 4.78516Q146.973-11.6699 143.091-24.6094Q139.209-37.5488 131.494-46.5576Q123.779-55.5664 112.427-60.2539Q101.074-64.9414 86.1816-64.9414L85.1562-64.9414L85.1562-84.668Q85.1562-89.3555 82.0312-92.5537Q78.9062-95.752 74.2188-95.752Q71.2891-95.752 68.7744-94.5068Q66.2598-93.2617 63.0859-90.332L12.793-43.7988Q10.8398-41.9922 9.91211-39.7217Q8.98438-37.4512 8.98438-35.2051Q8.98438-33.1055 9.93652-30.7617Q10.8887-28.418 12.8418-26.6113L63.0859 20.0195Q66.0156 22.8027 68.6035 24.0479Q71.1914 25.293 74.2676 25.293ZM69.4824 3.4668Q68.9941 3.4668 68.5059 2.97852L29.1504-34.082Q28.8086-34.4238 28.6621-34.6924Q28.5156-34.9609 28.5156-35.2051Q28.5156-35.498 28.6621-35.7666Q28.8086-36.0352 29.1504-36.377L68.5059-73.6328Q68.7012-73.877 68.9697-73.9746Q69.2383-74.0723 69.4824-74.0723Q70.5566-74.0723 70.5566-72.9492L70.5566-51.6602Q70.5566-49.6094 72.5586-49.6094L79.834-49.6094Q93.1152-49.6094 102.93-45.9717Q112.744-42.334 119.214-35.5957Q125.684-28.8574 128.955-19.4824Q132.227-10.1074 132.471 1.36719Q132.471 1.9043 132.031 1.9043Q131.885 1.9043 131.738 1.78223Q131.592 1.66016 131.445 1.36719Q127.637-6.44531 120.63-11.3281Q113.623-16.2109 103.418-18.5059Q93.2129-20.8008 79.834-20.8008L72.5586-20.8008Q70.5566-20.8008 70.5566-18.7988L70.5566 2.29492Q70.5566 3.4668 69.4824 3.4668Z"/>
  </g>
  <g id="Bold-L" transform="matrix(1 0 0 1 2259.58 1556)">
   <path d="M72.8516 24.0723Q76.9043 24.0723 79.5898 21.3623Q82.2754 18.6523 82.2754 14.6484L82.2754-6.73828L83.6426-6.73828Q94.6777-6.73828 102.856-4.19922Q111.035-1.66016 116.968 3.61328Q122.9 8.88672 127.148 16.9922Q129.248 20.752 131.616 22.1191Q133.984 23.4863 136.914 23.4863Q140.918 23.4863 143.359 19.6045Q145.801 15.7227 145.801 8.05664Q145.801-8.88672 141.895-22.168Q137.988-35.4492 130.176-44.6533Q122.363-53.8574 110.718-58.6426Q99.0723-63.4277 83.6426-63.4277L82.2754-63.4277L82.2754-84.8633Q82.2754-88.9648 79.5898-91.7725Q76.9043-94.5801 72.8027-94.5801Q70.1172-94.5801 67.9199-93.4326Q65.7227-92.2852 62.8418-89.6484L12.793-43.2129Q10.8398-41.3574 10.0098-39.3066Q9.17969-37.2559 9.17969-35.2539Q9.17969-33.3496 10.0342-31.2256Q10.8887-29.1016 12.8418-27.2949L62.8418 19.3848Q65.4785 21.8262 67.7979 22.9492Q70.1172 24.0723 72.8516 24.0723ZM68.7012 5.85938Q68.2129 5.85938 67.627 5.32227L26.0254-33.8867Q25.5859-34.3262 25.4395-34.6436Q25.293-34.9609 25.293-35.2539Q25.293-35.5957 25.4639-35.8887Q25.6348-36.1816 26.0254-36.6211L67.627-76.0742Q67.8711-76.3184 68.1396-76.4404Q68.4082-76.5625 68.7012-76.5625Q69.7266-76.5625 69.7266-75.4883L69.7266-52.6367Q69.7266-50.5859 71.7285-50.5859L79.1016-50.5859Q93.2129-50.5859 103.442-46.5332Q113.672-42.4805 120.264-35.1318Q126.855-27.7832 130.127-17.7979Q133.398-7.8125 133.691 4.10156Q133.691 4.73633 133.203 4.73633Q133.008 4.73633 132.861 4.56543Q132.715 4.39453 132.568 4.05273Q128.76-4.00391 121.533-9.27734Q114.307-14.5508 103.687-17.1631Q93.0664-19.7754 79.1016-19.7754L71.7285-19.7754Q69.7266-19.7754 69.7266-17.7734L69.7266 4.73633Q69.7266 5.85938 68.7012 5.85938Z"/>
  </g>
  <g id="Semibold-L" transform="matrix(1 0 0 1 1963.34 1556)">
   <path d="M71.875 23.1934Q75.5371 23.1934 77.9053 20.8008Q80.2734 18.4082 80.2734 14.7949L80.2734-7.8125L81.8848-7.8125Q93.5547-7.8125 102.319-5.29785Q111.084-2.7832 117.48 2.73438Q123.877 8.25195 128.467 17.0898Q130.322 20.5078 132.495 21.6797Q134.668 22.8516 137.207 22.8516Q140.576 22.8516 142.798 19.6777Q145.02 16.5039 145.02 10.3027Q145.02-6.98242 141.064-20.4834Q137.109-33.9844 129.224-43.335Q121.338-52.6855 109.497-57.5439Q97.6562-62.4023 81.8848-62.4023L80.2734-62.4023L80.2734-85.0098Q80.2734-88.6719 77.8809-91.2109Q75.4883-93.75 71.7773-93.75Q69.3359-93.75 67.3096-92.6514Q65.2832-91.5527 62.6953-89.1602L12.793-42.7734Q10.8398-40.918 10.0586-38.9893Q9.27734-37.0605 9.27734-35.2539Q9.27734-33.4961 10.0586-31.543Q10.8398-29.5898 12.793-27.7832L62.6953 18.8965Q65.0879 21.0938 67.2119 22.1436Q69.3359 23.1934 71.875 23.1934ZM68.1641 7.4707Q67.627 7.4707 67.041 6.88477L23.877-33.7402Q23.3398-34.1797 23.1689-34.5459Q22.998-34.9121 22.998-35.2539Q22.998-35.5957 23.1934-35.9375Q23.3887-36.2793 23.877-36.7676L66.9922-77.7344Q67.2363-77.9785 67.5293-78.125Q67.8223-78.2715 68.1641-78.2715Q69.1406-78.2715 69.1406-77.2461L69.1406-53.2715Q69.1406-51.2695 71.1426-51.2695L78.5645-51.2695Q93.2617-51.2695 103.76-46.9238Q114.258-42.5781 120.947-34.79Q127.637-27.002 130.908-16.6016Q134.18-6.20117 134.473 5.95703Q134.473 6.64062 133.984 6.64062Q133.74 6.64062 133.618 6.44531Q133.496 6.25 133.301 5.9082Q129.492-2.29492 122.119-7.86133Q114.746-13.4277 103.857-16.2598Q92.9688-19.0918 78.5645-19.0918L71.1426-19.0918Q69.1406-19.0918 69.1406-17.0898L69.1406 6.39648Q69.1406 7.4707 68.1641 7.4707Z"/>
  </g>
  <g id="Medium-L" transform="matrix(1 0 0 1 1666.97 1556)">
   <path d="M71.1426 22.5586Q74.4629 22.5586 76.5869 20.3613Q78.7109 18.1641 78.7109 14.8926L78.7109-8.64258L80.5176-8.64258Q92.7246-8.64258 101.904-6.12793Q111.084-3.61328 117.847 2.0752Q124.609 7.76367 129.443 17.1875Q131.152 20.3125 133.154 21.3379Q135.156 22.3633 137.451 22.3633Q140.332 22.3633 142.358 19.7266Q144.385 17.0898 144.385 12.0117Q144.385-5.51758 140.43-19.2139Q136.475-32.9102 128.516-42.3584Q120.557-51.8066 108.569-56.7139Q96.582-61.6211 80.5176-61.6211L78.7109-61.6211L78.7109-85.1074Q78.7109-88.4766 76.5625-90.7959Q74.4141-93.1152 71.0449-93.1152Q68.7012-93.1152 66.8457-92.0654Q64.9902-91.0156 62.5488-88.8184L12.793-42.4316Q10.8398-40.5762 10.1074-38.7695Q9.375-36.9629 9.375-35.2539Q9.375-33.6426 10.1074-31.7871Q10.8398-29.9316 12.793-28.125L62.5488 18.5547Q64.7949 20.6055 66.7725 21.582Q68.75 22.5586 71.1426 22.5586ZM67.7246 8.69141Q67.1875 8.69141 66.5527 8.10547L22.2168-33.6426Q21.6797-34.1309 21.5088-34.5215Q21.3379-34.9121 21.3379-35.2539Q21.3379-35.6445 21.5332-36.0107Q21.7285-36.377 22.2168-36.8652L66.5039-79.0039Q66.7969-79.248 67.0898-79.3945Q67.3828-79.541 67.7246-79.541Q68.7012-79.541 68.7012-78.5645L68.7012-53.8086Q68.7012-51.7578 70.7031-51.7578L78.1738-51.7578Q93.3594-51.7578 104.053-47.2168Q114.746-42.6758 121.484-34.5459Q128.223-26.416 131.519-15.6982Q134.814-4.98047 135.107 7.37305Q135.107 8.10547 134.619 8.10547Q134.326 8.10547 134.204 7.88574Q134.082 7.66602 133.887 7.32422Q130.078-0.976562 122.607-6.7627Q115.137-12.5488 104.004-15.5518Q92.8711-18.5547 78.1738-18.5547L70.7031-18.5547Q68.7012-18.5547 68.7012-16.5527L68.7012 7.66602Q68.7012 8.69141 67.7246 8.69141Z"/>
  </g>
  <g id="Regular-L" transform="matrix(1 0 0 1 1370.69 1556)">
   <path d="M70.166 21.7285Q73.0957 21.7285 74.9268 19.8242Q76.7578 17.9199 76.7578 15.0391L76.7578-9.7168L78.8086-9.7168Q91.6504-9.7168 101.392-7.22656Q111.133-4.73633 118.359 1.19629Q125.586 7.12891 130.762 17.334Q132.227 20.1172 134.033 20.9229Q135.84 21.7285 137.744 21.7285Q140.039 21.7285 141.821 19.7754Q143.604 17.8223 143.604 14.209Q143.604-3.61328 139.624-17.5293Q135.645-31.4453 127.612-41.04Q119.58-50.6348 107.397-55.6152Q95.2148-60.5957 78.8086-60.5957L76.7578-60.5957L76.7578-85.2539Q76.7578-88.1836 74.9023-90.2344Q73.0469-92.2852 70.0684-92.2852Q67.9199-92.2852 66.2598-91.3086Q64.5996-90.332 62.4023-88.3301L12.793-41.9922Q10.8398-40.1367 10.1562-38.4766Q9.47266-36.8164 9.47266-35.2539Q9.47266-33.7891 10.1562-32.1045Q10.8398-30.4199 12.793-28.6133L62.4023 18.0664Q64.4043 19.9219 66.2109 20.8252Q68.0176 21.7285 70.166 21.7285ZM67.1875 10.3027Q66.6504 10.3027 65.9668 9.7168L20.0684-33.4961Q19.4824-34.0332 19.2871-34.4482Q19.0918-34.8633 19.0918-35.2539Q19.0918-35.6934 19.3115-36.084Q19.5312-36.4746 20.0684-37.0117L65.918-80.6641Q66.2109-80.9082 66.5039-81.0791Q66.7969-81.25 67.1875-81.25Q68.1152-81.25 68.1152-80.3223L68.1152-54.4434Q68.1152-52.4414 70.1172-52.4414L77.6855-52.4414Q93.4082-52.4414 104.395-47.6074Q115.381-42.7734 122.192-34.2285Q129.004-25.6836 132.3-14.5508Q135.596-3.41797 135.938 9.22852Q135.938 10.0098 135.4 10.0098Q135.107 10.0098 134.961 9.76562Q134.814 9.52148 134.619 9.13086Q130.811 0.683594 123.193-5.37109Q115.576-11.4258 104.175-14.6484Q92.7734-17.8711 77.6855-17.8711L70.1172-17.8711Q68.1152-17.8711 68.1152-15.8691L68.1152 9.32617Q68.1152 10.3027 67.1875 10.3027Z"/>
  </g>
  <g id="Light-L" transform="matrix(1 0 0 1 1075.13 1556)">
   <path d="M69.2871 20.7031Q71.875 20.7031 73.3887 19.0186Q74.9023 17.334 74.9023 14.8926L74.9023-10.791L77.2461-10.791Q90.918-10.791 101.123-8.1543Q111.328-5.51758 118.628 0.512695Q125.928 6.54297 130.713 16.6504Q131.934 19.0918 133.423 19.8975Q134.912 20.7031 136.621 20.7031Q138.672 20.7031 140.186 19.0186Q141.699 17.334 141.699 14.3555Q141.699-3.95508 137.476-17.7734Q133.252-31.5918 125.049-40.8447Q116.846-50.0977 104.834-54.7363Q92.8223-59.375 77.2461-59.375L74.9023-59.375L74.9023-85.2051Q74.9023-87.6953 73.3643-89.4531Q71.8262-91.2109 69.2383-91.2109Q67.3828-91.2109 65.9424-90.3809Q64.502-89.5508 62.793-87.9883L13.3301-41.8457Q11.1816-39.8438 10.498-38.2812Q9.81445-36.7188 9.81445-35.2539Q9.81445-33.8867 10.498-32.2998Q11.1816-30.7129 13.3301-28.7109L62.793 17.627Q64.4043 19.0918 65.9424 19.8975Q67.4805 20.7031 69.2871 20.7031ZM67.2852 12.1582Q66.6504 12.1582 65.8203 11.4746L18.5547-32.7637Q17.7246-33.5449 17.4316-34.1309Q17.1387-34.7168 17.1387-35.2539Q17.1387-35.8398 17.4561-36.4258Q17.7734-37.0117 18.5547-37.7441L65.7715-82.2754Q66.1133-82.5195 66.4551-82.7393Q66.7969-82.959 67.2363-82.959Q68.2617-82.959 68.2617-81.9336L68.2617-54.9316Q68.2617-53.0762 70.1172-53.0762L76.416-53.0762Q91.5527-53.0762 102.637-48.5352Q113.721-43.9941 120.996-35.498Q128.271-27.002 131.909-15.1855Q135.547-3.36914 135.791 11.2305Q135.791 12.1582 135.059 12.1582Q134.717 12.1582 134.521 11.8164Q134.326 11.4746 134.082 11.0352Q130.127 1.75781 122.437-4.49219Q114.746-10.7422 103.247-13.916Q91.748-17.0898 76.416-17.0898L70.1172-17.0898Q68.2617-17.0898 68.2617-15.2344L68.2617 11.0352Q68.2617 12.1582 67.2852 12.1582Z"/>
  </g>
  <g id="Thin-L" transform="matrix(1 0 0 1 779.933 1556)">
   <path d="M68.1641 19.2871Q70.2637 19.2871 71.3379 17.9443Q72.4121 16.6016 72.4121 14.6484L72.4121-12.207L75.1953-12.207Q89.8926-12.207 100.732-9.39941Q111.572-6.5918 118.994-0.439453Q126.416 5.71289 130.713 15.7227Q131.543 17.7246 132.593 18.5059Q133.643 19.2871 135.156 19.2871Q136.816 19.2871 137.988 18.0176Q139.16 16.748 139.16 14.502Q139.16-4.44336 134.619-18.0908Q130.078-31.7383 121.655-40.5273Q113.232-49.3164 101.44-53.54Q89.6484-57.7637 75.1953-57.7637L72.4121-57.7637L72.4121-85.1562Q72.4121-87.1094 71.3135-88.4766Q70.2148-89.8438 68.1641-89.8438Q66.748-89.8438 65.5762-89.1846Q64.4043-88.5254 63.3301-87.5L13.9648-41.6992Q11.5723-39.4531 10.9375-38.0127Q10.3027-36.5723 10.3027-35.2539Q10.3027-33.9844 10.9619-32.5439Q11.6211-31.1035 13.9648-28.8574L63.3301 16.9922Q64.3555 17.9688 65.5518 18.6279Q66.748 19.2871 68.1641 19.2871ZM67.3828 14.6484Q66.6992 14.6484 65.6738 13.7695L16.6016-31.7383Q15.3809-32.8613 14.9414-33.667Q14.502-34.4727 14.502-35.2539Q14.502-36.084 14.9658-36.8652Q15.4297-37.6465 16.6016-38.7695L65.625-84.375Q66.0156-84.668 66.3818-84.9609Q66.748-85.2539 67.2852-85.2539Q68.457-85.2539 68.457-84.082L68.457-55.5176Q68.457-53.9062 70.1172-53.9062L74.7559-53.9062Q89.0625-53.9062 100.317-49.7559Q111.572-45.6055 119.409-37.1826Q127.246-28.7598 131.396-16.04Q135.547-3.32031 135.547 13.916Q135.547 14.9902 134.668 14.9902Q134.18 14.9902 133.911 14.5508Q133.643 14.1113 133.447 13.5254Q129.248 3.22266 121.46-3.32031Q113.672-9.86328 102.051-12.9639Q90.4297-16.0645 74.7559-16.0645L70.1172-16.0645Q68.457-16.0645 68.457-14.4043L68.457 13.3301Q68.457 14.6484 67.3828 14.6484Z"/>
  </g>
  <g id="Ultralight-L" transform="matrix(1 0 0 1 484.003 1556)">
   <path d="M67.5781 18.6035Q69.4336 18.6035 70.2881 17.4072Q71.1426 16.2109 71.1426 14.5508L71.1426-12.9395L74.1211-12.9395Q89.4043-12.9395 100.562-10.0342Q111.719-7.12891 119.165-0.90332Q126.611 5.32227 130.664 15.2344Q131.348 17.041 132.178 17.8223Q133.008 18.6035 134.424 18.6035Q135.889 18.6035 136.865 17.5049Q137.842 16.4062 137.842 14.5996Q137.842-4.63867 133.154-18.2373Q128.467-31.8359 119.922-40.4053Q111.377-48.9746 99.707-52.9541Q88.0371-56.9336 74.1211-56.9336L71.1426-56.9336L71.1426-85.1074Q71.1426-86.7676 70.2881-87.9395Q69.4336-89.1113 67.627-89.1113Q66.3574-89.1113 65.332-88.5498Q64.3066-87.9883 63.5742-87.3047L14.3555-41.6016Q11.8164-39.209 11.1816-37.8418Q10.5469-36.4746 10.5469-35.2539Q10.5469-34.0332 11.1816-32.666Q11.8164-31.2988 14.3555-28.9551L63.5742 16.6992Q64.3555 17.4316 65.3809 18.0176Q66.4062 18.6035 67.5781 18.6035ZM67.4316 15.918Q66.6992 15.918 65.5762 14.9414L15.5762-31.25Q14.1602-32.5195 13.6719-33.4473Q13.1836-34.375 13.1836-35.2539Q13.1836-36.1816 13.7207-37.1094Q14.2578-38.0371 15.5762-39.2578L65.5273-85.4492Q65.918-85.791 66.333-86.1084Q66.748-86.4258 67.334-86.4258Q68.5547-86.4258 68.5547-85.2051L68.5547-55.8594Q68.5547-54.2969 70.1172-54.2969L73.9258-54.2969Q87.793-54.2969 99.1211-50.3418Q110.449-46.3867 118.604-38.0371Q126.758-29.6875 131.128-16.4795Q135.498-3.27148 135.449 15.2832Q135.449 16.4062 134.424 16.4062Q133.936 16.4062 133.618 15.918Q133.301 15.4297 133.057 14.7949Q128.809 3.95508 120.972-2.70996Q113.135-9.375 101.44-12.4756Q89.7461-15.5762 73.9258-15.5762L70.1172-15.5762Q68.5547-15.5762 68.5547-14.0137L68.5547 14.502Q68.5547 15.918 67.4316 15.918Z"/>
  </g>
  <g id="Black-M" transform="matrix(1 0 0 1 2870 1126)">
   <path d="M59.3262 13.0859Q63.6719 13.0859 66.626 10.1318Q69.5801 7.17773 69.5801 2.88086L69.5801-9.96094L69.9219-9.96094Q76.709-9.96094 81.3477-7.88574Q85.9863-5.81055 89.0869-2.49023Q92.1875 0.830078 94.2871 4.54102Q96.4844 8.49609 98.9014 10.2295Q101.318 11.9629 104.736 11.9629Q109.766 11.9629 112.354 6.78711Q114.941 1.61133 114.941-8.88672Q114.941-21.1426 111.89-30.6641Q108.838-40.1855 103.003-46.7285Q97.168-53.2715 88.8184-56.6406Q80.4688-60.0098 69.9219-60.0098L69.5801-60.0098L69.5801-73.2422Q69.5801-77.5879 66.626-80.542Q63.6719-83.4961 59.3262-83.4961Q56.7383-83.4961 54.4678-82.4463Q52.1973-81.3965 49.3652-78.8086L10.0586-42.7734Q8.49609-41.3086 7.66602-39.2822Q6.83594-37.2559 6.83594-35.2051Q6.83594-33.3008 7.71484-31.1768Q8.59375-29.0527 10.1562-27.5879L49.3652 8.44727Q51.9531 10.8887 54.2725 11.9873Q56.5918 13.0859 59.3262 13.0859ZM55.0781-8.05664Q54.6875-8.05664 54.2969-8.44727L26.709-34.375Q26.416-34.6191 26.3184-34.8145Q26.2207-35.0098 26.2207-35.2051Q26.2207-35.5469 26.709-36.0352L54.2969-62.0117Q54.4922-62.1582 54.6875-62.207Q54.8828-62.2559 55.0781-62.2559Q55.957-62.2559 55.957-61.3281L55.957-46.6797Q55.957-45.166 57.4707-45.166L62.5-45.166Q69.5801-45.166 75.5371-43.8232Q81.4941-42.4805 86.1572-39.7461Q90.8203-37.0117 94.0918-32.8125Q97.3633-28.6133 99.0967-22.9736Q100.83-17.334 100.83-10.1562Q100.83-9.76562 100.537-9.76562Q100.391-9.76562 100.293-9.86328Q100.195-9.96094 100.098-10.1562Q97.1191-16.1133 91.9678-19.3848Q86.8164-22.6562 79.4922-23.9502Q72.168-25.2441 62.5-25.2441L57.4707-25.2441Q55.957-25.2441 55.957-23.7305L55.957-9.08203Q55.957-8.05664 55.0781-8.05664Z"/>
  </g>
  <g id="Heavy-M" transform="matrix(1 0 0 1 2573.63 1126)">
   <path d="M58.252 12.2559Q62.1582 12.2559 64.7949 9.61914Q67.4316 6.98242 67.4316 3.07617L67.4316-11.1328L68.0664-11.1328Q75.4883-11.1328 80.7373-9.10645Q85.9863-7.08008 89.6729-3.4668Q93.3594 0.146484 95.9473 4.88281Q97.9492 8.44727 100.171 9.91211Q102.393 11.377 105.371 11.377Q109.668 11.377 112.012 7.03125Q114.355 2.68555 114.355-6.10352Q114.355-18.6523 111.328-28.4668Q108.301-38.2812 102.393-45.0928Q96.4844-51.9043 87.8418-55.4443Q79.1992-58.9844 68.0664-58.9844L67.4316-58.9844L67.4316-73.4375Q67.4316-77.3438 64.7949-80.0049Q62.1582-82.666 58.252-82.666Q55.8594-82.666 53.7842-81.6895Q51.709-80.7129 49.0723-78.2715L9.96094-42.2363Q8.44727-40.8203 7.66602-38.9404Q6.88477-37.0605 6.88477-35.2051Q6.88477-33.4961 7.69043-31.543Q8.49609-29.5898 10.0098-28.1738L49.0723 7.95898Q51.4648 10.2051 53.6133 11.2305Q55.7617 12.2559 58.252 12.2559ZM54.3457-6.39648Q53.9551-6.39648 53.5645-6.78711L24.2676-34.375Q23.9746-34.6191 23.877-34.8145Q23.7793-35.0098 23.7793-35.2051Q23.7793-35.5957 24.2676-36.084L53.5645-63.7695Q53.7598-63.916 53.9551-63.9893Q54.1504-64.0625 54.3457-64.0625Q55.1758-64.0625 55.1758-63.1836L55.1758-47.4121Q55.1758-45.8984 56.7383-45.8984L62.1094-45.8984Q69.9219-45.8984 76.1963-44.2627Q82.4707-42.627 87.2314-39.4775Q91.9922-36.3281 95.2393-31.7139Q98.4863-27.0996 100.171-21.2158Q101.855-15.332 101.904-8.20312Q101.904-7.8125 101.611-7.8125Q101.465-7.8125 101.367-7.91016Q101.27-8.00781 101.172-8.20312Q98.1934-14.209 92.8955-17.7979Q87.5977-21.3867 79.9316-22.9492Q72.2656-24.5117 62.1094-24.5117L56.7383-24.5117Q55.1758-24.5117 55.1758-22.998L55.1758-7.32422Q55.1758-6.39648 54.3457-6.39648Z"/>
  </g>
  <g id="Bold-M" transform="matrix(1 0 0 1 2277.28 1126)">
   <path d="M57.0801 11.3281Q60.498 11.3281 62.793 9.0332Q65.0879 6.73828 65.0879 3.36914L65.0879-12.4023L65.9668-12.4023Q74.0723-12.4023 80.0293-10.4492Q85.9863-8.49609 90.332-4.56543Q94.6777-0.634766 97.8516 5.22461Q99.5605 8.39844 101.562 9.57031Q103.564 10.7422 106.055 10.7422Q109.57 10.7422 111.621 7.32422Q113.672 3.90625 113.672-2.97852Q113.672-15.8691 110.669-26.0254Q107.666-36.1816 101.685-43.2861Q95.7031-50.3906 86.7676-54.1016Q77.832-57.8125 65.9668-57.8125L65.0879-57.8125L65.0879-73.6816Q65.0879-77.0508 62.793-79.4189Q60.498-81.7871 57.0312-81.7871Q54.834-81.7871 53.0029-80.8594Q51.1719-79.9316 48.7793-77.6855L9.86328-41.6504Q8.34961-40.2832 7.66602-38.5742Q6.98242-36.8652 6.98242-35.2539Q6.98242-33.6914 7.69043-31.958Q8.39844-30.2246 9.91211-28.8086L48.7793 7.42188Q50.9277 9.47266 52.8809 10.4004Q54.834 11.3281 57.0801 11.3281ZM53.5645-4.54102Q53.1738-4.54102 52.7832-4.93164L21.582-34.375Q21.2891-34.6191 21.167-34.8389Q21.0449-35.0586 21.0449-35.2539Q21.0449-35.6445 21.582-36.1328L52.7344-65.7715Q52.9297-65.918 53.125-66.0156Q53.3203-66.1133 53.5645-66.1133Q54.3457-66.1133 54.3457-65.2832L54.3457-48.291Q54.3457-46.7285 55.9082-46.7285L61.7188-46.7285Q70.2637-46.7285 76.9287-44.7754Q83.5938-42.8223 88.4766-39.1846Q93.3594-35.5469 96.5576-30.4932Q99.7559-25.4395 101.392-19.2627Q103.027-13.0859 103.174-6.05469Q103.174-5.61523 102.832-5.61523Q102.686-5.61523 102.588-5.71289Q102.49-5.81055 102.393-6.05469Q99.4629-12.0605 93.9453-15.9912Q88.4277-19.9219 80.3955-21.8262Q72.3633-23.7305 61.7188-23.7305L55.9082-23.7305Q54.3457-23.7305 54.3457-22.168L54.3457-5.41992Q54.3457-4.54102 53.5645-4.54102Z"/>
  </g>
  <g id="Semibold-M" transform="matrix(1 0 0 1 1980.84 1126)">
   <path d="M56.25 10.6445Q59.3262 10.6445 61.377 8.61816Q63.4277 6.5918 63.4277 3.51562L63.4277-13.2812L64.502-13.2812Q73.0957-13.2812 79.541-11.3525Q85.9863-9.42383 90.7715-5.29785Q95.5566-1.17188 99.1211 5.46875Q100.684 8.34961 102.539 9.32617Q104.395 10.3027 106.543 10.3027Q109.473 10.3027 111.353 7.49512Q113.232 4.6875 113.232-0.78125Q113.232-13.916 110.229-24.3164Q107.227-34.7168 101.196-42.041Q95.166-49.3652 86.0107-53.1982Q76.8555-57.0312 64.502-57.0312L63.4277-57.0312L63.4277-73.8281Q63.4277-76.8555 61.377-79.0039Q59.3262-81.1523 56.2012-81.1523Q54.1504-81.1523 52.4658-80.249Q50.7812-79.3457 48.5352-77.2949L9.76562-41.2598Q8.30078-39.8926 7.66602-38.3057Q7.03125-36.7188 7.03125-35.2539Q7.03125-33.8379 7.69043-32.2266Q8.34961-30.6152 9.76562-29.248L48.5352 7.03125Q50.5371 8.93555 52.3438 9.79004Q54.1504 10.6445 56.25 10.6445ZM53.0273-3.22266Q52.5879-3.22266 52.1973-3.66211L19.6777-34.3262Q19.3848-34.6191 19.2627-34.8389Q19.1406-35.0586 19.1406-35.2539Q19.1406-35.6445 19.6777-36.1328L52.1484-67.1387Q52.3438-67.2852 52.5391-67.3828Q52.7344-67.4805 52.9785-67.4805Q53.7109-67.4805 53.7109-66.6992L53.7109-48.8281Q53.7109-47.2656 55.3223-47.2656L61.377-47.2656Q70.5078-47.2656 77.4414-45.0928Q84.375-42.9199 89.3066-38.9648Q94.2383-35.0098 97.4121-29.6387Q100.586-24.2676 102.197-17.8955Q103.809-11.5234 104.004-4.54102Q104.004-4.05273 103.613-4.05273Q103.467-4.05273 103.369-4.1748Q103.271-4.29688 103.174-4.54102Q100.293-10.5957 94.6533-14.7705Q89.0137-18.9453 80.7129-21.0693Q72.4121-23.1934 61.377-23.1934L55.3223-23.1934Q53.7109-23.1934 53.7109-21.582L53.7109-4.05273Q53.7109-3.22266 53.0273-3.22266Z"/>
  </g>
  <g id="Medium-M" transform="matrix(1 0 0 1 1684.32 1126)">
   <path d="M55.6641 10.1562Q58.4473 10.1562 60.3027 8.30078Q62.1582 6.44531 62.1582 3.66211L62.1582-13.9648L63.3789-13.9648Q72.3633-13.9648 79.1748-12.0605Q85.9863-10.1562 91.1133-5.85938Q96.2402-1.5625 100.098 5.66406Q101.514 8.30078 103.247 9.13086Q104.98 9.96094 106.885 9.96094Q109.424 9.96094 111.133 7.6416Q112.842 5.32227 112.842 0.830078Q112.842-12.4512 109.888-23.0469Q106.934-33.6426 100.854-41.0889Q94.7754-48.5352 85.4492-52.4658Q76.123-56.3965 63.3789-56.3965L62.1582-56.3965L62.1582-73.9258Q62.1582-76.709 60.3027-78.6865Q58.4473-80.6641 55.5664-80.6641Q53.6133-80.6641 52.0508-79.8096Q50.4883-78.9551 48.3398-76.9531L9.7168-40.918Q8.25195-39.5996 7.66602-38.1104Q7.08008-36.6211 7.08008-35.2539Q7.08008-33.9355 7.66602-32.4463Q8.25195-30.957 9.7168-29.5898L48.3398 6.73828Q50.293 8.54492 51.9775 9.35059Q53.6621 10.1562 55.6641 10.1562ZM52.5879-2.24609Q52.1484-2.24609 51.7578-2.68555L18.2617-34.3262Q17.9688-34.6191 17.8467-34.8389Q17.7246-35.0586 17.7246-35.2539Q17.7246-35.6445 18.2617-36.1328L51.7578-68.1641Q51.9531-68.3105 52.1484-68.4326Q52.3438-68.5547 52.5391-68.5547Q53.2715-68.5547 53.2715-67.8223L53.2715-49.2676Q53.2715-47.7051 54.9316-47.7051L61.1816-47.7051Q70.7031-47.7051 77.832-45.3613Q84.9609-43.0176 89.9414-38.8184Q94.9219-34.6191 98.0957-29.0039Q101.27-23.3887 102.832-16.8701Q104.395-10.3516 104.639-3.41797Q104.639-2.92969 104.248-2.92969Q104.102-2.92969 104.004-3.05176Q103.906-3.17383 103.809-3.36914Q100.928-9.47266 95.1904-13.8184Q89.4531-18.1641 80.957-20.459Q72.4609-22.7539 61.1816-22.7539L54.9316-22.7539Q53.2715-22.7539 53.2715-21.1914L53.2715-3.02734Q53.2715-2.24609 52.5879-2.24609Z"/>
  </g>
  <g id="Regular-M" transform="matrix(1 0 0 1 1387.86 1126)">
   <path d="M54.834 9.52148Q57.3242 9.52148 58.9355 7.91016Q60.5469 6.29883 60.5469 3.80859L60.5469-14.8438L61.9629-14.8438Q71.4355-14.8438 78.7109-12.9883Q85.9863-11.1328 91.5527-6.61621Q97.1191-2.09961 101.367 5.9082Q102.637 8.25195 104.224 8.88672Q105.811 9.52148 107.373 9.52148Q109.326 9.52148 110.864 7.83691Q112.402 6.15234 112.402 2.97852Q112.402-10.5469 109.448-21.3623Q106.494-32.1777 100.366-39.8438Q94.2383-47.5098 84.6924-51.5625Q75.1465-55.6152 61.9629-55.6152L60.5469-55.6152L60.5469-74.0723Q60.5469-76.5137 58.9355-78.2715Q57.3242-80.0293 54.7363-80.0293Q52.9297-80.0293 51.5137-79.2236Q50.0977-78.418 48.1445-76.5625L9.61914-40.5273Q8.20312-39.209 7.66602-37.8418Q7.12891-36.4746 7.12891-35.2539Q7.12891-34.082 7.66602-32.7148Q8.20312-31.3477 9.61914-30.0293L48.1445 6.34766Q49.9023 8.00781 51.4648 8.76465Q53.0273 9.52148 54.834 9.52148ZM52.0508-0.976562Q51.6113-0.976562 51.2207-1.41602L16.4062-34.3262Q16.1133-34.6191 15.9912-34.8389Q15.8691-35.0586 15.8691-35.2539Q15.8691-35.6934 16.4062-36.1816L51.1719-69.5312Q51.3672-69.6777 51.5625-69.7998Q51.7578-69.9219 52.002-69.9219Q52.6855-69.9219 52.6855-69.2383L52.6855-49.8535Q52.6855-48.2422 54.3457-48.2422L60.8887-48.2422Q70.9473-48.2422 78.3203-45.6787Q85.6934-43.1152 90.7715-38.5986Q95.8496-34.082 98.9746-28.1738Q102.1-22.2656 103.638-15.5518Q105.176-8.83789 105.469-1.95312Q105.469-1.41602 105.078-1.41602Q104.932-1.41602 104.834-1.53809Q104.736-1.66016 104.639-1.9043Q101.758-8.00781 95.8984-12.5977Q90.0391-17.1875 81.2744-19.7021Q72.5098-22.2168 60.8887-22.2168L54.3457-22.2168Q52.6855-22.2168 52.6855-20.6055L52.6855-1.70898Q52.6855-0.976562 52.0508-0.976562Z"/>
  </g>
  <g id="Light-M" transform="matrix(1 0 0 1 1092.17 1126)">
   <path d="M54.1016 8.59375Q56.25 8.59375 57.5684 7.17773Q58.8867 5.76172 58.8867 3.66211L58.8867-15.8203L60.5469-15.8203Q70.752-15.8203 78.4668-13.8428Q86.1816-11.8652 91.8213-7.25098Q97.4609-2.63672 101.318 5.27344Q102.393 7.32422 103.687 7.95898Q104.98 8.59375 106.396 8.59375Q108.105 8.59375 109.399 7.15332Q110.693 5.71289 110.693 3.125Q110.693-10.8398 107.52-21.582Q104.346-32.3242 98.0713-39.6484Q91.7969-46.9727 82.3975-50.7324Q72.998-54.4922 60.5469-54.4922L58.8867-54.4922L58.8867-74.0234Q58.8867-76.123 57.5684-77.6123Q56.25-79.1016 54.0039-79.1016Q52.4902-79.1016 51.2451-78.3936Q50-77.6855 48.4863-76.2207L10.0586-40.4297Q8.49609-38.916 7.9834-37.6465Q7.4707-36.377 7.4707-35.2539Q7.4707-34.1309 7.9834-32.8613Q8.49609-31.5918 10.0586-30.127L48.4863 5.95703Q49.9023 7.27539 51.2207 7.93457Q52.5391 8.59375 54.1016 8.59375ZM52.0996 0.683594Q51.6602 0.683594 51.123 0.146484L15.0879-33.6426Q14.502-34.1797 14.3066-34.5459Q14.1113-34.9121 14.1113-35.2539Q14.1113-35.9863 15.0879-36.8652L51.0742-70.9473Q51.2695-71.1426 51.5137-71.3135Q51.7578-71.4844 52.0508-71.4844Q52.832-71.4844 52.832-70.7031L52.832-50.293Q52.832-48.7793 54.3457-48.7793L59.7656-48.7793Q69.3848-48.7793 76.7578-46.4111Q84.1309-44.043 89.4531-39.6729Q94.7754-35.3027 98.2178-29.248Q101.66-23.1934 103.394-15.8203Q105.127-8.44727 105.322-0.146484Q105.322 0.488281 104.785 0.488281Q104.59 0.488281 104.443 0.292969Q104.297 0.0976562 104.15-0.195312Q101.172-7.03125 95.2393-11.8164Q89.3066-16.6016 80.4443-19.0674Q71.582-21.5332 59.7656-21.5332L54.3457-21.5332Q52.832-21.5332 52.832-20.0195L52.832-0.146484Q52.832 0.683594 52.0996 0.683594Z"/>
  </g>
  <g id="Thin-M" transform="matrix(1 0 0 1 796.827 1126)">
   <path d="M53.0762 7.32422Q54.7852 7.32422 55.7129 6.22559Q56.6406 5.12695 56.6406 3.4668L56.6406-17.0898L58.6914-17.0898Q69.873-17.0898 78.1494-14.9414Q86.4258-12.793 92.1387-8.05664Q97.8516-3.32031 101.318 4.44336Q102.051 6.10352 102.954 6.71387Q103.857 7.32422 105.078 7.32422Q106.445 7.32422 107.422 6.25Q108.398 5.17578 108.398 3.27148Q108.398-11.2305 104.956-21.8506Q101.514-32.4707 95.0195-39.4043Q88.5254-46.3379 79.3457-49.6826Q70.166-53.0273 58.6914-53.0273L56.6406-53.0273L56.6406-73.9258Q56.6406-75.5859 55.7129-76.709Q54.7852-77.832 53.0273-77.832Q51.8555-77.832 50.8789-77.2949Q49.9023-76.7578 48.9746-75.8301L10.6934-40.2344Q8.88672-38.5742 8.39844-37.4268Q7.91016-36.2793 7.91016-35.2539Q7.91016-34.2285 8.39844-33.0811Q8.88672-31.9336 10.6934-30.2734L48.9746 5.41992Q49.8535 6.25 50.8545 6.78711Q51.8555 7.32422 53.0762 7.32422ZM52.1973 2.88086Q51.6602 2.88086 50.9277 2.19727L13.3301-32.7637Q12.4023-33.5449 12.085-34.1309Q11.7676-34.7168 11.7676-35.2539Q11.7676-36.377 13.3301-37.7441L50.8789-72.8516Q51.1719-73.0957 51.4648-73.291Q51.7578-73.4863 52.1484-73.4863Q52.9785-73.4863 52.9785-72.6074L52.9785-50.8301Q52.9785-49.5117 54.3457-49.5117L58.3008-49.5117Q67.2852-49.5117 74.6582-47.4121Q82.0312-45.3125 87.6709-41.1133Q93.3105-36.9141 97.168-30.6641Q101.025-24.4141 103.027-16.1865Q105.029-7.95898 105.127 2.24609Q105.127 3.02734 104.443 3.02734Q104.102 3.02734 103.906 2.73438Q103.711 2.44141 103.564 2.05078Q100.391-5.71289 94.3604-10.7422Q88.3301-15.7715 79.3457-18.1885Q70.3613-20.6055 58.3008-20.6055L54.3457-20.6055Q52.9785-20.6055 52.9785-19.2871L52.9785 1.9043Q52.9785 2.88086 52.1973 2.88086Z"/>
  </g>
  <g id="Ultralight-M" transform="matrix(1 0 0 1 500.8 1126)">
   <path d="M52.5879 6.68945Q54.0527 6.68945 54.7852 5.71289Q55.5176 4.73633 55.5176 3.36914L55.5176-17.7734L57.7637-17.7734Q69.4336-17.7734 77.9785-15.5273Q86.5234-13.2812 92.3096-8.49609Q98.0957-3.71094 101.27 4.05273Q101.855 5.46875 102.563 6.0791Q103.271 6.68945 104.443 6.68945Q105.615 6.68945 106.421 5.78613Q107.227 4.88281 107.227 3.36914Q107.227-11.4746 103.638-22.0215Q100.049-32.5684 93.457-39.2578Q86.8652-45.9473 77.8076-49.0967Q68.75-52.2461 57.7637-52.2461L55.5176-52.2461L55.5176-73.877Q55.5176-75.293 54.7852-76.2451Q54.0527-77.1973 52.5391-77.1973Q51.5625-77.1973 50.708-76.7334Q49.8535-76.2695 49.1699-75.5859L10.9863-40.1855Q9.08203-38.3789 8.59375-37.3047Q8.10547-36.2305 8.10547-35.2539Q8.10547-34.2773 8.61816-33.2031Q9.13086-32.1289 10.9863-30.3711L49.1699 5.12695Q49.8535 5.76172 50.6836 6.22559Q51.5137 6.68945 52.5879 6.68945ZM52.2461 4.00391Q51.709 4.00391 50.8789 3.27148L12.4023-32.2754Q11.3281-33.252 10.9619-33.9355Q10.5957-34.6191 10.5957-35.2539Q10.5957-36.5723 12.4023-38.2324L50.8301-73.7793Q51.0742-74.0723 51.416-74.3164Q51.7578-74.5605 52.1973-74.5605Q53.0762-74.5605 53.0762-73.584L53.0762-51.123Q53.0762-49.8535 54.3457-49.8535L57.5195-49.8535Q66.2109-49.8535 73.584-47.9004Q80.957-45.9473 86.7676-41.8213Q92.5781-37.6953 96.6553-31.3721Q100.732-25.0488 102.856-16.3818Q104.98-7.71484 105.029 3.51562Q105.029 4.3457 104.248 4.3457Q103.906 4.3457 103.662 4.00391Q103.418 3.66211 103.223 3.17383Q100-5.07812 93.9209-10.2295Q87.8418-15.3809 78.7842-17.749Q69.7266-20.1172 57.5195-20.1172L54.3457-20.1172Q53.0762-20.1172 53.0762-18.8965L53.0762 2.97852Q53.0762 4.00391 52.2461 4.00391Z"/>
  </g>
  <g id="Black-S" transform="matrix(1 0 0 1 2883.69 696)">
   <path d="M46.7773 2.83203Q50.293 2.83203 52.6855 0.439453Q55.0781-1.95312 55.0781-5.46875L55.0781-15.1367L55.2734-15.1367Q60.4492-15.1367 63.916-13.4766Q67.3828-11.8164 69.6289-9.30176Q71.875-6.78711 73.3398-4.19922Q75.1465-1.02539 77.0752 0.415039Q79.0039 1.85547 81.7871 1.85547Q85.9863 1.85547 88.0615-2.44141Q90.1367-6.73828 90.1367-15.4297Q90.1367-28.1738 85.8887-36.9873Q81.6406-45.8008 73.8281-50.3418Q66.0156-54.8828 55.2734-54.8828L55.0781-54.8828L55.0781-64.9414Q55.0781-68.457 52.6855-70.8496Q50.293-73.2422 46.7773-73.2422Q44.6777-73.2422 42.8711-72.4121Q41.0645-71.582 38.7695-69.5312L7.95898-41.3086Q6.73828-40.1367 6.05469-38.501Q5.37109-36.8652 5.37109-35.2051Q5.37109-33.6914 6.0791-31.958Q6.78711-30.2246 8.00781-29.0527L38.7695-0.878906Q40.8691 1.07422 42.7002 1.95312Q44.5312 2.83203 46.7773 2.83203ZM43.3594-14.3555Q43.0664-14.3555 42.7734-14.6484L21.582-34.5215Q21.3867-34.7656 21.2891-34.9121Q21.1914-35.0586 21.1914-35.2051Q21.1914-35.498 21.582-35.8887L42.7734-55.7617Q42.9199-55.8594 43.0664-55.9082Q43.2129-55.957 43.3594-55.957Q44.0918-55.957 44.0918-55.1758L44.0918-43.9941Q44.0918-42.8223 45.2637-42.8223L49.0234-42.8223Q54.3457-42.8223 58.8867-41.8701Q63.4277-40.918 67.0898-38.8916Q70.752-36.8652 73.3398-33.7158Q75.9277-30.5664 77.2949-26.1719Q78.6621-21.7773 78.6621-16.0645Q78.6621-15.7715 78.418-15.7715Q78.2227-15.7715 78.0762-16.0645Q74.5117-23.1445 67.334-25.3662Q60.1562-27.5879 49.0234-27.5879L45.2637-27.5879Q44.0918-27.5879 44.0918-26.416L44.0918-15.1855Q44.0918-14.3555 43.3594-14.3555Z"/>
  </g>
  <g id="Heavy-S" transform="matrix(1 0 0 1 2587.13 696)">
   <path d="M45.9473 2.24609Q49.1699 2.24609 51.3184 0.0976562Q53.4668-2.05078 53.4668-5.27344L53.4668-16.0156L53.8574-16.0156Q59.4727-16.0156 63.4277-14.4043Q67.3828-12.793 70.1172-10.0586Q72.8516-7.32422 74.8047-3.85742Q76.416-0.976562 78.2227 0.244141Q80.0293 1.46484 82.4707 1.46484Q86.0352 1.46484 87.9395-2.14844Q89.8438-5.76172 89.8438-13.0371Q89.8438-26.0742 85.6445-35.2539Q81.4453-44.4336 73.4375-49.292Q65.4297-54.1504 53.8574-54.1504L53.4668-54.1504L53.4668-65.1367Q53.4668-68.3105 51.2939-70.4834Q49.1211-72.6562 45.9473-72.6562Q43.9941-72.6562 42.334-71.8506Q40.6738-71.0449 38.4766-69.1406L7.8125-40.8691Q6.64062-39.7461 6.00586-38.2324Q5.37109-36.7188 5.37109-35.2051Q5.37109-33.8379 6.03027-32.251Q6.68945-30.6641 7.8125-29.541L38.4766-1.26953Q40.4785 0.585938 42.1875 1.41602Q43.8965 2.24609 45.9473 2.24609ZM42.7246-13.1348Q42.4316-13.1348 42.1387-13.4277L19.6777-34.6191Q19.4824-34.8145 19.4092-34.9365Q19.3359-35.0586 19.3359-35.2051Q19.3359-35.498 19.6777-35.8398L42.1387-57.0801Q42.2852-57.1777 42.4316-57.251Q42.5781-57.3242 42.7246-57.3242Q43.4082-57.3242 43.4082-56.5918L43.4082-44.5801Q43.4082-43.3594 44.6289-43.3594L48.8281-43.3594Q54.834-43.3594 59.668-42.1387Q64.502-40.918 68.2129-38.5254Q71.9238-36.1328 74.4385-32.6416Q76.9531-29.1504 78.2471-24.6338Q79.541-20.1172 79.6387-14.6484Q79.6387-14.3066 79.3945-14.3066Q79.1992-14.3066 79.0527-14.5996Q75.5371-21.582 68.042-24.3164Q60.5469-27.0508 48.8281-27.0508L44.6289-27.0508Q43.4082-27.0508 43.4082-25.8301L43.4082-13.916Q43.4082-13.1348 42.7246-13.1348Z"/>
  </g>
  <g id="Bold-S" transform="matrix(1 0 0 1 2290.59 696)">
   <path d="M45.0684 1.5625Q47.9004 1.5625 49.8047-0.317383Q51.709-2.19727 51.709-5.0293L51.709-16.9922L52.2949-16.9922Q58.3984-16.9922 62.8662-15.4541Q67.334-13.916 70.6299-10.9131Q73.9258-7.91016 76.416-3.4668Q77.832-0.878906 79.4922 0.0976562Q81.1523 1.07422 83.2031 1.07422Q86.1328 1.07422 87.8418-1.80664Q89.5508-4.6875 89.5508-10.4004Q89.5508-23.6816 85.4248-33.3252Q81.2988-42.9688 73.0225-48.1445Q64.7461-53.3203 52.2949-53.3203L51.709-53.3203L51.709-65.332Q51.709-68.1152 49.7803-70.0684Q47.8516-72.0215 45.0195-72.0215Q43.2129-72.0215 41.6992-71.2646Q40.1855-70.5078 38.1836-68.6523L7.61719-40.3809Q6.54297-39.3066 5.98145-37.9395Q5.41992-36.5723 5.41992-35.2539Q5.41992-33.9844 5.98145-32.5684Q6.54297-31.1523 7.66602-30.0781L38.1836-1.66016Q39.9902 0.0488281 41.5771 0.805664Q43.1641 1.5625 45.0684 1.5625ZM42.041-11.8164Q41.748-11.8164 41.5039-12.0605L17.5781-34.7168Q17.3828-34.8633 17.3096-34.9854Q17.2363-35.1074 17.2363-35.2539Q17.2363-35.498 17.5781-35.791L41.5039-58.5938Q41.6016-58.6914 41.748-58.7646Q41.8945-58.8379 42.041-58.8379Q42.6758-58.8379 42.6758-58.2031L42.6758-45.2637Q42.6758-43.9941 43.9453-43.9941L48.6328-43.9941Q55.3711-43.9941 60.5225-42.4805Q65.6738-40.9668 69.4336-38.1348Q73.1934-35.3027 75.6348-31.4697Q78.0762-27.6367 79.3213-22.9492Q80.5664-18.2617 80.7129-13.0371Q80.7129-12.7441 80.4688-12.7441Q80.2734-12.7441 80.1758-13.0371Q76.709-19.873 68.8232-23.1934Q60.9375-26.5137 48.6328-26.5137L43.9453-26.5137Q42.6758-26.5137 42.6758-25.2441L42.6758-12.4512Q42.6758-11.8164 42.041-11.8164Z"/>
  </g>
  <g id="Semibold-S" transform="matrix(1 0 0 1 1994 696)">
   <path d="M44.4336 1.12305Q46.9727 1.12305 48.7061-0.585938Q50.4395-2.29492 50.4395-4.83398L50.4395-17.627L51.1719-17.627Q57.6172-17.627 62.4756-16.1621Q67.334-14.6973 70.9961-11.499Q74.6582-8.30078 77.4902-3.17383Q78.8086-0.830078 80.3711-0.0244141Q81.9336 0.78125 83.7402 0.78125Q86.1816 0.78125 87.7441-1.58691Q89.3066-3.95508 89.3066-8.59375Q89.3066-22.0703 85.2295-31.9824Q81.1523-41.8945 72.7295-47.3145Q64.3066-52.7344 51.1719-52.7344L50.4395-52.7344L50.4395-65.4297Q50.4395-67.9688 48.7061-69.7754Q46.9727-71.582 44.3848-71.582Q42.627-71.582 41.2354-70.8252Q39.8438-70.0684 37.9395-68.3105L7.4707-40.0391Q6.44531-39.0137 5.93262-37.7441Q5.41992-36.4746 5.41992-35.2539Q5.41992-34.082 5.93262-32.7881Q6.44531-31.4941 7.51953-30.4688L37.9395-1.95312Q39.6484-0.341797 41.1621 0.390625Q42.6758 1.12305 44.4336 1.12305ZM41.5527-10.8398Q41.2598-10.8398 41.0156-11.1328L16.0645-34.7656Q15.918-34.9121 15.8691-35.0098Q15.8203-35.1074 15.8203-35.2539Q15.8203-35.4492 16.0645-35.7422L41.0156-59.6191Q41.1133-59.7168 41.2598-59.79Q41.4062-59.8633 41.5527-59.8633Q42.1387-59.8633 42.1387-59.2773L42.1387-45.7031Q42.1387-44.4336 43.4082-44.4336L48.4863-44.4336Q55.7129-44.4336 61.1084-42.7002Q66.5039-40.9668 70.2881-37.8418Q74.0723-34.7168 76.4648-30.6152Q78.8574-26.5137 80.0537-21.7529Q81.25-16.9922 81.4453-11.9141Q81.4453-11.6211 81.2012-11.6211Q81.0059-11.6211 80.9082-11.9141Q77.4902-18.7012 69.3604-22.3877Q61.2305-26.0742 48.4863-26.0742L43.4082-26.0742Q42.1387-26.0742 42.1387-24.8047L42.1387-11.4746Q42.1387-10.8398 41.5527-10.8398Z"/>
  </g>
  <g id="Medium-S" transform="matrix(1 0 0 1 1697.39 696)">
   <path d="M43.9941 0.732422Q46.3379 0.732422 47.9248-0.805664Q49.5117-2.34375 49.5117-4.6875L49.5117-18.1641L50.3418-18.1641Q57.0312-18.1641 62.1582-16.7236Q67.2852-15.2832 71.2402-11.9385Q75.1953-8.59375 78.3691-2.97852Q79.541-0.78125 81.0303-0.0976562Q82.5195 0.585938 84.1309 0.585938Q86.2305 0.585938 87.6709-1.3916Q89.1113-3.36914 89.1113-7.17773Q89.1113-20.8008 85.083-30.957Q81.0547-41.1133 72.4854-46.7041Q63.916-52.2949 50.3418-52.2949L49.5117-52.2949L49.5117-65.5273Q49.5117-67.9199 47.9004-69.5801Q46.2891-71.2402 43.8965-71.2402Q42.2363-71.2402 40.918-70.5078Q39.5996-69.7754 37.7441-68.0664L7.42188-39.7949Q6.39648-38.7695 5.9082-37.5732Q5.41992-36.377 5.41992-35.2539Q5.41992-34.1797 5.9082-32.959Q6.39648-31.7383 7.42188-30.7129L37.7441-2.14844Q39.4043-0.634766 40.8447 0.0488281Q42.2852 0.732422 43.9941 0.732422ZM41.2109-10.1562Q40.918-10.1562 40.6738-10.4004L14.9902-34.8145Q14.8438-34.9121 14.7705-35.0342Q14.6973-35.1562 14.6973-35.2539Q14.6973-35.4492 14.9902-35.6934L40.6738-60.4004Q40.7715-60.498 40.918-60.5713Q41.0645-60.6445 41.2109-60.6445Q41.748-60.6445 41.748-60.1074L41.748-46.0449Q41.748-44.7266 43.0664-44.7266L48.3887-44.7266Q56.0059-44.7266 61.5479-42.8467Q67.0898-40.9668 70.9229-37.6465Q74.7559-34.3262 77.0996-30.0293Q79.4434-25.7324 80.5908-20.874Q81.7383-16.0156 81.9824-11.084Q81.9824-10.7422 81.7383-10.7422Q81.5918-10.7422 81.4941-11.0352Q78.125-17.7734 69.7754-21.7773Q61.4258-25.7812 48.3887-25.7812L43.0664-25.7812Q41.748-25.7812 41.748-24.4629L41.748-10.6934Q41.748-10.1562 41.2109-10.1562Z"/>
  </g>
  <g id="Regular-S" transform="matrix(1 0 0 1 1400.8 696)">
   <path d="M43.3594 0.292969Q45.459 0.292969 46.875-1.07422Q48.291-2.44141 48.291-4.54102L48.291-18.7988L49.2676-18.7988Q56.2988-18.7988 61.792-17.4072Q67.2852-16.0156 71.6064-12.5Q75.9277-8.98438 79.4434-2.68555Q80.5176-0.732422 81.9092-0.219727Q83.3008 0.292969 84.6191 0.292969Q86.2793 0.292969 87.5977-1.17188Q88.916-2.63672 88.916-5.37109Q88.916-19.1895 84.9121-29.6387Q80.9082-40.0879 72.1924-45.8984Q63.4766-51.709 49.2676-51.709L48.291-51.709L48.291-65.6738Q48.291-67.7734 46.8506-69.2871Q45.4102-70.8008 43.2617-70.8008Q41.6992-70.8008 40.5029-70.0928Q39.3066-69.3848 37.5488-67.7734L7.27539-39.4531Q6.29883-38.4766 5.85938-37.3779Q5.41992-36.2793 5.41992-35.2539Q5.41992-34.2773 5.85938-33.1787Q6.29883-32.0801 7.27539-31.1035L37.5488-2.44141Q39.1113-1.02539 40.4541-0.366211Q41.7969 0.292969 43.3594 0.292969ZM40.7227-9.22852Q40.4297-9.22852 40.1855-9.47266L13.5254-34.8633Q13.3789-34.9609 13.3301-35.0586Q13.2812-35.1562 13.2812-35.2539Q13.2812-35.4492 13.5254-35.6445L40.1855-61.4258Q40.2832-61.5234 40.4297-61.5967Q40.5762-61.6699 40.7227-61.6699Q41.2109-61.6699 41.2109-61.1816L41.2109-46.4844Q41.2109-45.166 42.5781-45.166L48.2422-45.166Q56.3477-45.166 62.1338-43.0664Q67.9199-40.9668 71.7773-37.3535Q75.6348-33.7402 77.9297-29.1992Q80.2246-24.6582 81.3232-19.7021Q82.4219-14.7461 82.7148-10.0098Q82.7148-9.66797 82.4707-9.66797Q82.3242-9.66797 82.2266-9.96094Q78.9062-16.6016 70.3125-20.9961Q61.7188-25.3906 48.2422-25.3906L42.5781-25.3906Q41.2109-25.3906 41.2109-24.0234L41.2109-9.7168Q41.2109-9.22852 40.7227-9.22852Z"/>
  </g>
  <g id="Light-S" transform="matrix(1 0 0 1 1104.99 696)">
   <path d="M42.6758-0.537109Q44.4824-0.537109 45.6299-1.70898Q46.7773-2.88086 46.7773-4.6875L46.7773-19.6289L47.998-19.6289Q55.7129-19.6289 61.5723-18.1396Q67.4316-16.6504 71.8262-13.0615Q76.2207-9.47266 79.3945-3.22266Q80.2734-1.5625 81.4209-1.0498Q82.5684-0.537109 83.7402-0.537109Q85.1562-0.537109 86.2793-1.75781Q87.4023-2.97852 87.4023-5.27344Q87.4023-19.5801 83.1055-29.7852Q78.8086-39.9902 70.0928-45.3613Q61.377-50.7324 47.998-50.7324L46.7773-50.7324L46.7773-65.625Q46.7773-67.4316 45.6055-68.7012Q44.4336-69.9707 42.627-69.9707Q41.3086-69.9707 40.2588-69.3604Q39.209-68.75 37.8418-67.4805L7.71484-39.3555Q6.54297-38.2324 6.12793-37.207Q5.71289-36.1816 5.71289-35.2539Q5.71289-34.3262 6.12793-33.3252Q6.54297-32.3242 7.71484-31.2012L37.8418-2.83203Q39.1113-1.66016 40.2344-1.09863Q41.3574-0.537109 42.6758-0.537109ZM40.7715-7.76367Q40.4297-7.76367 40.0879-8.10547L12.3535-34.2773Q11.9629-34.5703 11.8408-34.79Q11.7188-35.0098 11.7188-35.2539Q11.7188-35.6934 12.3535-36.2305L40.0879-62.6953Q40.1855-62.793 40.3809-62.915Q40.5762-63.0371 40.7715-63.0371Q41.3086-63.0371 41.3086-62.4512L41.3086-46.875Q41.3086-45.6543 42.5781-45.6543L47.2656-45.6543Q54.9316-45.6543 60.7178-43.7256Q66.5039-41.7969 70.5811-38.3057Q74.6582-34.8145 77.2461-30.1514Q79.834-25.4883 81.1035-19.9463Q82.373-14.4043 82.5684-8.39844Q82.5684-7.95898 82.2266-7.95898Q81.9824-7.95898 81.7871-8.44727Q78.3203-16.0645 69.6533-20.4102Q60.9863-24.7559 47.2656-24.7559L42.5781-24.7559Q41.3086-24.7559 41.3086-23.5352L41.3086-8.34961Q41.3086-7.76367 40.7715-7.76367Z"/>
  </g>
  <g id="Thin-S" transform="matrix(1 0 0 1 809.474 696)">
   <path d="M41.7969-1.66016Q43.2129-1.66016 44.0186-2.58789Q44.8242-3.51562 44.8242-4.83398L44.8242-20.752L46.3379-20.752Q54.9316-20.752 61.3037-19.1162Q67.6758-17.4805 72.1191-13.7939Q76.5625-10.1074 79.3945-4.00391Q79.9805-2.63672 80.7861-2.14844Q81.5918-1.66016 82.5684-1.66016Q83.6914-1.66016 84.5215-2.56348Q85.3516-3.4668 85.3516-5.07812Q85.3516-20.1172 80.6885-29.9561Q76.0254-39.7949 67.2852-44.6289Q58.5449-49.4629 46.3379-49.4629L44.8242-49.4629L44.8242-65.5762Q44.8242-66.9434 44.0186-67.8955Q43.2129-68.8477 41.748-68.8477Q40.7715-68.8477 39.9414-68.3838Q39.1113-67.9199 38.2324-67.1387L8.25195-39.209Q6.88477-37.8906 6.49414-36.9873Q6.10352-36.084 6.10352-35.2539Q6.10352-34.4238 6.49414-33.5205Q6.88477-32.6172 8.25195-31.2988L38.2324-3.32031Q39.0625-2.53906 39.917-2.09961Q40.7715-1.66016 41.7969-1.66016ZM40.8691-5.76172Q40.4785-5.76172 39.9414-6.25L10.7422-33.4473Q10.1074-34.0332 9.91211-34.4482Q9.7168-34.8633 9.7168-35.2539Q9.7168-36.0352 10.7422-37.0605L39.8926-64.3555Q40.0879-64.502 40.3076-64.6729Q40.5273-64.8438 40.8203-64.8438Q41.5039-64.8438 41.5039-64.1602L41.5039-47.3633Q41.5039-46.2891 42.5781-46.2891L45.9473-46.2891Q53.125-46.2891 58.8867-44.5801Q64.6484-42.8711 69.0186-39.5508Q73.3887-36.2305 76.3428-31.3965Q79.2969-26.5625 80.8105-20.2393Q82.3242-13.916 82.4219-6.29883Q82.4219-5.71289 81.8848-5.71289Q81.543-5.71289 81.25-6.49414Q77.5391-15.2832 68.7988-19.6045Q60.0586-23.9258 45.9473-23.9258L42.5781-23.9258Q41.5039-23.9258 41.5039-22.8516L41.5039-6.49414Q41.5039-5.76172 40.8691-5.76172Z"/>
  </g>
  <g id="Ultralight-S" transform="matrix(1 0 0 1 513.398 696)">
   <path d="M41.3086-2.19727Q42.5293-2.19727 43.1641-3.00293Q43.7988-3.80859 43.7988-4.93164L43.7988-21.3379L45.5078-21.3379Q54.541-21.3379 61.1572-19.6289Q67.7734-17.9199 72.2656-14.1846Q76.7578-10.4492 79.3457-4.3457Q79.834-3.17383 80.4443-2.68555Q81.0547-2.19727 81.9824-2.19727Q82.959-2.19727 83.6426-2.9541Q84.3262-3.71094 84.3262-5.0293Q84.3262-20.4102 79.4678-30.0781Q74.6094-39.7461 65.8691-44.2627Q57.1289-48.7793 45.5078-48.7793L43.7988-48.7793L43.7988-65.5273Q43.7988-66.6992 43.1641-67.5049Q42.5293-68.3105 41.3086-68.3105Q40.4785-68.3105 39.7705-67.9199Q39.0625-67.5293 38.4766-66.9434L8.54492-39.1113Q7.08008-37.7441 6.68945-36.8896Q6.29883-36.0352 6.29883-35.2539Q6.29883-34.4727 6.68945-33.6182Q7.08008-32.7637 8.54492-31.3965L38.4766-3.56445Q39.0625-2.97852 39.7705-2.58789Q40.4785-2.19727 41.3086-2.19727ZM40.918-4.78516Q40.4785-4.78516 39.8438-5.32227L9.96094-33.0566Q9.17969-33.7402 8.91113-34.2529Q8.64258-34.7656 8.64258-35.2539Q8.64258-36.2305 9.96094-37.4512L39.8438-65.1855Q40.0391-65.3809 40.2832-65.5762Q40.5273-65.7715 40.8691-65.7715Q41.5527-65.7715 41.5527-65.0391L41.5527-47.6074Q41.5527-46.6309 42.5781-46.6309L45.3125-46.6309Q52.1484-46.6309 57.9346-45.0195Q63.7207-43.4082 68.2129-40.1855Q72.7051-36.9629 75.8545-32.0312Q79.0039-27.0996 80.6396-20.4102Q82.2754-13.7207 82.3242-5.22461Q82.3242-4.58984 81.7383-4.58984Q81.3477-4.58984 80.957-5.46875Q77.1484-14.9414 68.3594-19.2383Q59.5703-23.5352 45.3125-23.5352L42.5781-23.5352Q41.5527-23.5352 41.5527-22.5098L41.5527-5.56641Q41.5527-4.78516 40.918-4.78516Z"/>
  </g>
 </g>
</svg>
